<svg width="48" height="48" viewBox="0 0 48 48" fill="none" xmlns="http://www.w3.org/2000/svg">
<path d="M43.5 30H37.5V19.0012C38.9419 20.7801 40.8133 22.1623 42.9375 23.0175C43.3047 23.159 43.7127 23.1505 44.0737 22.9939C44.4347 22.8373 44.7197 22.5452 44.8673 22.1804C45.0149 21.8156 45.0132 21.4075 44.8627 21.0439C44.7121 20.6804 44.4248 20.3905 44.0625 20.2369C42.1198 19.457 40.4559 18.1122 39.2859 16.3763C38.1159 14.6404 37.4938 12.5933 37.5 10.5C37.5 10.1022 37.342 9.72064 37.0607 9.43934C36.7794 9.15804 36.3978 9 36 9C35.6022 9 35.2206 9.15804 34.9393 9.43934C34.658 9.72064 34.5 10.1022 34.5 10.5C34.5 13.2848 33.3938 15.9555 31.4246 17.9246C29.4555 19.8938 26.7848 21 24 21C21.2152 21 18.5445 19.8938 16.5754 17.9246C14.6062 15.9555 13.5 13.2848 13.5 10.5C13.5 10.1022 13.342 9.72064 13.0607 9.43934C12.7794 9.15804 12.3978 9 12 9C11.6022 9 11.2206 9.15804 10.9393 9.43934C10.658 9.72064 10.5 10.1022 10.5 10.5C10.5062 12.5933 9.88406 14.6404 8.7141 16.3763C7.54414 18.1122 5.88018 19.457 3.9375 20.2369C3.57524 20.3905 3.28786 20.6804 3.1373 21.0439C2.98675 21.4075 2.98509 21.8156 3.13267 22.1804C3.28025 22.5452 3.56526 22.8373 3.92625 22.9939C4.28725 23.1505 4.69532 23.159 5.0625 23.0175C7.18672 22.1623 9.05807 20.7801 10.5 19.0012V30H4.5C4.10218 30 3.72064 30.158 3.43934 30.4393C3.15804 30.7206 3 31.1022 3 31.5C3 31.8978 3.15804 32.2794 3.43934 32.5607C3.72064 32.842 4.10218 33 4.5 33H10.5V37.5C10.5 37.8978 10.658 38.2794 10.9393 38.5607C11.2206 38.842 11.6022 39 12 39C12.3978 39 12.7794 38.842 13.0607 38.5607C13.342 38.2794 13.5 37.8978 13.5 37.5V33H34.5V37.5C34.5 37.8978 34.658 38.2794 34.9393 38.5607C35.2206 38.842 35.6022 39 36 39C36.3978 39 36.7794 38.842 37.0607 38.5607C37.342 38.2794 37.5 37.8978 37.5 37.5V33H43.5C43.8978 33 44.2794 32.842 44.5607 32.5607C44.842 32.2794 45 31.8978 45 31.5C45 31.1022 44.842 30.7206 44.5607 30.4393C44.2794 30.158 43.8978 30 43.5 30ZM27 23.6625V30H21V23.6625C22.9747 24.1126 25.0253 24.1126 27 23.6625ZM13.5 18.975C14.724 20.4877 16.2586 21.7199 18 22.5881V30H13.5V18.975ZM30 30V22.59C31.7414 21.7217 33.276 20.4896 34.5 18.9769V30H30Z" fill="#F5821F"/>
</svg>
