<svg width="116" height="116" viewBox="0 0 116 116" fill="none" xmlns="http://www.w3.org/2000/svg">
<path d="M59.8562 101.407C63.9394 102.312 68.185 101.384 71.549 98.9016C76.9314 94.8416 79.0194 87.3248 84.7034 83.752C88.253 81.5248 92.7538 81.1072 96.141 78.648C99.5746 76.1656 101.338 71.8272 101.593 67.6048C101.848 63.3824 100.735 59.16 99.389 55.1464C97.6954 50.1352 95.5842 45.2632 93.473 40.4144C92.4986 38.1872 91.501 35.9136 89.761 34.22C86.4898 31.0648 81.4322 30.7168 76.9082 31.1344C72.3842 31.552 67.7442 32.596 63.3362 31.5288C59.717 30.6472 56.6082 28.42 53.2674 26.7264C49.9266 25.0328 46.0058 23.8496 42.5258 25.1952C37.2362 27.2368 35.6122 33.8024 32.109 38.2568C28.8378 42.4096 23.8498 44.7528 19.697 48.0008C15.5442 51.2488 11.9946 56.492 13.5026 61.5496C14.7322 65.7256 19.001 68.324 20.7178 72.3144C22.0634 75.4464 21.6922 79.0656 22.9682 82.2208C24.8242 86.7912 29.6962 89.3896 34.4754 90.5496C39.0226 91.6632 44.985 91.2456 48.9986 93.8672C52.8962 96.4424 54.9378 100.294 59.8562 101.407Z" fill="white"/>
<path d="M62.9415 101.918C61.8975 101.918 60.8303 101.802 59.8095 101.57C56.6079 100.85 54.6591 99.0176 52.5943 97.0688C51.4807 96.0248 50.2975 94.9344 48.9287 94.0296C46.3303 92.336 42.8735 91.9184 39.5327 91.524C37.7231 91.3152 36.0295 91.1064 34.4519 90.7352C26.5175 88.7864 23.7567 84.6104 22.8287 82.2904C22.2023 80.7128 21.9471 79.0192 21.7151 77.372C21.4831 75.6784 21.2279 73.9384 20.5551 72.3608C19.7663 70.5512 18.4207 68.9736 17.1215 67.4656C15.5903 65.6792 14.0127 63.8464 13.3167 61.5728C11.7391 56.3064 15.5207 51.04 19.5807 47.8384C20.9727 46.748 22.4807 45.7272 23.9423 44.776C26.8191 42.8504 29.8119 40.8784 31.9463 38.1408C33.1063 36.6792 34.0575 34.9392 34.9855 33.2688C36.8647 29.8816 38.8367 26.4016 42.4327 25.0096C45.4023 23.8728 49.0679 24.3832 53.3135 26.5408C54.2647 27.028 55.1927 27.5616 56.1207 28.072C58.4175 29.3712 60.7607 30.6936 63.3359 31.32C66.7695 32.1552 70.3655 31.7144 73.8687 31.2736C74.8431 31.1576 75.8639 31.0184 76.8383 30.9256C82.8007 30.3456 87.0463 31.3664 89.8303 34.0576C91.6167 35.7976 92.6607 38.1872 93.5887 40.2984C95.6767 45.0776 97.8111 50.0192 99.5279 55.0304C100.781 58.7192 102.01 63.0808 101.755 67.5584C101.477 72.2448 99.4119 76.4208 96.2335 78.7408C94.4239 80.0632 92.2663 80.8056 90.1551 81.5248C88.3223 82.1512 86.4199 82.8008 84.7727 83.8448C81.8031 85.724 79.7847 88.74 77.8127 91.64C76.0263 94.308 74.1935 97.0456 71.6183 98.9944C69.1127 100.897 66.0735 101.918 62.9415 101.918ZM59.8791 101.222C63.8927 102.126 68.1151 101.222 71.4327 98.7392C73.9615 96.8368 75.7943 94.1224 77.5575 91.4776C79.5295 88.5312 81.5711 85.4688 84.6103 83.5664C86.2807 82.4992 88.2063 81.8496 90.0623 81.2C92.1271 80.4808 94.2615 79.7616 96.0479 78.4624C99.1567 76.212 101.152 72.1288 101.43 67.5352C101.685 63.104 100.456 58.7888 99.2263 55.1464C97.5327 50.1352 95.3751 45.2168 93.3103 40.4376C92.4055 38.3496 91.3615 35.9832 89.6215 34.2896C86.9303 31.6912 82.7775 30.6936 76.9079 31.2504C75.9335 31.3432 74.9127 31.4824 73.9383 31.5984C70.4119 32.0392 66.7695 32.48 63.2895 31.6448C60.6679 30.9952 58.2783 29.6496 55.9815 28.3504C55.0767 27.84 54.1255 27.3064 53.1975 26.8192C49.0447 24.708 45.4719 24.1976 42.5951 25.288C39.1151 26.6336 37.2823 29.928 35.3335 33.408C34.3823 35.0784 33.4311 36.8184 32.2479 38.3032C30.0671 41.0872 27.0511 43.0824 24.1511 45.0312C22.6895 46.0056 21.1815 47.0032 19.8127 48.0936C15.8455 51.272 12.1567 56.4224 13.6879 61.5032C14.3375 63.7072 15.8919 65.5168 17.3999 67.28C18.7223 68.8112 20.0911 70.3888 20.8799 72.268C21.5759 73.892 21.8079 75.6552 22.0631 77.372C22.2951 78.996 22.5271 80.6664 23.1535 82.1976C24.0583 84.448 26.7495 88.508 34.5447 90.4336C36.1919 90.8048 37.8855 91.06 39.5791 91.2224C42.9663 91.6168 46.4463 92.0344 49.1375 93.7744C50.5527 94.7024 51.7127 95.7928 52.8495 96.86C54.8679 98.7392 56.7935 100.549 59.8791 101.222Z" fill="#004812"/>
<path d="M13.1313 66.7464C12.6905 66.3288 12.1569 65.888 11.5537 65.9344C10.6721 65.9808 10.1153 66.9552 10.0921 67.8368C10.0689 69.6232 11.4609 71.0848 12.5281 72.5232C13.8737 74.3328 14.8249 76.4208 15.3121 78.6248C15.5905 79.9472 15.7761 83.1256 17.7481 82.7312C19.5113 82.3832 19.6505 79.7384 19.4649 78.4624C18.8153 74.0776 16.3329 69.7624 13.1313 66.7464Z" fill="white"/>
<path d="M17.4232 82.94C17.1216 82.94 16.8432 82.8472 16.588 82.6848C15.7064 82.0816 15.428 80.4808 15.2424 79.344C15.196 79.0888 15.1728 78.8568 15.1264 78.6712C14.6624 76.4904 13.7112 74.4256 12.3888 72.6392C12.2264 72.4072 12.0408 72.1984 11.8784 71.9664C10.904 70.7136 9.9064 69.4376 9.9296 67.86C9.9528 66.8856 10.5792 65.8184 11.5536 65.772C12.2264 65.7488 12.8064 66.1896 13.2704 66.6304C16.6344 69.8088 19.024 74.24 19.6504 78.4624C19.7664 79.3208 19.72 80.1792 19.5112 81.0144C19.2096 82.1048 18.6296 82.7544 17.7944 82.9168C17.6784 82.94 17.5624 82.94 17.4232 82.94ZM11.6 66.0968H11.5536C10.788 66.1432 10.2776 67.0248 10.2776 67.8368C10.2544 69.2984 11.2288 70.528 12.1568 71.7344C12.3424 71.9664 12.5048 72.1984 12.6672 72.4072C14.036 74.24 14.9872 76.3512 15.4744 78.5784C15.5208 78.764 15.544 79.0192 15.5904 79.2744C15.776 80.3648 16.0312 81.8728 16.7968 82.4064C17.0752 82.592 17.4 82.6384 17.7016 82.5688C19.4184 82.244 19.4184 79.4368 19.2792 78.5088C18.6528 74.356 16.3096 70.0176 13.0152 66.8856C12.5976 66.468 12.1336 66.0968 11.6 66.0968Z" fill="#004812"/>
<path d="M22.4343 88.4384C22.8983 88.0904 23.1303 87.5336 23.0607 86.9536C22.9679 86.3968 22.7591 85.8632 22.4343 85.3992C22.1327 84.8656 21.7151 84.4016 21.2047 84.0536C20.6711 83.7288 19.9751 83.6592 19.4647 83.984C18.8151 84.4016 18.6527 85.3296 18.8615 86.0952C19.2559 87.5104 20.4855 88.5544 21.9471 88.6704" fill="white"/>
<path d="M21.9474 88.856C20.393 88.7168 19.0938 87.6496 18.6994 86.1416C18.4906 85.3528 18.6298 84.3088 19.3954 83.8448C19.9986 83.4968 20.741 83.5432 21.321 83.9144C21.8546 84.2856 22.2954 84.7496 22.6202 85.3064C22.9682 85.7936 23.177 86.3504 23.2698 86.9304C23.3626 87.5568 23.0842 88.1832 22.5738 88.5776C22.5042 88.624 22.3882 88.6008 22.3418 88.5312C22.2954 88.4616 22.3186 88.3456 22.3882 88.2992C22.8058 87.9976 23.0146 87.4872 22.945 86.9768C22.8522 86.4432 22.6666 85.9328 22.3418 85.492C22.0402 84.9816 21.6226 84.5176 21.1354 84.1928C20.6946 83.9376 20.045 83.8216 19.581 84.1232C18.9778 84.5176 18.885 85.3992 19.0474 86.0488C19.4186 87.3944 20.5786 88.3688 21.9706 88.4848C22.0634 88.4848 22.133 88.5776 22.133 88.6704C22.0866 88.7864 22.017 88.856 21.9474 88.856Z" fill="#004812"/>
<path d="M74.4953 26.5408C74.0545 24.7776 72.0361 23.896 70.2265 23.8264C68.4169 23.7568 66.6073 24.2904 64.7977 24.128C62.9417 23.9656 61.2249 23.1536 59.5545 22.3184C57.8841 21.4832 56.1905 20.648 54.3345 20.4392H54.2881C52.1073 20.2072 51.2489 23.2232 53.2209 24.1976C56.2833 25.7288 59.3921 27.2832 62.5473 28.304C64.5657 28.9536 66.7233 29.116 68.8113 28.7912C69.4145 28.7448 74.7041 27.376 74.4953 26.5408Z" fill="white"/>
<path d="M66.7232 29.1624C65.2848 29.1624 63.8696 28.9536 62.5008 28.5128C59.3688 27.5152 56.3064 25.9608 53.3136 24.476L53.1512 24.3832C52.2 23.9192 51.736 22.8288 52.0376 21.8312C52.316 20.8336 53.2672 20.1608 54.3112 20.3H54.3576C56.2136 20.5088 57.9304 21.344 59.5776 22.1792L59.624 22.2024C61.48 23.1304 63.0576 23.8496 64.7976 23.9888C65.7488 24.0352 66.7233 23.9888 67.6744 23.8496C68.5097 23.7336 69.368 23.6872 70.2032 23.6872C72.0128 23.7336 74.1705 24.6616 74.6345 26.5176C74.6576 26.6336 74.6344 26.7728 74.5648 26.8656C73.9152 27.84 69.1128 28.9768 68.8112 29.0232C68.1384 29.116 67.4424 29.1624 66.7232 29.1624ZM54.0792 20.6248C53.2904 20.6248 52.5944 21.1584 52.3856 21.924C52.1304 22.7824 52.5248 23.6872 53.3136 24.0816L53.4992 24.1744C56.4688 25.6592 59.5312 27.1904 62.6168 28.188C64.612 28.8144 66.7232 29 68.788 28.6752C69.5304 28.5592 73.7992 27.4224 74.3096 26.68C74.3328 26.6568 74.3328 26.6336 74.3328 26.6104C73.9152 24.9168 71.8969 24.0816 70.2264 24.0352C69.3913 24.0352 68.556 24.0816 67.744 24.1976C66.7696 24.3368 65.7952 24.3832 64.7976 24.3368C62.8488 24.1744 60.9928 23.2464 59.508 22.5272L59.4616 22.504C57.8376 21.692 56.144 20.8568 54.3576 20.6712H54.288C54.2184 20.6248 54.1488 20.6248 54.0792 20.6248Z" fill="#004812"/>
<path d="M27.7241 91.3848C26.6105 92.0808 25.4041 92.8464 24.7777 94.0064C23.9889 95.4912 24.4761 97.0456 25.1721 98.252C26.1465 99.992 27.5153 101.477 29.1857 102.59C30.4153 103.402 31.9233 104.029 33.5705 103.565C35.2177 103.101 36.5633 101.709 37.7929 100.363C40.6001 97.3008 43.3145 94.076 45.4489 90.5728C47.5833 87.0696 49.1377 83.1952 49.4393 79.46C49.5553 78.068 49.4393 76.6296 48.6041 75.748C47.2817 74.3792 45.6345 75.4 44.4049 76.8848C42.8041 78.7872 41.0873 80.5968 39.2777 82.3136C35.7281 85.724 31.8537 88.74 27.7241 91.3848Z" fill="#004812"/>
<path d="M41.6208 63.5216C41.5744 62.1992 41.3424 60.7144 42.224 59.74C42.8968 58.9976 44.0568 58.8816 45.008 59.2296C45.9592 59.5776 46.6784 60.32 47.2584 61.132C49.184 63.8464 49.6712 67.3264 48.604 70.4584C50.8544 70.6672 53.0584 69.9016 55.3088 69.7624C57.5592 69.6232 60.1808 70.412 60.9696 72.5232C61.6424 74.2864 60.7608 76.2352 59.7632 77.8128C57.652 81.1536 54.6592 84.1928 50.8312 85.2136C47.6296 86.072 42.804 85.0976 41.1104 81.9192C39.7416 79.3672 39.9504 74.5416 40.368 71.8736C40.832 69.0896 41.76 66.352 41.6208 63.5216Z" fill="white"/>
<path d="M48.4418 85.6776C45.4722 85.6776 42.2706 84.448 40.9714 81.9888C39.533 79.2976 39.8114 74.3328 40.2058 71.8272C40.345 70.9456 40.5306 70.0408 40.7162 69.1824C41.1106 67.3496 41.5282 65.4472 41.4354 63.5216C41.4354 63.3592 41.4354 63.1968 41.4122 63.0344C41.3426 61.8512 41.273 60.5288 42.1082 59.624C42.8042 58.8816 43.9874 58.6728 45.0778 59.0672C45.913 59.392 46.6786 60.0184 47.421 61.0392C49.3466 63.7304 49.8802 67.164 48.8594 70.3192C50.1122 70.3888 51.4114 70.18 52.641 69.9712C53.5226 69.8088 54.4042 69.6696 55.309 69.6C57.629 69.4608 60.3202 70.296 61.1322 72.4768C61.689 73.9616 61.2946 75.7248 59.9026 77.9288C58.1626 80.7128 55.1698 84.2392 50.8778 85.3992C50.089 85.5848 49.277 85.6776 48.4418 85.6776ZM41.8066 63.5216C41.8994 65.4936 41.4818 67.4192 41.0874 69.2752C40.9018 70.1336 40.7162 71.0152 40.577 71.8968C40.2058 74.1936 39.9042 79.228 41.2962 81.8496C42.5954 84.2856 46.725 86.1648 50.8314 85.0744C55.0074 83.9608 57.9306 80.4808 59.6474 77.7664C60.9698 75.6784 61.3642 74.008 60.8306 72.6392C60.065 70.6208 57.5362 69.8552 55.3554 69.9944C54.4738 70.064 53.5922 70.18 52.7338 70.3424C51.3882 70.5744 50.0194 70.8064 48.6506 70.6904C48.6042 70.6904 48.5578 70.6672 48.5114 70.6208C48.4882 70.5744 48.4882 70.528 48.4882 70.4816C49.5554 67.396 49.0682 63.9856 47.1658 61.3176C46.493 60.3664 45.7738 59.7632 44.985 59.4616C44.0338 59.1136 42.9666 59.2992 42.3866 59.9256C41.6442 60.7144 41.7138 61.9208 41.7834 63.0808C41.7834 63.1736 41.7834 63.336 41.8066 63.5216Z" fill="#004812"/>
<path d="M28.2114 46.4464C27.7242 48.256 27.8402 50.1816 28.0954 52.0376C28.397 54.288 28.8842 56.5616 30.0442 58.5336C31.2042 60.5056 33.1066 62.1064 35.357 62.4776C37.6074 62.8488 40.1362 61.712 40.9714 59.6008C41.5746 58.0928 41.2962 56.3992 40.9482 54.8216C40.2522 51.5272 39.649 45.4488 37.0274 43.0128C33.8026 39.9736 29.1858 42.804 28.2114 46.4464Z" fill="#004812"/>
<path d="M59.1138 72.7552C59.7402 73.544 60.413 74.2864 60.5754 75.1448C60.8074 76.4904 59.5314 77.72 57.9538 78.1144C56.469 78.4856 54.7522 78.2304 53.337 77.6272C51.9682 77.0008 50.7154 76.1424 49.6714 75.052C47.2818 72.6856 45.449 69.484 43.4306 65.7488C42.7346 64.4496 41.9922 62.9648 41.9922 61.5032C41.9922 59.044 44.0338 57.652 46.1914 57.1648C47.4674 56.8632 51.8058 54.9608 53.0586 55.8656C54.5898 56.956 54.3114 60.9464 54.6594 62.5704C55.541 66.7696 57.0722 70.18 59.1138 72.7552Z" fill="#004812"/>
<path d="M57.8612 31.8768C61.0628 28.7912 63.6148 25.1024 65.9348 21.3208C67.4196 18.908 69.0668 16.2168 71.7812 15.4512C73.846 14.8712 76.0964 15.5672 77.8132 16.82C79.53 18.0728 80.806 19.836 81.9892 21.6224C87.0004 29.2784 90.5732 38.0016 91.3156 47.1192C91.594 50.46 91.362 54.1256 89.1348 56.6544C87.0004 59.0672 83.474 59.8096 80.2724 59.5312C77.0708 59.2528 73.9852 58.1392 70.8532 57.42C66.77 56.492 62.5476 56.2832 58.3948 56.7472C56.4228 56.9792 54.3812 57.3504 52.502 56.7472C50.1356 56.0048 48.5116 53.8704 47.1196 51.7824C45.7276 49.6944 44.382 47.4672 43.9644 44.9848C43.6628 43.268 43.8484 41.296 44.7532 39.7648C45.6116 38.3032 46.47 38.4424 47.978 38.0712C51.6436 37.12 55.1236 34.5216 57.8612 31.8768Z" fill="#004812"/>
<path d="M56.0745 56.2832C56.2601 57.2576 56.3993 58.3016 55.8193 59.1832C54.8681 60.6448 52.3625 61.0392 50.1817 61.2712C45.7737 61.7352 40.8321 62.1296 37.1433 60.1344C33.4545 58.1392 32.3177 54.5432 31.4593 51.272C30.8561 49.0448 30.2993 46.6088 31.6913 44.6368C32.6889 43.1984 34.5681 42.2472 36.4241 41.412C39.4633 40.0432 42.5953 38.8368 45.7969 37.8392C47.2121 37.3984 48.1865 36.772 49.2769 37.5608C50.2281 38.2568 50.7385 40.368 51.1793 41.296C53.4761 46.052 55.1001 51.0864 56.0745 56.2832Z" fill="white"/>
<path d="M44.5208 61.828C41.8064 61.828 39.2312 61.4568 37.0736 60.2968C33.4312 58.3248 32.2248 54.7984 31.2968 51.3184C30.6472 48.8592 30.1832 46.516 31.552 44.544C32.596 43.036 34.5912 42.0616 36.3776 41.2496C39.44 39.8808 42.572 38.6744 45.7504 37.6536C46.0056 37.5608 46.2608 37.4912 46.4928 37.3984C47.5368 37.0272 48.4416 36.7024 49.416 37.4216C50.1584 37.9552 50.6224 39.2312 50.9936 40.252C51.1328 40.6232 51.2488 40.9712 51.3648 41.2032C53.6384 45.9824 55.2856 51.04 56.26 56.2368C56.4456 57.2576 56.5848 58.348 55.9816 59.2528C55.0304 60.7144 52.6408 61.1552 50.228 61.4336C48.3256 61.6656 46.4232 61.7816 44.5208 61.828ZM48.14 37.352C47.676 37.352 47.1888 37.5376 46.5856 37.7464C46.3536 37.8392 46.0984 37.932 45.8432 38.0016C42.6648 39.0224 39.5328 40.2056 36.4936 41.5744C34.7536 42.3632 32.828 43.3144 31.8304 44.7528C30.5544 46.6088 30.9952 48.8824 31.6216 51.2256C32.5264 54.6128 33.6864 58.0928 37.2128 59.972C40.7856 61.8976 45.5648 61.5728 50.1584 61.0856C52.5016 60.8304 54.7752 60.4128 55.6568 59.0672C56.1904 58.2552 56.0744 57.304 55.8888 56.3064C54.9144 51.1328 53.2672 46.1216 51.0168 41.3656C50.9008 41.1104 50.7616 40.7624 50.6224 40.368C50.2512 39.3936 49.8104 38.164 49.1608 37.6768C48.8824 37.468 48.5344 37.352 48.14 37.352Z" fill="#004812"/>
<path d="M85.028 54.9608C84.564 54.9608 84.1232 54.868 83.7056 54.6592C82.5224 54.0792 81.8032 52.9424 81.1072 51.7128C76.1888 43.1752 71.3864 33.872 69.716 23.548C69.4376 21.8544 69.2984 20.0912 70.0872 18.6064C70.6208 17.6784 71.5024 17.0288 72.5464 16.82C73.2888 16.6576 74.0544 16.8432 74.6576 17.3304C74.7968 17.4464 74.82 17.6784 74.704 17.8176C74.588 17.9568 74.356 17.98 74.2168 17.864C73.7992 17.516 73.2192 17.4 72.6856 17.516C71.8504 17.6784 71.1312 18.212 70.7136 18.9544C70.0176 20.2536 70.1568 21.8776 70.412 23.4552C72.0824 33.6632 76.8384 42.92 81.7336 51.388C82.4064 52.548 83.0328 53.5456 84.0536 54.056C84.6336 54.3344 85.3296 54.3576 85.9328 54.1256C86.304 53.9864 86.6056 53.6848 86.7448 53.2904C86.7912 53.1048 86.9768 52.9888 87.1624 53.0352C87.348 53.0816 87.464 53.2672 87.4176 53.4528C87.4176 53.476 87.4176 53.476 87.3944 53.4992C87.2088 54.0792 86.7448 54.5432 86.188 54.752C85.8168 54.8912 85.4224 54.9608 85.028 54.9608Z" fill="white"/>
<path d="M80.5505 42.4792C80.4113 42.4792 80.2721 42.456 80.1561 42.456C79.9705 42.4328 79.8313 42.2472 79.8545 42.0616C79.8777 41.876 80.0633 41.7368 80.2489 41.76C81.2929 41.9456 82.2905 41.064 82.6617 40.136C83.1025 38.9992 82.8937 37.6768 82.6849 36.772C82.2905 35.0552 81.6177 33.3848 80.6897 31.8768C79.7617 30.392 78.8105 29.464 77.7433 29.0232C76.5833 28.5592 74.9593 28.7448 74.2401 29.8352C74.1241 29.9976 73.9153 30.044 73.7529 29.928C73.5905 29.812 73.5441 29.6032 73.6601 29.4408C74.6113 27.9792 76.6297 27.7936 78.0217 28.3504C79.2281 28.8376 80.2953 29.8584 81.2929 31.4824C82.2673 33.06 82.9633 34.7768 83.3809 36.5864C83.6129 37.5608 83.8449 39.0456 83.3345 40.3448C82.9169 41.4584 81.8497 42.4792 80.5505 42.4792Z" fill="white"/>
<path d="M59.1601 76.3512C59.0905 76.3512 59.0441 76.328 58.9745 76.3048C54.1953 73.3816 50.9937 68.44 50.3209 62.872C50.2977 62.6864 50.4369 62.5008 50.6225 62.4776C50.8081 62.4544 50.9937 62.5936 51.0169 62.7792C51.6665 68.1384 54.7521 72.8944 59.3457 75.7016C59.5081 75.7944 59.5545 76.0032 59.4617 76.1888C59.3921 76.3048 59.2761 76.3744 59.1601 76.3512Z" fill="#004812"/>
<path d="M93.0318 20.1376L97.0454 24.3368C93.5422 24.1744 90.039 24.7776 86.7678 26.1C88.0438 26.912 89.227 27.8864 90.2942 28.9536C88.1598 29.7192 86.1182 30.74 84.2622 32.0624C87.0694 31.088 89.9926 30.5776 92.9622 30.5312C92.3822 29.3248 91.5702 28.2344 90.5726 27.3064C93.867 26.912 97.1846 26.9816 100.433 27.5616C100.154 25.9144 99.4582 24.36 98.391 23.0376C100.363 23.2 102.196 23.7336 104.121 24.0352C104.075 23.1304 103.959 21.7384 103.541 20.88C103.101 19.952 101.917 19.8824 101.013 19.7664C99.667 19.5808 98.2982 19.5112 96.9294 19.5808C96.2566 19.604 95.5838 19.6736 94.8878 19.7664C94.7022 19.8128 93.1014 20.2304 93.0318 20.1376Z" fill="#004812"/>
<path d="M93.5422 31.204C94.7486 32.5496 95.8622 34.0112 96.8366 35.5424C94.4006 34.916 91.8718 34.7072 89.3662 34.9392C93.3798 36.0064 97.1846 37.7464 100.641 40.0432C100.201 38.396 99.5742 36.8416 98.7622 35.3568L105.931 37.2824C105.073 36.9808 104.145 36.0064 103.356 35.5192C102.335 34.8928 101.291 34.3128 100.224 33.7792C98.0662 32.7352 95.839 31.8768 93.5422 31.204Z" fill="#004812"/>
<path d="M80.5967 21.7152C82.3135 21.0192 84.0767 20.4624 85.8863 20.0448C84.5175 22.0632 83.5199 24.3368 82.9631 26.7032C85.3063 23.3392 88.2063 20.3696 91.5239 17.9568C89.7839 17.8408 88.0439 17.9336 86.3271 18.212L90.4799 12.2264C89.9231 12.9224 88.6471 13.456 87.9511 14.036C87.0231 14.7784 86.1415 15.544 85.2831 16.356C83.5199 18.0264 81.9655 19.8128 80.5967 21.7152Z" fill="#004812"/>
<path d="M55.1695 59.6936C51.9911 60.1808 49.1375 61.8512 47.1423 64.38C46.2375 65.54 45.5183 66.9552 45.6807 68.4168C45.9127 70.6904 48.2559 72.2912 50.5527 72.4304C52.8495 72.5696 55.0303 71.572 57.0487 70.4816C55.8423 71.572 55.0071 73.1264 54.9607 74.7504C54.9143 76.3744 55.7727 78.0448 57.2111 78.8104C59.1135 79.8312 61.5959 79.0888 63.0807 77.5112C64.5655 75.9336 65.2151 73.776 65.5167 71.6416C65.8879 68.9968 66.3287 64.3336 64.4495 62.1064C62.5007 59.7632 57.9303 59.2992 55.1695 59.6936Z" fill="white"/>
<path d="M59.1599 79.4368C58.4407 79.4368 57.7447 79.2744 57.1183 78.9496C55.6799 78.184 54.7519 76.4904 54.7751 74.7272C54.8215 73.4048 55.3087 72.1288 56.1671 71.108C54.4503 71.9664 52.5247 72.7088 50.5295 72.5928C48.2559 72.4536 45.7503 70.8528 45.4951 68.4168C45.3559 67.1176 45.8663 65.7256 47.0031 64.264C49.0215 61.712 51.9215 59.9952 55.1463 59.508C57.6751 59.1368 62.4775 59.4616 64.5887 61.9672C66.0039 63.6376 66.3519 66.816 65.6791 71.6416C65.3079 74.2864 64.4959 76.2584 63.1967 77.604C62.1527 78.764 60.6911 79.4136 59.1599 79.4368ZM57.0255 70.296C57.1183 70.296 57.2111 70.3656 57.2111 70.4584C57.2111 70.5048 57.1879 70.5512 57.1415 70.5976C55.8887 71.7344 55.1463 73.2424 55.1231 74.7272C55.0999 76.3512 55.9583 77.9288 57.2807 78.6248C59.2063 79.6456 61.6423 78.7408 62.9415 77.372C64.1943 76.0728 64.9831 74.1704 65.3311 71.5952C65.9807 66.932 65.6327 63.7768 64.3103 62.1992C63.2431 60.9232 59.8327 59.1832 55.1927 59.856C52.0607 60.3432 49.2303 61.9904 47.2815 64.4728C46.2143 65.8416 45.7271 67.164 45.8431 68.3704C46.0751 70.6208 48.4183 72.1056 50.5527 72.2216C52.8263 72.3608 55.0535 71.3168 56.9559 70.2728C56.9791 70.296 57.0023 70.296 57.0255 70.296Z" fill="#004812"/>
<path d="M59.1132 79.3904C58.4172 79.3904 57.7444 79.228 57.1412 78.9032C55.726 78.1376 54.798 76.4672 54.8444 74.7272C54.8444 74.6576 54.8908 74.6112 54.9604 74.6112C55.03 74.6112 55.0764 74.6576 55.0764 74.7272C55.0532 76.3744 55.9116 77.9752 57.2572 78.6944C59.206 79.7384 61.6652 78.8104 62.9876 77.4184C63.034 77.372 63.1036 77.372 63.15 77.4184C63.1964 77.4648 63.1964 77.5344 63.15 77.5808C62.106 78.6944 60.6444 79.344 59.1132 79.3904Z" fill="#004812"/>
<path d="M57.2113 70.412C57.1881 70.412 57.1649 70.412 57.1649 70.3888C57.1185 70.3656 57.0953 70.296 57.1185 70.2264C58.5801 67.512 61.1553 65.5864 64.1481 64.9136C64.2177 64.8904 64.2641 64.9368 64.2873 65.0064C64.3105 65.076 64.2641 65.1224 64.1945 65.1456C61.2481 65.7952 58.7425 67.6744 57.3041 70.3424C57.2809 70.3656 57.2577 70.3888 57.2113 70.412Z" fill="#004812"/>
</svg>
