<svg width="141" height="142" viewBox="0 0 141 142" fill="none" xmlns="http://www.w3.org/2000/svg">
<path d="M77.183 105.023C62.0396 105.591 46.6424 109.312 34.2626 118.116C30.7376 120.615 27.1562 124.591 28.397 128.737C29.3558 131.89 32.7116 133.565 35.7854 134.673C51.0416 140.097 67.6514 140.523 83.1614 135.837C93.2852 132.742 102.76 127.544 113.11 125.386C118.863 124.193 129.043 123.171 130.284 115.588C131.073 110.646 126.138 109.709 122.303 108.999C107.611 106.358 92.1008 104.484 77.183 105.023Z" fill="white"/>
<path d="M61.2784 139.302C52.5646 139.302 43.9354 137.825 35.7292 134.872C32.9938 133.878 29.2432 132.202 28.1998 128.794C26.7052 123.881 31.8658 119.564 34.15 117.945C45.3172 109.993 60.2068 105.449 77.1832 104.824C90.0706 104.342 104.847 105.648 122.36 108.8C126.167 109.482 131.355 110.419 130.538 115.616C129.41 122.518 121.232 124.051 115.253 125.187C114.52 125.329 113.843 125.443 113.223 125.585C107.16 126.863 101.294 129.22 95.5978 131.492C91.5934 133.111 87.448 134.758 83.2744 136.036C76.1116 138.194 68.7232 139.302 61.2784 139.302ZM82.4848 105.137C80.68 105.137 78.9034 105.165 77.1832 105.222C60.2914 105.847 45.5146 110.362 34.4038 118.258C32.2042 119.82 27.2128 123.966 28.6228 128.624C29.5816 131.833 33.2194 133.48 35.8702 134.417C51.0982 139.842 67.6234 140.239 83.1052 135.582C87.2788 134.304 91.396 132.656 95.4004 131.038C101.097 128.766 106.991 126.38 113.082 125.102C113.73 124.96 114.407 124.846 115.14 124.704C121.006 123.597 129.015 122.092 130.086 115.474C130.848 110.703 125.885 109.794 122.275 109.141C107.132 106.5 94.075 105.137 82.4848 105.137Z" fill="#0054A6"/>
<path d="M57.669 107.75C57.1614 111.158 56.7384 114.821 58.233 117.917C60.0942 121.779 64.3524 123.739 68.3004 125.329C70.2462 126.124 72.2484 126.92 74.3634 126.976C76.281 127.033 78.1704 126.494 80.0034 125.954L101.379 119.621C97.9104 117.406 94.0752 115.418 88.0968 114.566C83.3874 113.884 80.4264 108.46 79.1292 103.859C77.973 99.7692 78.7062 95.424 79.6932 91.306C81.7236 82.8428 84.7974 74.692 88.8582 67.024L75.5196 66.7116C73.2636 66.6548 71.0076 66.598 68.7234 66.5412C66.5238 66.5128 66.4674 66.3424 66.2136 68.2452C65.0856 76.538 62.0118 84.8308 60.2916 93.0952C59.2764 97.9516 58.4022 102.836 57.669 107.75Z" fill="#0054A6"/>
<path d="M74.9273 125.102C73.3763 123.597 71.2895 122.716 69.2591 121.893C66.9749 120.956 64.5779 119.962 62.9987 118.03C60.6581 115.162 60.7427 110.987 61.0529 107.664C61.7861 100.252 63.5627 92.9816 66.3545 86.0804L66.6083 86.194C63.8447 93.0668 62.0681 100.309 61.3349 107.693C61.0247 110.959 60.9401 115.077 63.1961 117.86C64.7471 119.734 67.0877 120.7 69.3437 121.637C71.4023 122.489 73.5173 123.341 75.0965 124.903L74.9273 125.102Z" fill="white"/>
<path d="M17.1173 91.5616C15.8201 79.5768 9.02386 22.7768 7.78306 11.2748C7.64206 10.0536 7.67026 8.60519 8.93926 8.15079C9.50326 7.95199 11.3645 6.21959 12.0413 6.27639C15.3689 6.58879 21.7985 7.21359 25.0697 7.49759C35.4473 8.43479 102.958 13.2912 111.446 14.0864C113.195 14.2568 115.281 14.5976 116.381 16.0176C117.002 16.8128 117.171 17.7784 117.284 18.6872C118.581 27.8888 128.112 73.9536 129.466 83.496C129.607 84.5468 131.186 87.3016 130.65 88.1536C129.833 89.4316 124.954 92.2716 123.29 92.3C116.156 92.3852 45.0071 95.14 36.3779 95.7364C32.0633 96.0488 27.6641 96.276 23.2367 96.702C19.3451 97.0996 17.4557 94.6572 17.1173 91.5616Z" fill="#0054A6"/>
<path d="M20.1066 88.8352C18.8094 76.8504 12.0414 20.0504 10.8006 8.5484C10.6596 7.3272 10.6878 5.8788 11.9568 5.4244C12.5208 5.2256 13.2258 5.2824 13.9026 5.3392L23.8008 6.248C34.1502 7.1852 105.947 10.5648 114.464 11.36C116.212 11.5304 118.299 11.8712 119.399 13.2912C120.019 14.0864 120.188 15.052 120.301 15.9608C121.598 25.1624 129.607 75.544 130.933 85.1148C131.074 86.1656 131.215 87.3016 130.679 88.1536C129.861 89.4316 127.972 89.5736 126.308 89.5736C119.173 89.6588 48.0246 92.4136 39.3954 93.01C35.0808 93.3224 30.6816 93.5496 26.2542 93.9756C22.3062 94.3732 20.445 91.9308 20.1066 88.8352Z" fill="#00AEEF"/>
<path d="M130.368 81.2808C130.566 82.5872 130.735 83.8652 130.932 85.1148C131.073 86.1656 131.214 87.3016 130.678 88.1536C129.861 89.4316 127.971 89.5736 126.307 89.5736C119.173 89.6588 48.0242 92.4136 39.395 93.01C35.0804 93.3224 30.6812 93.5496 26.2538 93.9756C22.3058 94.3448 20.4164 91.9024 20.078 88.8068L19.7114 85.2852L130.368 81.2808Z" fill="white"/>
<path d="M25.5206 94.2596C22.334 94.2596 20.2472 92.3 19.8806 88.8636L19.4858 85.342C19.4858 85.2852 19.4858 85.2284 19.5422 85.1716C19.5704 85.1148 19.6268 85.0864 19.6832 85.0864L130.34 81.0536C130.453 81.0536 130.537 81.1388 130.566 81.224C130.763 82.5304 130.96 83.8084 131.13 85.058C131.271 85.9952 131.44 87.2732 130.848 88.2388C130.002 89.602 128.056 89.744 126.279 89.7724C119.032 89.8576 48.2216 92.6124 39.395 93.2088C38.2106 93.294 37.0262 93.3792 35.8418 93.436C32.7116 93.6348 29.4686 93.862 26.282 94.146C26.0282 94.2312 25.7744 94.2596 25.5206 94.2596ZM19.9652 85.5124L20.3036 88.8068C20.4728 90.454 21.4034 94.2312 26.2538 93.7768C29.4686 93.4928 32.6834 93.2656 35.8418 93.0668L39.395 92.8112C48.2216 92.1864 119.06 89.4316 126.307 89.3748C127.943 89.3464 129.776 89.2328 130.509 88.04C130.989 87.2732 130.904 86.2792 130.735 85.1432C130.566 83.9504 130.396 82.7292 130.199 81.508L19.9652 85.5124Z" fill="#0054A6"/>
<path d="M25.5211 94.1744C22.3909 94.1744 20.3041 92.2432 19.9657 88.8636C19.3171 82.8428 17.2585 65.2632 15.2563 48.2516C13.2823 31.5524 11.2801 14.2852 10.6597 8.5768L10.9417 8.5484C11.5339 14.2568 13.5643 31.524 15.5101 48.2232C17.5123 65.2348 19.5709 82.8144 20.2195 88.8352C20.3887 90.5108 21.3475 94.3164 26.2261 93.862C29.4409 93.578 32.6839 93.3508 35.8141 93.152L39.3673 92.8964L39.3955 93.1804C38.2111 93.2656 37.0267 93.3508 35.8423 93.4076C32.7121 93.6064 29.4691 93.8336 26.2543 94.1176C26.0287 94.1744 25.7749 94.1744 25.5211 94.1744Z" fill="#0054A6"/>
<path d="M24.3647 77.0208C23.3495 67.5636 17.9069 22.5496 16.9199 13.4332C16.8071 12.4676 16.8635 11.3032 18.0197 10.9624C18.6119 10.8488 19.2041 10.8204 19.7963 10.9056L28.7921 11.6156C38.2109 12.354 103.945 15.1372 111.813 15.7904C113.449 15.9324 115.338 16.188 116.353 17.3524C116.917 18.0056 117.03 18.7724 117.143 19.5108C118.158 26.9232 124.559 67.2796 125.603 74.9192C125.716 75.7712 125.828 76.6516 125.321 77.3332C124.559 78.3556 122.783 78.4408 121.26 78.4408C114.689 78.4408 49.6037 80.088 41.7923 80.514C37.8725 80.7128 33.8963 80.8832 29.9201 81.1672C26.2823 81.366 24.6185 79.4348 24.3647 77.0208Z" fill="white"/>
<path d="M29.2434 81.366C26.3106 81.366 24.4212 79.7756 24.1392 77.0492C23.6316 72.3064 21.9678 58.3904 20.3886 44.9572C18.8094 31.6944 17.202 18.0056 16.7226 13.4616C16.6662 12.8368 16.4688 11.218 17.9634 10.7636C18.5556 10.6216 19.2042 10.5932 19.7964 10.6784L28.764 11.3884C33.558 11.7576 53.1852 12.6948 72.1356 13.5752C90.5502 14.4272 107.95 15.2508 111.785 15.5632C113.618 15.7052 115.451 16.0176 116.466 17.2104C117.086 17.9204 117.199 18.7724 117.312 19.4824C117.82 23.1744 119.709 35.2728 121.514 46.9736C123.347 58.8164 125.264 71.0568 125.772 74.8908C125.885 75.6576 126.026 76.68 125.434 77.4752C124.616 78.5544 122.811 78.668 121.204 78.668C114.548 78.668 49.8012 80.3152 41.7642 80.7412C40.6926 80.798 39.621 80.8548 38.5494 80.9116C35.7294 81.0536 32.7966 81.1956 29.892 81.3944C29.6664 81.3376 29.4408 81.366 29.2434 81.366ZM18.9222 11.0476C18.6402 11.0476 18.3582 11.076 18.1044 11.1612C17.2866 11.4168 17.0046 12.07 17.1738 13.4048C17.6532 17.9488 19.2888 31.6376 20.8398 44.872C22.4472 58.3052 24.0828 72.2212 24.5904 76.964C24.8724 79.662 26.79 81.1104 29.8638 80.8832C32.7684 80.6844 35.7012 80.5424 38.5212 80.4004C39.5928 80.3436 40.6644 80.2868 41.736 80.23C49.773 79.804 114.548 78.1852 121.204 78.1568C122.726 78.1568 124.39 78.0716 125.095 77.1344C125.546 76.538 125.462 75.7712 125.349 74.8624C124.813 71.0284 122.924 58.788 121.091 46.9452C119.286 35.2444 117.397 23.146 116.889 19.454C116.776 18.6588 116.663 17.9772 116.156 17.4092C115.225 16.33 113.42 16.046 111.757 15.9324C107.921 15.62 90.5502 14.7964 72.1356 13.9444C53.1852 13.0924 33.5862 12.1836 28.764 11.786L19.7682 11.076C19.4862 11.076 19.2042 11.0476 18.9222 11.0476Z" fill="#0054A6"/>
<path d="M84.4318 60.289C85.6474 60.2324 86.9005 60.0629 87.9478 59.4414C88.9952 58.8198 89.8181 57.6897 89.7433 56.4655C89.6497 55.034 88.4154 53.9416 87.1623 53.2258C85.9093 52.5101 84.5066 51.9827 83.5902 50.8526C82.6738 49.7225 82.5803 47.7825 83.8333 47.0668C86.4516 48.1969 89.1261 49.3647 91.2394 51.2858C93.3528 53.207 94.849 56.0699 94.4375 58.8952C93.9139 62.4738 90.4539 65.073 86.8818 65.6381C83.3097 66.2031 79.7188 65.1484 76.3524 63.8676C73.1917 62.6622 70.0123 61.2307 67.394 59.0458C65.5986 57.539 63.8405 55.1847 67.3753 55.4672C70.1245 55.6744 72.6306 58.0288 75.1928 58.9328C78.1665 59.9876 81.2898 60.4396 84.4318 60.289Z" fill="#00AEEF"/>
<path d="M68.7403 55.26C69.5258 55.8816 69.8064 56.7668 70.0308 57.5955L74.5568 73.7748C74.9121 75.0556 75.2488 76.4682 74.4446 77.5418C73.6404 78.6154 71.8636 79.0297 70.2178 79.2369C66.9075 79.6325 63.5598 79.5571 60.2682 79.0109C58.9964 78.8037 57.5751 78.427 56.9018 77.5418C56.3407 76.7884 56.509 75.9031 56.6773 75.0932C57.5002 71.3262 58.3418 67.5592 59.5201 63.8676C60.1373 61.9653 60.848 60.1194 61.6709 58.3113C62.101 57.3695 62.3816 56.0322 63.3167 55.2977C64.5884 54.3371 67.319 54.1487 68.7403 55.26Z" fill="white"/>
<path d="M66.0659 79.6513C64.1209 79.6513 62.1759 79.4818 60.2682 79.1804C59.0339 78.9732 57.5377 78.6154 56.8083 77.6548C56.2285 76.8826 56.3594 75.9973 56.5652 75.0932C57.3881 71.3828 58.2297 67.5593 59.4266 63.8488C60.0438 61.9464 60.7545 60.0818 61.5774 58.2736C61.6896 58.0288 61.7831 57.7651 61.8953 57.5014C62.1946 56.6915 62.5312 55.7874 63.2606 55.2223C64.5511 54.2241 67.319 53.9981 68.8339 55.1847C69.6942 55.8627 69.956 56.8233 70.1805 57.5956L74.7064 73.7748C75.0992 75.2063 75.3984 76.5812 74.5755 77.6736C73.6591 78.8791 71.6766 79.2558 70.2553 79.4253C68.8526 79.5571 67.4686 79.6513 66.0659 79.6513ZM66.1407 54.6385C65.0934 54.6385 64.0648 54.921 63.4289 55.4107C62.793 55.9004 62.4564 56.748 62.1572 57.5579C62.0449 57.8404 61.9514 58.1041 61.8392 58.3489C61.0163 60.1571 60.3056 62.0029 59.6884 63.9053C58.4915 67.5969 57.6499 71.4204 56.8457 75.1121C56.6587 75.9596 56.5277 76.7696 57.0327 77.4476C57.706 78.3517 59.2209 78.6907 60.3056 78.8602C63.5785 79.4065 66.9262 79.4818 70.2179 79.0863C71.5831 78.9167 73.5095 78.5589 74.3511 77.4476C75.0992 76.4494 74.8186 75.1497 74.4446 73.7936L69.9186 57.6144C69.6568 56.7103 69.395 55.9192 68.6656 55.3542C68.011 54.8645 67.0759 54.6385 66.1407 54.6385Z" fill="#0054A6"/>
<path d="M80.1303 29.5691C81.7949 27.6103 83.0479 25.3501 84.17 23.0334C84.8807 21.5643 85.6849 19.9256 87.1998 19.3229C88.3407 18.8709 89.6685 19.1534 90.7346 19.7749C91.8006 20.3965 92.6235 21.3571 93.3903 22.3177C96.6819 26.4613 99.188 31.3019 100.104 36.5192C100.441 38.4216 100.516 40.5687 99.375 42.132C98.2716 43.6388 96.3079 44.2604 94.4376 44.2792C92.5674 44.2981 90.7533 43.8084 88.9204 43.5823C86.5265 43.281 84.0952 43.3751 81.7387 43.8837C80.6166 44.1285 79.4758 44.4487 78.3536 44.2039C76.951 43.9025 75.9036 42.7536 75.0059 41.6423C74.1082 40.5311 73.2105 39.288 72.8364 37.8753C72.5746 36.8959 72.5746 35.747 73.0048 34.8241C73.4162 33.9388 73.9212 33.9765 74.7628 33.6751C76.8574 32.9217 78.709 31.2454 80.1303 29.5691Z" fill="white"/>
<path d="M79.2139 44.4487C78.9333 44.4487 78.6341 44.4299 78.3535 44.3546C76.9509 44.0532 75.8661 42.9231 74.931 41.7365C74.0707 40.6817 73.1356 39.4198 72.7241 37.9318C72.4249 36.8206 72.481 35.6716 72.8925 34.7864C73.2478 34.0142 73.6967 33.8823 74.2577 33.7128C74.4074 33.6751 74.557 33.6186 74.7253 33.5621C76.9322 32.7522 78.8398 30.9064 80.0368 29.4749C81.8509 27.3466 83.1413 24.8792 84.0578 22.9769C84.7684 21.4889 85.5913 19.8126 87.1623 19.2099C88.2471 18.7767 89.6123 18.965 90.8093 19.6808C91.8753 20.3211 92.7356 21.3006 93.5024 22.2611C97.0746 26.7627 99.3937 31.6975 100.254 36.5192C100.703 39.0808 100.46 40.9078 99.5059 42.245C98.5147 43.62 96.6631 44.4299 94.4562 44.4487C93.2032 44.4676 91.9314 44.2416 90.7158 44.0344C90.136 43.9214 89.5188 43.8272 88.9204 43.7518C86.5452 43.4505 84.1326 43.5447 81.7948 44.0532L81.3646 44.1474C80.6539 44.3169 79.9432 44.4299 79.2139 44.4487ZM80.2425 29.6633C79.0268 31.0947 77.0818 32.9971 74.8188 33.8258C74.6505 33.8823 74.4822 33.9388 74.3513 33.9765C73.7902 34.146 73.4535 34.2402 73.1543 34.8994C72.7616 35.7281 72.7054 36.8017 73.0047 37.8565C73.3974 39.288 74.3138 40.5311 75.1555 41.567C76.0719 42.6971 77.1005 43.7895 78.4284 44.0909C79.3635 44.2981 80.3547 44.072 81.3085 43.8649L81.7387 43.7707C84.1139 43.2621 86.5639 43.1491 88.9578 43.4693C89.5562 43.5447 90.1734 43.6577 90.7719 43.7518C91.9688 43.959 93.2219 44.1662 94.4562 44.1662C96.5696 44.1474 98.3276 43.394 99.2815 42.0755C100.198 40.8136 100.422 39.0619 99.9921 36.5757C99.1505 31.7916 96.8314 26.8945 93.2967 22.4307C92.4364 21.3382 91.6509 20.5095 90.6784 19.9256C89.5562 19.2475 88.2845 19.078 87.2746 19.4736C85.7971 20.0575 85.0116 21.6773 84.3196 23.1087C83.3845 25.0299 82.0753 27.5161 80.2425 29.6633Z" fill="#0054A6"/>
<path d="M79.7372 43.0361C79.9242 43.5823 80.0926 44.1474 79.9429 44.6936C79.6998 45.6165 78.7086 46.0686 77.8296 46.4076C76.0528 47.0856 74.033 47.7825 72.2937 47.0103C70.5544 46.2381 69.6941 44.3169 68.9834 42.5464C68.4971 41.341 68.0108 40.0225 68.3662 38.7794C68.628 37.8753 69.3013 37.1596 69.9933 36.5004C71.0967 35.4456 72.275 34.4662 73.5093 33.581C74.0517 33.1854 74.3883 32.7522 74.9307 33.0913C75.3983 33.3926 75.8471 34.5227 76.1277 35.0124C77.5864 37.5552 78.8021 40.2486 79.7372 43.0361Z" fill="#00AEEF"/>
<path d="M81.4019 50.3441C81.7572 50.7019 82.15 51.0598 82.3557 51.5307C82.6924 52.3218 82.337 53.32 81.6263 53.8286C80.9156 54.3371 79.9805 54.4124 79.1576 54.1676C78.3347 53.8851 77.6053 53.3953 77.0256 52.7361C75.7725 51.4177 74.9683 49.7225 74.2576 48.0462C74.0519 47.5377 73.8275 46.9726 73.9584 46.4264C74.1454 45.5977 75.0431 45.1456 75.866 44.9573C76.3336 44.8631 77.7736 44.3169 78.1851 44.5241C78.6901 44.7878 78.7462 45.8802 78.9145 46.3699C79.4569 47.8579 80.2985 49.214 81.4019 50.3441Z" fill="white"/>
<path d="M80.0928 54.4501C79.7561 54.4501 79.4382 54.3936 79.1203 54.2994C78.2787 54.0169 77.5119 53.5084 76.9134 52.8492C75.7164 51.5872 74.9309 50.0427 74.1267 48.1027C73.8836 47.5377 73.6779 46.9726 73.8088 46.3888C74.0519 45.3152 75.305 44.9385 75.8287 44.8255C75.9409 44.8066 76.1092 44.7501 76.3149 44.6936C77.1752 44.4488 77.9046 44.2416 78.2413 44.4111C78.6714 44.6183 78.8023 45.2587 78.9145 45.8049C78.9519 45.9932 78.9893 46.1627 79.0454 46.3323C79.5691 47.8014 80.4107 49.1387 81.4955 50.2499L81.6264 50.3818C81.9817 50.6831 82.2623 51.0598 82.468 51.4742C82.8233 52.3029 82.4867 53.3577 81.7012 53.9416C81.2336 54.2806 80.6726 54.4501 80.0928 54.4501ZM77.9233 44.6183C77.5306 44.6183 76.8199 44.8255 76.4084 44.9573C76.2027 45.0138 76.0157 45.0703 75.9035 45.108C75.5294 45.1833 74.3138 45.5224 74.108 46.4641C73.9958 46.9538 74.1828 47.4812 74.4073 47.9897C75.2115 49.8921 75.9783 51.4177 77.1378 52.642C77.8111 53.3389 78.5031 53.8097 79.2138 54.0169C79.9993 54.2806 80.8596 54.1676 81.5516 53.7156C82.2248 53.2259 82.5241 52.2841 82.2248 51.5872C82.0378 51.2105 81.776 50.8715 81.4394 50.589L81.3084 50.4571C80.1863 49.3082 79.326 47.9521 78.7836 46.4453C78.7275 46.2569 78.6714 46.0686 78.634 45.8802C78.5405 45.4093 78.4096 44.8255 78.1103 44.6748C78.0542 44.6371 77.9981 44.6183 77.9233 44.6183Z" fill="#0054A6"/>
<path d="M96.7752 41.2468C96.5882 41.2468 96.4012 41.2091 96.2142 41.1338C95.5409 40.8701 95.0733 40.2674 94.6058 39.627C91.3328 34.9748 88.0786 29.8705 86.5637 24.0316C86.3206 23.0899 86.1523 22.0916 86.5076 21.2252C86.7508 20.6979 87.1996 20.3023 87.7607 20.1328C88.1534 20.001 88.5649 20.0763 88.9015 20.3023C88.9389 20.34 88.9576 20.3965 88.9202 20.4342C88.8828 20.4718 88.8267 20.4907 88.7893 20.453C88.4901 20.2647 88.1347 20.2081 87.7981 20.3212C87.2931 20.4718 86.8817 20.8297 86.676 21.3194C86.3393 22.1293 86.5076 23.0899 86.7321 23.994C88.247 29.814 91.4825 34.8994 94.7554 39.5328C95.2042 40.1732 95.6344 40.7383 96.2703 40.9831C96.6443 41.1338 97.0745 41.0961 97.4298 40.9078C97.6729 40.7948 97.8413 40.5687 97.8974 40.3051C97.9161 40.2486 97.9535 40.2297 98.0096 40.2297C98.0657 40.2486 98.0844 40.2862 98.0844 40.3427C98.0096 40.6629 97.8038 40.9266 97.5046 41.0585C97.3176 41.1903 97.0371 41.2468 96.7752 41.2468Z" fill="#0054A6"/>
<path d="M82.8609 46.5582C81.7762 45.8049 80.5605 45.0703 79.2326 45.108C78.1105 45.1456 77.0445 45.7483 76.2777 46.5959C75.5109 47.4435 75.062 48.5171 74.7628 49.6095C74.5384 50.4194 74.4261 51.3612 74.875 52.0581C75.3239 52.755 76.5582 52.9433 76.951 52.1899C76.5769 52.755 76.2777 53.4142 76.3151 54.1111C76.3525 54.808 76.7265 55.5049 77.3624 55.7309C77.9983 55.9569 78.709 55.7497 79.27 55.3919C79.8311 55.034 80.3174 54.5443 80.9158 54.2241C81.7387 53.7532 82.6926 53.6025 83.6277 53.433C84.5628 53.2635 85.5166 53.0563 86.2834 52.5101C89.388 50.3252 84.5441 47.7449 82.8609 46.5582Z" fill="white"/>
<path d="M77.9234 55.9946C77.7177 55.9946 77.512 55.9569 77.3249 55.8816C76.6704 55.6367 76.2215 54.921 76.1841 54.1299C76.1654 53.659 76.2776 53.1882 76.4833 52.7738C76.3711 52.8115 76.2776 52.8303 76.1654 52.8303C75.623 52.8491 75.0994 52.6043 74.7814 52.1522C74.2578 51.3423 74.4635 50.2876 74.6505 49.5907C75.0058 48.2911 75.5108 47.2928 76.2028 46.5206C77.0444 45.5788 78.1478 45.0138 79.2513 44.9761H79.3448C80.654 44.9761 81.8509 45.6918 82.9543 46.4452C83.1601 46.5771 83.4032 46.7466 83.665 46.9161C85.1612 47.8955 87.4242 49.3646 87.4616 50.9091C87.4803 51.5495 87.1063 52.1334 86.3956 52.6419C85.6101 53.207 84.6188 53.4142 83.6837 53.5837L83.5341 53.6025C82.6738 53.7532 81.7761 53.9039 81.0093 54.3559C80.7101 54.5443 80.4108 54.7515 80.1303 54.9775C79.8872 55.1658 79.6253 55.3542 79.3635 55.5237C78.9333 55.8062 78.4284 55.9757 77.9234 55.9946ZM76.9883 52.4347C76.6517 52.9245 76.4646 53.5083 76.4646 54.1111C76.4833 54.7891 76.8948 55.4107 77.4185 55.6179C78.0917 55.8815 78.8211 55.5237 79.1952 55.2788C79.457 55.1093 79.7001 54.9398 79.9246 54.7515C80.2051 54.5254 80.5043 54.2994 80.8223 54.1111C81.6265 53.659 82.5429 53.4895 83.4219 53.3388L83.5715 53.32C84.5253 53.1505 85.4417 52.9621 86.1711 52.4159C86.807 51.9639 87.1437 51.4553 87.125 50.9091C87.0876 49.5153 84.8994 48.0839 83.4593 47.1421C83.1975 46.9726 82.9356 46.8031 82.7299 46.6524C81.6452 45.899 80.4482 45.2021 79.1952 45.221C78.1665 45.2586 77.1379 45.7672 76.3524 46.6524C75.6978 47.4058 75.2116 48.3664 74.8749 49.6095C74.5944 50.6643 74.6131 51.3988 74.9684 51.945C75.2303 52.3217 75.6604 52.5289 76.1093 52.5101C76.3337 52.5101 76.5581 52.4159 76.7265 52.2276L76.82 52.0769C76.8574 52.0204 76.9509 52.0015 77.007 52.0392C77.0631 52.0769 77.1005 52.1522 77.0631 52.2276C77.0631 52.3406 77.0257 52.3971 76.9883 52.4347Z" fill="#0054A6"/>
<path d="M76.7265 52.7173C76.7078 52.7173 76.7078 52.7173 76.6891 52.7173C76.6517 52.6984 76.6143 52.6419 76.6517 52.5854C77.6242 50.5136 79.7002 49.1763 81.9819 49.1575C82.038 49.1575 82.0754 49.1951 82.0754 49.2516C82.0754 49.3082 82.038 49.3458 81.9819 49.3458C79.775 49.3835 77.7926 50.6831 76.82 52.6796C76.7826 52.6796 76.7639 52.6984 76.7265 52.7173Z" fill="#0054A6"/>
<path d="M62.9801 54.3748C64.4015 54.4124 65.879 55.5237 65.879 56.974C65.879 58.575 64.308 59.6297 62.924 60.4019C61.0351 61.4379 59.1087 62.4738 57.5565 63.9806C56.0042 65.4874 54.8259 67.5216 54.8633 69.6876C54.9194 73.0025 57.837 75.7336 61.0164 76.6C64.1958 77.4664 67.5809 76.8637 70.7977 76.1103C70.8351 78.0503 70.8538 80.0092 70.8912 81.9492C67.5435 82.646 64.0836 83.1169 60.7359 82.4765C57.3881 81.8361 54.1152 79.9715 52.5068 76.9391C51.0667 74.2268 51.1229 70.9119 52.0019 67.9736C53.2736 63.7169 57.4442 54.2241 62.9801 54.3748Z" fill="#00AEEF"/>
<path d="M71.5085 71.4769C73.678 69.6311 76.6891 69.1037 79.3448 70.1397C80.5791 70.6294 81.72 71.4958 82.2811 72.72C82.8421 73.9443 82.7486 75.4888 81.8509 76.487C80.9532 77.4853 79.2139 77.6171 78.2975 76.6377C78.5967 77.523 78.0543 78.5212 77.2875 79.0486C76.5207 79.576 75.5669 79.7455 74.6505 79.8962C72.2753 80.2917 69.2829 80.8944 68.8341 77.9562C68.4974 75.696 69.8814 72.9084 71.5085 71.4769Z" fill="white"/>
<path d="M71.8263 80.367C71.0221 80.367 70.2927 80.2352 69.713 79.8208C69.1332 79.4064 68.834 78.8037 68.703 77.975C68.329 75.5641 69.8252 72.7765 71.4149 71.3828C73.6218 69.4993 76.6889 68.9719 79.4008 70.0266C80.8034 70.5917 81.8695 71.5334 82.4118 72.6635C83.0477 74.0008 82.8607 75.6018 81.963 76.5812C81.4393 77.1274 80.7099 77.4476 79.9431 77.4288C79.4382 77.4288 78.9519 77.2969 78.5218 76.9956C78.5966 77.8431 78.0355 78.6907 77.3809 79.1428C76.5767 79.7078 75.5668 79.8585 74.6878 80.0092L74.4821 80.0468C73.6031 80.2352 72.7053 80.3294 71.8263 80.367ZM71.6019 71.5899C70.0496 72.9649 68.6282 75.696 68.9836 77.9373C69.0958 78.6907 69.395 79.2369 69.8813 79.5948C70.966 80.3859 72.7989 80.0657 74.426 79.802L74.6317 79.7643C75.492 79.6136 76.4645 79.463 77.2126 78.9356C77.9046 78.4647 78.447 77.5418 78.1664 76.6754C78.1477 76.6189 78.1664 76.5435 78.2225 76.5059C78.2786 76.4682 78.3534 76.487 78.3908 76.5247C78.7836 76.9391 79.3447 77.1651 79.9244 77.1463C80.6164 77.1463 81.271 76.8637 81.7386 76.374C82.5615 75.4888 82.7298 74.0008 82.15 72.7765C81.6451 71.7029 80.6164 70.8177 79.2886 70.2715C76.6889 69.2732 73.734 69.7818 71.6019 71.5899Z" fill="#0054A6"/>
<path d="M78.3347 76.3175C78.2973 76.3175 78.2599 76.2987 78.2412 76.2422C77.5866 74.0573 75.2862 72.8142 73.1168 73.4734C72.7427 73.5864 72.3687 73.756 72.0507 73.982C72.0133 74.0196 71.9572 74.0008 71.9198 73.9631C71.8824 73.9255 71.9011 73.869 71.9385 73.8313C73.921 72.5129 76.5954 73.0591 77.9045 75.0556C78.129 75.4134 78.316 75.7901 78.4282 76.1857C78.4469 76.2422 78.4095 76.2798 78.3721 76.2987C78.3534 76.3175 78.3534 76.3175 78.3347 76.3175Z" fill="#0054A6"/>
<path d="M65.3928 39.853C66.7393 43.2433 67.5435 46.8219 67.263 50.4382C67.263 50.9468 67.1134 51.4365 66.8703 51.8697C66.5523 52.3783 66.01 52.6984 65.4115 52.7361C64.7382 52.7738 64.1958 52.3971 63.7283 52.0581C58.0802 47.9897 52.3386 43.8649 48.4111 38.6664C47.85 37.9318 47.3076 37.0654 47.6256 36.199C47.85 35.5963 48.4298 35.1254 49.0282 34.6922C51.4595 32.9406 54.0966 31.5279 56.9019 30.492C57.7996 30.153 59.4454 29.5503 60.3057 30.0777C61.1661 30.605 61.6523 32.2625 62.0825 33.0347C63.3355 35.2573 64.439 37.5175 65.3928 39.853Z" fill="white"/>
<path d="M65.3181 52.8868C64.6635 52.8868 64.1211 52.5478 63.6349 52.1899C58.0429 48.1781 52.2639 44.0155 48.2803 38.7794C47.6631 37.9695 47.1394 37.1031 47.4761 36.1802C47.7192 35.5398 48.3551 35.0313 48.9348 34.5981C51.3661 32.8464 54.0219 31.4149 56.8272 30.3979C57.7249 30.0588 59.4081 29.4373 60.362 29.9835C61.0165 30.379 61.4467 31.3773 61.802 32.1872C61.933 32.4885 62.0639 32.7899 62.1761 32.9971C63.186 34.8241 64.4952 37.235 65.5051 39.7965C67.0387 43.6577 67.6372 47.1421 67.3753 50.4571C67.3566 50.9845 67.2257 51.5119 66.9639 51.9639C66.6085 52.5101 66.0288 52.8491 65.3929 52.8868H65.3181ZM59.4268 30.0588C58.5852 30.0588 57.5379 30.4544 56.9394 30.6615C54.1528 31.6786 51.5158 33.0913 49.1032 34.8241C48.5608 35.2196 47.9623 35.6905 47.7566 36.2744C47.4761 37.0654 47.9436 37.8565 48.5234 38.6099C52.4696 43.8084 58.2486 47.9709 63.8219 51.9639C64.2895 52.3029 64.8131 52.642 65.4116 52.6043C65.954 52.5666 66.4589 52.2653 66.7582 51.8132C67.0013 51.3988 67.1322 50.928 67.1322 50.4383C67.394 47.1798 66.7956 43.733 65.2807 39.9095C64.2708 37.3668 62.9803 34.9748 61.9704 33.1666C61.8394 32.9406 61.7085 32.6392 61.5776 32.3379C61.241 31.5656 60.8295 30.605 60.2498 30.266C59.9879 30.1153 59.7074 30.04 59.4268 30.0588Z" fill="#0054A6"/>
<path d="M62.0076 33.0724C63.6534 32.7711 65.2057 31.5845 65.6359 29.9647C66.066 28.3448 65.2057 26.3672 63.616 25.8586C64.8691 24.6155 65.5985 22.7885 65.374 21.018C65.1496 19.2476 63.8404 17.6278 62.1198 17.1945C60.3992 16.7613 58.3981 17.6843 57.7622 19.3417C56.6026 17.1945 53.7599 16.1963 51.5343 17.138C49.3087 18.0798 47.9996 20.792 48.6728 23.1276C45.8488 23.4101 43.7915 25.934 44.0721 28.7781C44.1095 29.1736 44.1843 29.5503 44.3152 29.927C42.2954 29.6068 40.1259 30.9629 39.5274 32.9406C38.9289 34.9183 39.9576 37.2538 41.8091 38.139C40.0885 38.6287 39.3217 40.7948 39.677 42.5653C40.2942 45.6919 43.3053 47.7072 46.3912 47.0856C46.7091 47.0291 47.0083 46.935 47.3076 46.822C47.6442 48.3664 48.4297 49.9109 49.7763 50.7396C51.1229 51.5684 53.0866 51.493 54.0965 50.2688C54.9381 50.3441 55.8171 50.4194 56.6026 50.0804C57.3881 49.7414 58.024 48.8938 57.7996 48.0651C57.5752 47.2363 56.6587 46.8408 55.9668 46.3322C55.2 45.7672 54.6389 44.9761 54.0778 44.2039L50.7488 39.5517C51.8709 38.5346 52.1889 36.9148 51.5343 35.5398C51.7961 36.0483 53.9469 35.2573 54.2835 35.0878C55.2561 34.5981 55.6862 33.7882 56.4156 33.0536C57.0515 32.4132 57.6126 32.4132 58.4542 32.6392C59.6698 32.9783 60.7358 33.2984 62.0076 33.0724Z" fill="#0054A6"/>
<path d="M54.8819 43.4317C54.3395 43.2998 53.7785 43.2621 53.2361 43.281C52.675 43.2998 52.1514 43.5447 51.7586 43.9402C51.1414 44.6183 51.235 45.786 51.8521 46.4641C52.4693 47.1421 53.4979 47.3493 54.3769 47.0856C55.256 46.8031 56.004 46.2004 56.4716 45.3905" fill="white"/>
<path d="M53.6475 47.3305C52.9369 47.3493 52.2449 47.0668 51.7586 46.5582C51.0666 45.8048 51.0292 44.5617 51.6464 43.846C52.0578 43.4128 52.6189 43.1679 53.2174 43.1303C53.7785 43.1114 54.3395 43.1491 54.9006 43.281C54.9754 43.2998 55.0315 43.3751 55.0128 43.4505C54.9941 43.5258 54.9193 43.5823 54.8445 43.5635C54.3208 43.4505 53.7785 43.394 53.2361 43.4128C52.7124 43.4316 52.2075 43.6577 51.8521 44.0344C51.3098 44.6371 51.3472 45.7107 51.9456 46.3699C52.5067 46.9726 53.4605 47.2175 54.3395 46.9538C55.1811 46.6713 55.9105 46.1062 56.3594 45.334C56.3968 45.2775 56.4903 45.2586 56.5464 45.2963C56.6025 45.334 56.6212 45.4281 56.5838 45.4847C56.0975 46.3134 55.312 46.9349 54.4143 47.2363C54.1525 47.2928 53.8907 47.3305 53.6475 47.3305Z" fill="#0054A6"/>
<path d="M62.9986 39.288C62.9799 39.4198 62.9238 39.5328 62.8303 39.6458C62.7368 39.74 62.6059 39.7965 62.475 39.7588C62.3067 39.7023 62.2318 39.4952 62.1944 39.3256C62.1196 38.9489 62.1196 38.5534 62.1757 38.1767C62.1944 38.0072 62.2692 37.8188 62.4376 37.7812C62.5311 37.7623 62.6433 37.7812 62.7181 37.8565C63.0734 38.1202 63.0922 38.8736 62.9986 39.288Z" fill="#0054A6"/>
<path d="M58.8657 40.6064C58.847 40.7006 58.8095 40.8136 58.7534 40.9077C58.6973 41.0019 58.6038 41.0584 58.4916 41.0584C58.3233 41.0584 58.2111 40.9077 58.1363 40.7759C57.9305 40.3992 57.5752 39.0808 58.2859 38.9866C59.034 38.8736 58.9592 40.192 58.8657 40.6064Z" fill="#0054A6"/>
<path d="M62.6059 41.2091C62.3441 41.2091 62.0823 41.1715 61.8204 41.0773C61.2406 40.8513 60.7544 40.2674 60.5674 39.514C60.3803 38.8171 60.1746 37.5928 60.8292 37.1408C61.596 36.6134 62.7368 36.4062 63.6345 36.2367L63.7468 36.2179C64.1956 36.1237 64.6819 36.086 65.112 36.2744C65.6918 36.5381 65.991 37.1408 66.2155 37.7623C66.3464 38.1014 66.4399 38.4592 66.496 38.8171C66.5521 39.2126 66.4586 39.6082 66.2342 39.9472C65.9723 40.2674 65.5983 40.5122 65.2055 40.6441C64.6071 40.8701 63.9712 41.0396 63.3353 41.1526C63.0922 41.1903 62.849 41.2091 62.6059 41.2091ZM63.8403 36.5946L63.7281 36.6134C62.849 36.7829 61.7643 36.9901 61.0536 37.461C60.6609 37.7247 60.7357 38.6476 60.9414 39.4198C61.1097 40.0414 61.5025 40.5311 61.97 40.7194C62.3815 40.8889 62.8678 40.8324 63.2792 40.7571C63.8964 40.6629 64.4949 40.4934 65.0746 40.2674C65.4113 40.1732 65.7105 39.966 65.9349 39.7023C66.1033 39.4386 66.1594 39.1373 66.122 38.8359C66.0846 38.5157 65.991 38.1955 65.8601 37.8942C65.6731 37.3856 65.43 36.8206 64.9624 36.6134C64.6258 36.4627 64.2143 36.5192 63.8403 36.5946Z" fill="#0054A6"/>
<path d="M57.5004 42.6406C57.0516 42.6594 56.6214 42.5276 56.2474 42.3016C55.7424 41.9814 55.4245 41.454 55.1626 40.9266C54.9382 40.4934 54.7325 39.9849 54.7512 39.4763C54.7886 38.9301 55.0878 38.7418 55.4245 38.5157C56.2848 37.9695 57.3134 37.8377 58.2298 37.7058C58.5852 37.6493 59.0153 37.5928 59.4268 37.7623C60.0065 37.9884 60.3058 38.5911 60.5489 39.175C60.6985 39.514 60.8294 39.8718 60.9043 40.2297C60.9791 40.6252 60.9043 41.0396 60.6985 41.3975C60.3993 41.8307 59.8943 42.019 59.5016 42.1697C58.9966 42.3769 58.4729 42.5276 57.9306 42.6218C57.781 42.6406 57.65 42.6406 57.5004 42.6406ZM58.2859 38.0825C57.4069 38.1955 56.4157 38.3462 55.6302 38.8359C55.2936 39.0431 55.1439 39.1561 55.1439 39.4951C55.1252 39.9284 55.3123 40.3616 55.518 40.7571C55.7985 41.3033 56.0603 41.7365 56.4718 42.0002C56.902 42.2451 57.4069 42.3392 57.8932 42.2639C58.3981 42.1697 58.9031 42.0379 59.3894 41.8307C59.8195 41.6612 60.1936 41.5105 60.3993 41.2091C60.5676 40.9454 60.605 40.6252 60.5489 40.3051C60.4741 39.966 60.3806 39.6458 60.231 39.3445C60.0065 38.8359 59.7634 38.3085 59.3146 38.139C58.9779 37.9884 58.6226 38.026 58.2859 38.0825Z" fill="#0054A6"/>
<path d="M53.5914 43.4693C53.554 43.4693 53.5166 43.4505 53.4792 43.4317C53.4044 43.3752 53.3857 43.2622 53.4418 43.168C54.059 42.3204 54.6013 41.4163 55.0502 40.4746C55.0876 40.3804 55.1998 40.3427 55.2933 40.3804C55.3868 40.4181 55.4242 40.5311 55.3868 40.6253C54.9193 41.5858 54.3582 42.5088 53.741 43.3752C53.7036 43.4505 53.6475 43.4693 53.5914 43.4693Z" fill="#0054A6"/>
<path d="M60.0625 38.7606C59.9877 38.7606 59.9316 38.7229 59.8942 38.6476C59.8568 38.5534 59.8942 38.4404 59.9877 38.4027C60.2122 38.3085 60.4553 38.252 60.7171 38.2897C60.8293 38.3085 60.8854 38.4027 60.8854 38.4969C60.8667 38.6099 60.7732 38.6664 60.6797 38.6664C60.4927 38.6476 60.3244 38.6664 60.156 38.7417C60.1186 38.7417 60.0999 38.7606 60.0625 38.7606Z" fill="#0054A6"/>
<path d="M63.2231 48.1216C63.4662 48.1592 63.728 48.1781 63.9712 48.2346C64.2143 48.2911 64.4387 48.4229 64.5884 48.6489C64.7193 48.9315 64.6819 49.2705 64.4574 49.4965C64.2517 49.7225 63.9525 49.8356 63.6345 49.8356C63.3353 49.8356 63.0361 49.7602 62.7555 49.6284C62.1571 49.3835 61.6521 48.9315 61.3341 48.3476C61.1845 48.0274 61.1284 46.822 61.7456 47.2363C61.97 47.387 62.1383 47.6507 62.3628 47.8014C62.6433 47.9332 62.9238 48.0462 63.2231 48.1216Z" fill="#0054A6"/>
<path d="M103.152 17.3264L106.369 20.3212C103.769 20.4153 101.207 21.0746 98.8879 22.2988C99.8792 22.8639 100.814 23.5231 101.656 24.3142C100.104 25.0299 98.6635 25.9528 97.373 27.0641C99.3742 26.1412 101.525 25.5761 103.713 25.3501C103.208 24.446 102.554 23.6549 101.749 23.0146C104.162 22.506 106.612 22.3742 109.062 22.619C108.763 21.3759 108.146 20.2081 107.267 19.2664C108.725 19.2664 110.128 19.5678 111.568 19.6808C111.475 18.9839 111.306 17.9291 110.951 17.2887C110.577 16.5918 109.698 16.6295 109.006 16.573C107.996 16.5165 106.986 16.5353 105.976 16.686C105.471 16.7425 104.985 16.8367 104.48 16.9497C104.368 16.9874 103.208 17.4017 103.152 17.3264Z" fill="#00AEEF"/>
<path d="M94.736 28.3072C94.3433 26.9323 93.8383 25.5761 93.2398 24.2765C92.6413 26.1223 91.7062 27.8363 90.5093 29.362C91.4818 26.2919 91.9307 23.0711 91.8371 19.8315C92.7349 20.8297 93.5204 21.9221 94.1562 23.1088L95.8768 17.6278C95.7272 18.3058 95.9704 19.3418 95.9704 20.0575C95.9517 20.9804 95.8956 21.9033 95.802 22.8451C95.615 24.6909 95.2597 26.5179 94.736 28.3072Z" fill="#00AEEF"/>
<path d="M106.219 29.7386L103.863 30.9064C105.714 31.0948 107.529 31.6033 109.212 32.4132C106.537 31.9612 103.826 31.8858 101.132 32.206L103.564 30.1718C102.404 29.8893 101.207 29.701 100.01 29.6068C100.459 29.5315 100.871 29.3431 101.319 29.2866C101.88 29.2301 102.442 29.2301 102.984 29.2489C103.545 29.2678 104.106 29.3243 104.648 29.3996C104.91 29.4373 105.172 29.4938 105.434 29.5503C105.584 29.588 106.107 29.7951 106.219 29.7386Z" fill="#00AEEF"/>
</svg>
