<svg width="116" height="116" viewBox="0 0 116 116" fill="none" xmlns="http://www.w3.org/2000/svg">
<path d="M64.2407 40.5072C67.8367 40.5768 71.6183 40.6928 74.6343 42.6184C77.3255 44.3352 79.1815 47.3512 82.2207 48.3256C84.3783 49.0216 87.0231 48.6504 88.6007 50.2744C90.1783 51.8984 89.7143 54.5896 89.0647 56.7704C85.6079 68.6256 80.6431 79.9704 75.7015 91.292C74.7039 93.5656 73.5439 96.0016 71.3167 97.0456C68.5095 98.3448 65.2847 96.9064 62.4079 95.816C53.7775 92.568 44.2887 92.336 35.4263 89.7608C30.7863 88.4152 26.1231 86.2344 23.2927 82.3368C20.8103 78.9032 20.0215 74.5648 19.5807 70.3656C19.0471 65.076 18.9543 59.74 18.8847 54.404C18.8383 51.6664 18.8383 48.836 20.0215 46.3536C23.5247 39.092 31.9463 39.9736 38.5815 40.0896L64.2407 40.5072Z" fill="#004812"/>
<path d="M27.3069 45.2864C27.0981 45.2864 26.9125 45.1472 26.8661 44.9152C26.7965 44.6136 26.7269 44.2888 26.6805 43.964C26.6341 43.7088 26.8197 43.4768 27.0749 43.4304C27.3301 43.384 27.5621 43.5696 27.6085 43.8248C27.6549 44.1264 27.7245 44.428 27.7941 44.7064C27.8405 44.9616 27.7013 45.2168 27.4461 45.2632C27.3997 45.2864 27.3533 45.3096 27.3069 45.2864Z" fill="#004812"/>
<path d="M26.9586 42.5024C26.7034 42.5024 26.4946 42.2936 26.4946 42.0616C26.4946 41.8992 26.4946 41.7368 26.4946 41.5744C26.4946 41.0872 26.5178 40.6 26.5642 40.1128C26.5874 39.8576 26.8194 39.672 27.0746 39.6952C27.3298 39.7184 27.5154 39.9504 27.4922 40.2056C27.4458 40.6696 27.4226 41.1336 27.4226 41.5744C27.4226 41.7368 27.4226 41.876 27.4226 42.0384C27.4226 42.2936 27.237 42.5024 26.9586 42.5024C26.9818 42.5024 26.9818 42.5024 26.9586 42.5024ZM27.3066 38.744C27.2834 38.744 27.237 38.744 27.2138 38.7208C26.9586 38.6744 26.7962 38.4192 26.8658 38.164C27.005 37.5376 27.1906 36.9112 27.3994 36.2848C27.469 36.0296 27.7242 35.8904 27.9794 35.96C28.2346 36.0296 28.3738 36.2848 28.3042 36.54C28.3042 36.5632 28.281 36.5864 28.281 36.6096C28.0722 37.1896 27.9098 37.7696 27.7938 38.3728C27.701 38.5816 27.5154 38.744 27.3066 38.744ZM67.5586 38.0248C67.3034 38.0248 67.0946 37.8392 67.0714 37.584C67.0482 37.3288 67.257 37.12 67.5122 37.0968C68.1154 37.0504 68.7186 36.9808 69.3218 36.8648C69.577 36.7952 69.8322 36.9576 69.8786 37.1896C69.9482 37.4448 69.7858 37.7 69.5538 37.7464C69.5306 37.7464 69.5074 37.7464 69.5074 37.7464C68.8578 37.8624 68.2314 37.9552 67.5818 38.0016L67.5586 38.0248ZM65.6562 38.0248H65.633C64.9834 37.9784 64.3338 37.8856 63.6842 37.7464C63.429 37.7 63.2666 37.4448 63.3362 37.1896C63.3826 36.9344 63.6378 36.772 63.893 36.8416C64.4962 36.9808 65.0994 37.0504 65.7026 37.0968C65.9578 37.0968 66.1666 37.3288 66.1434 37.584C66.1202 37.8392 65.9114 38.048 65.6562 38.0248ZM71.2706 37.3288C71.0154 37.3288 70.8066 37.12 70.8066 36.8648C70.8066 36.656 70.9458 36.4936 71.1314 36.424C71.7114 36.2384 72.2914 36.0064 72.8482 35.7512C73.0802 35.6352 73.3586 35.7512 73.4514 35.9832C73.5442 36.2152 73.4514 36.4936 73.2194 36.5864C72.6162 36.8416 72.013 37.0736 71.4098 37.2824C71.3634 37.3056 71.317 37.3056 71.2706 37.3288ZM61.9906 37.2128C61.9442 37.2128 61.8746 37.2128 61.8282 37.1896C61.225 36.9576 60.6218 36.6792 60.065 36.3776C59.833 36.2616 59.7634 35.9832 59.8794 35.7512C59.9954 35.5192 60.2738 35.4496 60.5058 35.5656C61.0394 35.8672 61.5962 36.1224 62.1762 36.3312C62.4082 36.424 62.5242 36.7024 62.4314 36.9344C62.3386 37.0968 62.1762 37.2128 61.9906 37.2128ZM74.7042 35.7744C74.449 35.7744 74.2402 35.5656 74.2402 35.3104C74.2402 35.148 74.333 35.0088 74.4722 34.916C75.0058 34.5912 75.5162 34.2664 76.0034 33.8952C76.2122 33.7328 76.4906 33.7792 76.653 33.988C76.8154 34.1968 76.769 34.4752 76.5602 34.6376C76.0266 35.032 75.493 35.38 74.9362 35.7048C74.8666 35.7512 74.797 35.7744 74.7042 35.7744ZM58.6498 35.4496C58.557 35.4496 58.4642 35.4264 58.3946 35.38C57.9074 35.0552 57.397 34.684 56.8402 34.2664C56.6314 34.104 56.6082 33.8256 56.7474 33.6168C56.8866 33.408 57.1882 33.3848 57.397 33.524C57.9306 33.9416 58.441 34.2896 58.905 34.6144C59.1138 34.7536 59.1834 35.0552 59.021 35.264C58.9514 35.3568 58.789 35.4496 58.6498 35.4496ZM28.5362 35.1712C28.281 35.1712 28.0722 34.9624 28.0722 34.7072C28.0722 34.6376 28.0954 34.568 28.1186 34.4984C28.397 33.9184 28.7218 33.3384 29.0698 32.8048C29.209 32.596 29.4874 32.5264 29.7194 32.6656C29.9282 32.8048 29.9978 33.0832 29.8586 33.3152C29.5338 33.8256 29.2322 34.3592 28.9538 34.916C28.8842 35.0784 28.7218 35.1712 28.5362 35.1712ZM77.7434 33.524C77.4882 33.524 77.2794 33.3152 77.2794 33.06C77.2794 32.9208 77.3258 32.8048 77.4418 32.712C77.9058 32.3176 78.3466 31.8768 78.7642 31.4128C78.9498 31.2272 79.2282 31.2272 79.4138 31.3896C79.5994 31.5752 79.5994 31.8536 79.437 32.0392C78.9962 32.5032 78.509 32.9672 78.045 33.3848C77.9754 33.4776 77.8594 33.524 77.7434 33.524ZM55.6106 33.1528C55.4946 33.1528 55.4018 33.1064 55.309 33.06L54.497 32.4104C54.2882 32.2248 54.0562 32.0392 53.8242 31.8768C53.6154 31.7144 53.5922 31.4128 53.7546 31.2272C53.917 31.0416 54.2186 30.9952 54.4042 31.1576L55.077 31.6912C55.3322 31.9 55.6106 32.132 55.8658 32.3408C56.0746 32.5032 56.0978 32.8048 55.9354 32.9904C55.889 33.1064 55.7498 33.1528 55.6106 33.1528ZM30.5778 31.9928C30.4618 31.9928 30.369 31.9464 30.2762 31.8768C30.0906 31.7144 30.0442 31.4128 30.2298 31.2272C30.6474 30.7168 31.0882 30.2528 31.5754 29.812C31.761 29.6264 32.0626 29.6496 32.225 29.8352C32.4106 30.0208 32.3874 30.3224 32.2018 30.4848C32.2018 30.4848 32.2018 30.4848 32.1786 30.508C31.7378 30.9256 31.297 31.3664 30.9026 31.8304C30.8562 31.9464 30.7402 32.016 30.5778 31.9928ZM80.365 30.7864C80.1098 30.7864 79.901 30.5776 79.901 30.3224C79.901 30.2064 79.9474 30.1136 80.017 30.0208C80.3882 29.5568 80.7826 29.0464 81.1538 28.536C81.293 28.3272 81.5946 28.2808 81.8034 28.42C82.0122 28.5592 82.0586 28.8608 81.9194 29.0696C81.5482 29.6032 81.1538 30.1136 80.7594 30.6008C80.6434 30.74 80.5042 30.7864 80.365 30.7864ZM52.6642 30.7864C52.5714 30.7864 52.4554 30.74 52.3858 30.6936C51.829 30.276 51.3418 29.9048 50.8778 29.6032C50.669 29.464 50.5994 29.1624 50.7618 28.9536C50.9242 28.7448 51.2026 28.6752 51.4114 28.8376C51.8986 29.1624 52.409 29.5336 52.9658 29.9744C53.1746 30.1368 53.1978 30.4152 53.0586 30.624C52.9658 30.7168 52.8266 30.7864 52.6642 30.7864ZM33.385 29.464C33.1298 29.464 32.921 29.2552 32.921 29C32.921 28.8376 32.9906 28.6984 33.1298 28.6288C33.6634 28.2576 34.2202 27.9096 34.8234 27.608C35.0554 27.4688 35.3338 27.5616 35.4498 27.7704C35.5658 27.9792 35.4962 28.2808 35.2874 28.3968C35.2642 28.3968 35.2642 28.42 35.241 28.42C34.7074 28.6984 34.1738 29.0232 33.6634 29.3712C33.5706 29.4408 33.4778 29.464 33.385 29.464ZM49.5322 28.6752C49.4626 28.6752 49.3698 28.652 49.3002 28.6288C48.9522 28.4432 48.6042 28.2576 48.2562 28.0952C48.0474 28.0024 47.8618 27.9096 47.653 27.84C47.421 27.7472 47.305 27.4688 47.3978 27.2368C47.4906 27.0048 47.769 26.8888 48.001 26.9816C48.2098 27.0744 48.4418 27.1672 48.6506 27.26C49.0218 27.4224 49.393 27.6312 49.7642 27.8168C49.9962 27.9328 50.0658 28.2344 49.9498 28.4432C49.857 28.5824 49.6946 28.6752 49.5322 28.6752ZM36.7258 27.724C36.4706 27.724 36.2618 27.5152 36.2618 27.26C36.2618 27.0744 36.3778 26.8888 36.5634 26.8192C37.1666 26.5872 37.793 26.4016 38.4194 26.2624C38.6746 26.1928 38.9298 26.332 38.9994 26.5872C39.069 26.8424 38.9298 27.0976 38.6746 27.1672C38.6514 27.1672 38.6514 27.1672 38.6282 27.1672C38.025 27.3064 37.445 27.492 36.865 27.7008C36.8418 27.724 36.7954 27.724 36.7258 27.724ZM46.0522 27.26C46.0058 27.26 45.9826 27.26 45.9362 27.2368C45.333 27.0744 44.753 26.9584 44.1266 26.8888C43.8714 26.8656 43.6858 26.6104 43.7322 26.3552C43.7554 26.1 44.0106 25.9144 44.2658 25.9608C44.9154 26.0536 45.5418 26.1696 46.1682 26.332C46.4234 26.4016 46.5626 26.6568 46.493 26.912C46.4234 27.1208 46.261 27.26 46.0522 27.26ZM40.4146 26.8656C40.1594 26.8888 39.9506 26.68 39.9274 26.4248C39.9042 26.1696 40.113 25.9608 40.3682 25.9376C40.9714 25.868 41.5746 25.8448 42.201 25.8448H42.317C42.5722 25.8448 42.781 26.0536 42.781 26.3088C42.781 26.564 42.5722 26.7728 42.317 26.7728H42.201C41.621 26.7728 41.0642 26.796 40.4842 26.8656H40.4146Z" fill="#004812"/>
<path d="M82.569 27.7008C82.3138 27.7008 82.105 27.492 82.105 27.2368C82.105 27.144 82.1282 27.0744 82.1746 26.9816C82.337 26.7264 82.4994 26.4712 82.6386 26.1928C82.7778 25.984 83.0562 25.9144 83.2882 26.0536C83.497 26.1928 83.5666 26.448 83.4506 26.6568C83.2882 26.9352 83.1258 27.1904 82.9634 27.4688C82.8706 27.608 82.7314 27.7008 82.569 27.7008Z" fill="#004812"/>
<path d="M80.8983 17.5856C79.8543 16.008 79.6223 13.9664 80.3183 12.412C80.7359 11.484 81.7334 10.672 82.7774 11.0664C83.775 11.4376 84.1927 12.6672 84.3783 13.688C84.5871 14.848 84.7263 16.0312 84.7959 17.2376C84.8422 18.2352 84.9814 19.4648 85.9094 19.952C86.6982 20.3696 87.5334 19.952 88.2294 19.5344L91.1758 17.7712C91.663 17.4232 92.2198 17.1912 92.7998 17.0288C93.4494 16.8896 94.1222 17.052 94.6094 17.4696C95.3054 18.096 95.375 19.1632 95.0966 19.9752C94.3542 22.0864 91.9415 23.0376 89.5983 22.9216C88.8095 22.8984 88.0438 22.736 87.3246 22.4112C86.1646 21.8312 85.747 20.6248 84.5406 20.184C83.0558 19.6504 81.8031 18.9544 80.8983 17.5856Z" fill="#004812"/>
<path d="M85.3758 18.444C84.7726 18.444 84.1694 18.6528 83.7286 19.0472C82.9166 19.7664 82.7078 20.9264 83.195 21.8776C83.4966 22.4112 83.9838 22.8288 84.5638 23.0608C85.1206 23.2696 85.7006 23.3392 86.3038 23.2696C86.9302 23.2 87.5102 22.9448 87.951 22.504C88.3918 22.04 88.5774 21.4136 88.4382 20.7872C88.183 19.6968 86.443 18.4904 85.3758 18.444Z" fill="#004812"/>
<path d="M61.6656 41.6208C62.524 42.9896 63.1736 44.544 64.4032 45.588C66.004 46.9336 68.2776 47.1192 70.1568 48.0704C72.384 49.2072 73.9616 51.388 74.7968 53.7544C75.632 56.1208 75.8176 58.6496 75.8408 61.1552C76.0264 71.108 74.24 80.9912 72.4536 90.7816C72.0128 93.148 71.4328 95.7696 69.4144 97.092C67.6976 98.2056 65.4704 97.9968 63.4288 97.7184C57.9768 96.976 52.548 96.048 47.1424 95.12L23.1072 90.944C19.9984 90.4104 16.704 89.784 14.3376 87.7192C10.8576 84.68 10.3936 79.576 9.88323 74.9824C8.83923 65.7488 6.68163 56.6776 3.43363 47.9776C2.25043 44.8224 1.02083 40.9248 3.22483 38.3728C4.45443 36.9112 6.44963 36.4008 8.30563 36.0064C19.9984 33.5472 32.0624 33.1992 43.8712 34.9624C46.864 35.4032 49.9264 35.3336 52.8728 35.8672C56.4224 36.5168 59.7168 38.5816 61.6656 41.6208Z" fill="white"/>
<path d="M66.0506 98.0896C65.169 98.0664 64.2874 97.9968 63.429 97.8808C57.977 97.1384 52.4554 96.1872 47.1426 95.2824L23.0842 91.1296C20.2538 90.6424 16.7042 90.0392 14.2218 87.8584C10.8114 84.8656 10.2546 79.8544 9.76742 75.4232L9.72102 75.0056C8.70022 65.7952 6.51942 56.7472 3.27142 48.0472C1.92582 44.428 0.974624 40.7624 3.08582 38.28C4.36182 36.772 6.42662 36.2384 8.28262 35.8672C19.9986 33.408 32.0626 33.06 43.9178 34.8232C45.2866 35.032 46.725 35.1248 48.0938 35.2176C49.7178 35.2872 51.3186 35.4728 52.9194 35.728C56.585 36.3776 59.9026 38.5584 61.805 41.5512C62.037 41.9224 62.269 42.34 62.501 42.7112C63.0578 43.7088 63.661 44.7296 64.5194 45.472C65.4706 46.2608 66.6538 46.632 67.8834 47.0264C68.6954 47.2584 69.4842 47.56 70.2266 47.908C72.3146 48.9752 74.0082 51.0168 74.9362 53.6848C75.7946 56.1208 75.957 58.696 76.0034 61.132C76.189 71.1312 74.3794 81.1304 72.6162 90.8048C72.1522 93.3336 71.549 95.8856 69.4842 97.2312C68.4866 97.8808 67.2802 98.0896 66.0506 98.0896ZM28.977 34.0344C22.0402 34.0344 15.1498 34.7536 8.35222 36.192C6.56582 36.5632 4.57062 37.0968 3.36422 38.512C1.34582 40.8552 2.29702 44.428 3.59622 47.9544C6.86742 56.6544 9.02502 65.7256 10.069 74.9824L10.1154 75.4C10.6026 79.7616 11.1362 84.7032 14.4538 87.6032C16.8666 89.7144 20.3466 90.3176 23.1538 90.8048L47.189 94.9576C52.525 95.8856 58.0234 96.8136 63.4754 97.556C65.5402 97.8344 67.6746 98.02 69.345 96.9528C71.2706 95.7 71.8738 93.2176 72.3146 90.7584C74.0546 81.1072 75.8874 71.1312 75.6786 61.1552C75.6322 58.7656 75.4698 56.2136 74.6346 53.824C73.7298 51.2488 72.1058 49.2768 70.0874 48.256C69.345 47.908 68.5794 47.6064 67.7906 47.3976C66.561 47.0032 65.3082 46.6088 64.3106 45.7736C63.3826 45.008 62.7794 43.9408 62.1994 42.92C61.9906 42.5488 61.7586 42.1312 61.5266 41.76C59.6706 38.8368 56.4458 36.7256 52.873 36.0992C51.2954 35.844 49.6714 35.6816 48.0706 35.612C46.6786 35.5192 45.2634 35.4264 43.8714 35.2176C39.9274 34.6376 35.937 34.2664 31.9466 34.1504C30.949 34.0576 29.9514 34.0344 28.977 34.0344Z" fill="#004812"/>
<path d="M59.2993 60.7144C60.2737 60.9928 61.2945 61.3408 61.9209 62.1528C62.5473 62.9648 62.5705 64.1016 62.5705 65.1224C62.5705 67.28 62.5705 69.4608 62.5705 71.6184C62.5705 72.3608 62.5241 73.1728 61.9905 73.66C61.3873 74.2168 60.4593 74.1008 59.6473 73.9384L45.6113 71.2936C44.2193 71.0384 42.6649 70.6904 41.8529 69.5304C41.1105 68.4864 41.1569 67.1176 41.2497 65.8416C41.3657 63.9856 40.9017 60.5056 41.7369 58.8816C42.5721 57.2576 44.3353 57.8144 45.9593 58C50.2513 58.5336 55.2161 59.0904 59.2993 60.7144Z" fill="#004812"/>
<path d="M62.2924 79.0192C62.478 79.0656 62.6404 79.1816 62.71 79.3672C62.7796 79.6224 62.6636 79.9008 62.4084 80.0168C62.1764 80.0864 61.9444 80.0864 61.7124 80.0168L32.0164 74.356C31.8772 74.356 31.7612 74.2864 31.6684 74.1704C31.5756 73.9848 31.622 73.776 31.7844 73.6368C31.9468 73.544 32.1092 73.4976 32.2948 73.4976C36.1924 73.3352 40.0668 74.1472 43.8948 74.9592C48.9292 76.0264 53.9636 77.14 59.0212 78.1376C60.2044 78.3928 61.1556 78.5552 62.2924 79.0192Z" fill="#004812"/>
<path d="M61.7819 83.0096C62.3155 83.1952 62.1995 84.1 61.6427 84.0768C60.6683 84.0536 59.6707 83.7288 58.7427 83.4272C52.4323 81.4552 45.9363 80.388 39.4171 79.7616C35.8443 79.4136 29.5803 78.764 32.3875 77.8824C32.6195 78.068 33.4779 77.952 33.7795 77.9752C34.3363 78.0216 34.8699 78.0448 35.4267 78.0912C36.4707 78.184 37.5147 78.2768 38.5819 78.3696C40.6467 78.5784 42.6883 78.8568 44.7299 79.1584C48.8595 79.7848 52.9659 80.62 57.0491 81.664C58.2091 81.9656 59.3459 82.2672 60.5059 82.592C60.9235 82.7776 61.3643 82.8472 61.7819 83.0096Z" fill="#004812"/>
<path d="M59.9026 88.9024C52.2234 87.232 44.7066 83.52 36.9578 83.2184C36.0762 83.1952 35.1714 83.1952 34.313 82.94C34.197 82.9168 34.081 82.8704 33.965 82.824C33.4314 82.592 33.5938 81.3624 34.1506 81.4784L43.6162 83.3576C48.929 84.4016 54.2418 85.4688 59.4386 87.5104C59.9026 87.696 60.4594 87.6496 60.993 87.7192C61.573 87.812 61.5034 89.1344 60.9234 89.088C60.5754 89.0416 60.2506 88.9952 59.9026 88.9024Z" fill="#004812"/>
<path d="M90.5264 65.656C90.944 66.584 91.3616 67.5816 91.2224 68.6256C90.9904 70.3656 89.2968 71.6416 87.6496 72.5C79.808 76.5832 69.6464 75.8408 63.0576 70.7136C56.4688 65.5864 53.8008 56.3528 56.6544 48.3952C58.1856 44.1032 61.2712 40.3216 65.1456 37.6304C67.628 35.9136 73.8224 32.0856 76.676 34.2896C78.3464 35.5656 79.0656 39.2776 79.8776 41.1568L83.4968 49.4856L90.5264 65.656Z" fill="white"/>
<path d="M76.6757 75.3072C71.6645 75.3072 66.7461 73.7992 62.9413 70.8296C56.2597 65.6328 53.6149 56.376 56.4917 48.3256C57.9997 44.1264 61.0389 40.2752 65.0525 37.468C67.0245 36.076 73.7061 31.7608 76.7685 34.1504C77.9981 35.1016 78.6941 37.236 79.3205 39.1384C79.5525 39.8808 79.7845 40.5536 80.0165 41.0872L90.6885 65.5864C91.0597 66.4448 91.5237 67.5352 91.3845 68.6256C91.1757 70.1104 89.9461 71.456 87.7189 72.6392C84.3085 74.4256 80.5269 75.3304 76.6757 75.3072ZM74.4253 33.7792C71.2237 33.7792 66.7693 36.6792 65.2381 37.7464C61.2941 40.5072 58.3013 44.2888 56.8165 48.4416C53.9861 56.3528 56.5845 65.4472 63.1501 70.5512C69.7157 75.6552 79.7613 76.3976 87.5565 72.3376C89.6909 71.224 90.8509 69.9712 91.0365 68.6024C91.1757 67.5816 90.7349 66.6072 90.3637 65.7256L79.7149 41.2496C79.4829 40.6928 79.2509 39.9968 78.9957 39.2544C78.3925 37.3984 77.6965 35.3104 76.5597 34.4288C75.9565 33.988 75.1909 33.756 74.4253 33.7792Z" fill="#004812"/>
<path d="M70.1335 68.6256C70.3887 69.1824 70.5743 69.7624 70.6439 70.3656C70.7135 71.1312 70.3655 71.8504 69.7159 72.2448C67.2567 73.8688 63.5215 72.5232 60.6679 68.9968C57.8143 65.4704 56.0279 59.972 56.3295 55.7032C56.4919 53.4064 57.2575 51.5272 58.4175 50.344C59.1599 49.5784 61.0391 47.9776 62.2687 49.4856C62.9879 50.3672 63.5679 52.548 64.0551 53.6848L66.1199 58.7656L70.1335 68.6256Z" fill="#004812"/>
<path d="M54.079 55.5408C54.7286 46.3304 59.995 37.3056 68.2542 33.2224C76.5134 29.1392 87.5566 30.74 93.5422 37.7696C97.4398 42.3632 98.9478 48.6272 98.5766 54.636C98.3446 58.4176 97.463 62.1064 96.2102 65.656C95.6302 67.3264 94.4238 69.1592 94.099 70.876C93.7046 72.848 94.4238 73.3584 95.7462 75.0752C100.943 81.9192 106.14 88.7632 111.36 95.6072C112.52 97.1152 113.703 98.7392 113.958 100.642C114.213 102.544 113.1 104.748 111.197 105.003C109.133 105.282 107.555 103.263 106.441 101.5L89.7142 74.82C84.5174 78.1608 78.1606 79.808 72.059 78.9496C65.9574 78.0912 60.1574 74.5416 57.0022 69.252C54.5662 65.1688 53.7542 60.2736 54.079 55.5408ZM73.0798 72.964C80.6662 74.5416 89.0646 70.8064 92.9854 64.1016C96.9062 57.3968 96.0942 48.2792 91.083 42.3632C86.3966 36.8184 76.1654 33.1528 69.4838 37.2824C62.8022 41.412 57.6286 48.72 58.4638 56.84C59.2758 64.5424 65.4702 71.3864 73.0798 72.964Z" fill="#004812"/>
<path d="M111.87 102.753C111.847 102.753 111.824 102.753 111.824 102.73C111.012 102.266 110.455 101.477 109.968 100.781L90.3404 73.08C83.1948 78.3232 72.662 78.5784 65.2844 73.66C57.9068 68.7416 54.0556 58.8352 56.2364 50.1816C56.2596 50.112 56.306 50.0888 56.3756 50.0888C56.4452 50.112 56.4684 50.1584 56.4684 50.228C54.334 58.7888 58.0924 68.556 65.4236 73.4512C68.9268 75.7944 73.1492 76.9544 77.3716 76.9544C81.9884 76.9544 86.6052 75.5624 90.294 72.8248C90.3172 72.8016 90.3404 72.8016 90.3868 72.8016C90.41 72.8016 90.4564 72.8248 90.4564 72.848L110.153 100.642C110.64 101.314 111.174 102.08 111.94 102.521C111.986 102.544 112.009 102.614 111.986 102.683C111.963 102.73 111.916 102.753 111.87 102.753Z" fill="#004812"/>
</svg>
