<svg width="33" height="32" viewBox="0 0 33 32" fill="none" xmlns="http://www.w3.org/2000/svg">
<path d="M28.2075 16.7075L19.2075 25.7075C19.0199 25.8951 18.7654 26.0006 18.5 26.0006C18.2346 26.0006 17.9801 25.8951 17.7925 25.7075C17.6049 25.5199 17.4994 25.2654 17.4994 25C17.4994 24.7346 17.6049 24.4801 17.7925 24.2925L25.0863 17H5.5C5.23478 17 4.98043 16.8947 4.79289 16.7071C4.60536 16.5196 4.5 16.2652 4.5 16C4.5 15.7348 4.60536 15.4804 4.79289 15.2929C4.98043 15.1054 5.23478 15 5.5 15H25.0863L17.7925 7.70751C17.6049 7.51987 17.4994 7.26537 17.4994 7.00001C17.4994 6.73464 17.6049 6.48015 17.7925 6.29251C17.9801 6.10487 18.2346 5.99945 18.5 5.99945C18.7654 5.99945 19.0199 6.10487 19.2075 6.29251L28.2075 15.2925C28.3005 15.3854 28.3742 15.4957 28.4246 15.6171C28.4749 15.7385 28.5008 15.8686 28.5008 16C28.5008 16.1314 28.4749 16.2615 28.4246 16.3829C28.3742 16.5043 28.3005 16.6146 28.2075 16.7075Z" fill="white"/>
</svg>
