<svg width="48" height="48" viewBox="0 0 48 48" fill="none" xmlns="http://www.w3.org/2000/svg">
<path d="M46.4996 25.5C46.1018 25.5 45.7202 25.658 45.4389 25.9393C45.1576 26.2206 44.9996 26.6021 44.9996 27V30H36.6202L33.1871 26.5612L42.6259 17.1206C43.188 16.558 43.5038 15.7953 43.5038 15C43.5038 14.2047 43.188 13.4419 42.6259 12.8793L32.1259 2.37935C31.8473 2.1007 31.5165 1.87966 31.1525 1.72885C30.7885 1.57805 30.3983 1.50043 30.0043 1.50043C29.6103 1.50043 29.2201 1.57805 28.8561 1.72885C28.4921 1.87966 28.1613 2.1007 27.8827 2.37935L0.547104 29.8012C0.285491 30.0637 0.107505 30.3977 0.0356199 30.7612C-0.036265 31.1248 0.00117502 31.5014 0.143212 31.8437C0.285249 32.1859 0.525514 32.4784 0.833669 32.6842C1.14182 32.89 1.50405 32.9999 1.8746 33H9.25648L15.879 39.6206C16.4415 40.1828 17.2043 40.4986 17.9996 40.4986C18.7949 40.4986 19.5577 40.1828 20.1202 39.6206L31.0609 28.6875L34.4996 32.1206C34.7772 32.4004 35.1076 32.6222 35.4716 32.7732C35.8357 32.9241 36.2261 33.0012 36.6202 33H44.9996V36C44.9996 36.3978 45.1576 36.7793 45.4389 37.0606C45.7202 37.3419 46.1018 37.5 46.4996 37.5C46.8974 37.5 47.279 37.3419 47.5603 37.0606C47.8416 36.7793 47.9996 36.3978 47.9996 36V27C47.9996 26.6021 47.8416 26.2206 47.5603 25.9393C47.279 25.658 46.8974 25.5 46.4996 25.5ZM29.9996 4.49997L32.379 6.87935L9.25648 30H4.58585L29.9996 4.49997ZM17.9996 37.5L11.9996 31.5L34.4996 8.99997L40.4996 15L17.9996 37.5Z" fill="#003975"/>
</svg>
