<svg width="48" height="48" viewBox="0 0 48 48" fill="none" xmlns="http://www.w3.org/2000/svg">
<path d="M47.205 16.6762L24.705 4.67624C24.488 4.56068 24.2459 4.50024 24 4.50024C23.7541 4.50024 23.512 4.56068 23.295 4.67624L0.79502 16.6762C0.555028 16.8041 0.354321 16.9949 0.21437 17.2281C0.0744183 17.4612 0.000488281 17.728 0.000488281 18C0.000488281 18.2719 0.0744183 18.5388 0.21437 18.7719C0.354321 19.0051 0.555028 19.1958 0.79502 19.3237L6.00002 22.1006V31.1794C5.99846 31.9162 6.26963 32.6275 6.76127 33.1762C9.21752 35.9119 14.7206 40.5 24 40.5C27.0768 40.5254 30.1306 39.9681 33 38.8575V45C33 45.3978 33.1581 45.7794 33.4394 46.0607C33.7207 46.342 34.1022 46.5 34.5 46.5C34.8978 46.5 35.2794 46.342 35.5607 46.0607C35.842 45.7794 36 45.3978 36 45V37.4081C37.956 36.279 39.7236 34.8511 41.2388 33.1762C41.7304 32.6275 42.0016 31.9162 42 31.1794V22.1006L47.205 19.3237C47.445 19.1958 47.6457 19.0051 47.7857 18.7719C47.9256 18.5388 47.9995 18.2719 47.9995 18C47.9995 17.728 47.9256 17.4612 47.7857 17.2281C47.6457 16.9949 47.445 16.8041 47.205 16.6762ZM24 37.5C15.8869 37.5 11.115 33.5362 9.00002 31.1794V23.7L23.295 31.3237C23.512 31.4393 23.7541 31.4997 24 31.4997C24.2459 31.4997 24.488 31.4393 24.705 31.3237L33 26.9006V35.5894C30.6375 36.6919 27.66 37.5 24 37.5ZM39 31.1719C38.1009 32.1696 37.0948 33.0656 36 33.8437V25.2994L39 23.7V31.1719ZM35.25 22.3012L35.2088 22.2769L24.7088 16.6762C24.3584 16.4973 23.9519 16.4632 23.5766 16.5811C23.2013 16.6991 22.8874 16.9598 22.7025 17.307C22.5176 17.6542 22.4765 18.0601 22.588 18.4374C22.6995 18.8146 22.9548 19.1329 23.2988 19.3237L32.0625 24L24 28.2994L4.68752 18L24 7.70062L43.3125 18L35.25 22.3012Z" fill="#007DC6"/>
</svg>
