<svg width="48" height="48" viewBox="0 0 48 48" fill="none" xmlns="http://www.w3.org/2000/svg">
<path d="M46.5001 25.5C46.1023 25.5 45.7207 25.658 45.4394 25.9393C45.1581 26.2206 45.0001 26.6021 45.0001 27V30H36.6207L33.1876 26.5612L42.6263 17.1206C43.1885 16.558 43.5043 15.7953 43.5043 15C43.5043 14.2047 43.1885 13.4419 42.6263 12.8793L32.1263 2.37935C31.8478 2.1007 31.517 1.87966 31.153 1.72885C30.789 1.57805 30.3988 1.50043 30.0048 1.50043C29.6108 1.50043 29.2206 1.57805 28.8566 1.72885C28.4925 1.87966 28.1618 2.1007 27.8832 2.37935L0.547592 29.8012C0.285979 30.0637 0.107993 30.3977 0.0361082 30.7612C-0.0357767 31.1248 0.0016633 31.5014 0.143701 31.8437C0.285738 32.1859 0.526003 32.4784 0.834157 32.6842C1.14231 32.89 1.50454 32.9999 1.87509 33H9.25697L15.8795 39.6206C16.442 40.1828 17.2048 40.4986 18.0001 40.4986C18.7954 40.4986 19.5582 40.1828 20.1207 39.6206L31.0613 28.6875L34.5001 32.1206C34.7777 32.4004 35.1081 32.6222 35.4721 32.7732C35.8362 32.9241 36.2266 33.0012 36.6207 33H45.0001V36C45.0001 36.3978 45.1581 36.7793 45.4394 37.0606C45.7207 37.3419 46.1023 37.5 46.5001 37.5C46.8979 37.5 47.2794 37.3419 47.5608 37.0606C47.8421 36.7793 48.0001 36.3978 48.0001 36V27C48.0001 26.6021 47.8421 26.2206 47.5608 25.9393C47.2794 25.658 46.8979 25.5 46.5001 25.5ZM30.0001 4.49997L32.3795 6.87935L9.25697 30H4.58634L30.0001 4.49997ZM18.0001 37.5L12.0001 31.5L34.5001 8.99997L40.5001 15L18.0001 37.5Z" fill="#003975"/>
</svg>
