<svg width="48" height="48" viewBox="0 0 48 48" fill="none" xmlns="http://www.w3.org/2000/svg">
<path d="M44.2349 37.3125C44.0627 37.4096 43.873 37.4717 43.6767 37.4952C43.4804 37.5187 43.2813 37.5032 43.0911 37.4495C42.9008 37.3959 42.723 37.3051 42.5679 37.1825C42.4128 37.0598 42.2835 36.9078 42.1874 36.735L29.1224 13.5H25.4999V15C25.4999 15.3978 25.3419 15.7794 25.0606 16.0607C24.7793 16.342 24.3977 16.5 23.9999 16.5C23.6021 16.5 23.2205 16.342 22.9392 16.0607C22.6579 15.7794 22.4999 15.3978 22.4999 15V13.5H18.8774L5.8124 36.735C5.61746 37.0831 5.29223 37.3395 4.90825 37.4478C4.52427 37.5561 4.11299 37.5074 3.7649 37.3125C3.4168 37.1176 3.1604 36.7923 3.0521 36.4084C2.94379 36.0244 2.99246 35.6131 3.1874 35.265L15.4349 13.5H4.4999C4.10207 13.5 3.72054 13.342 3.43924 13.0607C3.15793 12.7794 2.9999 12.3978 2.9999 12C2.9999 11.6022 3.15793 11.2206 3.43924 10.9393C3.72054 10.658 4.10207 10.5 4.4999 10.5H43.4999C43.8977 10.5 44.2793 10.658 44.5606 10.9393C44.8419 11.2206 44.9999 11.6022 44.9999 12C44.9999 12.3978 44.8419 12.7794 44.5606 13.0607C44.2793 13.342 43.8977 13.5 43.4999 13.5H32.5649L44.8124 35.265C44.9095 35.4372 44.9716 35.6269 44.9951 35.8232C45.0186 36.0195 45.0031 36.2186 44.9494 36.4088C44.8957 36.5991 44.805 36.7769 44.6824 36.932C44.5597 37.0871 44.4077 37.2164 44.2349 37.3125ZM23.9999 21C23.6021 21 23.2205 21.158 22.9392 21.4393C22.6579 21.7206 22.4999 22.1022 22.4999 22.5V25.5C22.4999 25.8978 22.6579 26.2794 22.9392 26.5607C23.2205 26.842 23.6021 27 23.9999 27C24.3977 27 24.7793 26.842 25.0606 26.5607C25.3419 26.2794 25.4999 25.8978 25.4999 25.5V22.5C25.4999 22.1022 25.3419 21.7206 25.0606 21.4393C24.7793 21.158 24.3977 21 23.9999 21ZM23.9999 31.5C23.6021 31.5 23.2205 31.658 22.9392 31.9393C22.6579 32.2206 22.4999 32.6022 22.4999 33V36C22.4999 36.3978 22.6579 36.7794 22.9392 37.0607C23.2205 37.342 23.6021 37.5 23.9999 37.5C24.3977 37.5 24.7793 37.342 25.0606 37.0607C25.3419 36.7794 25.4999 36.3978 25.4999 36V33C25.4999 32.6022 25.3419 32.2206 25.0606 31.9393C24.7793 31.658 24.3977 31.5 23.9999 31.5Z" fill="#F99D1B"/>
</svg>
