<svg width="636" height="636" viewBox="0 0 636 636" fill="none" xmlns="http://www.w3.org/2000/svg">
<path d="M378.675 192.199C380.201 232.903 393.811 272.208 417.979 305.026C420.523 308.46 424.594 310.495 428.791 310.622C510.454 311.386 582.958 258.343 606.871 180.37C609.543 171.974 603.055 163.706 594.151 163.452C580.032 163.07 565.659 156.074 555.737 145.644C546.451 135.85 540.346 123.511 536.275 110.537C534.113 103.414 526.608 99.4704 519.485 101.633C518.34 102.014 517.195 102.523 516.178 103.159C501.804 112.19 483.742 115.37 467.333 111.046C452.069 106.721 439.095 96.9264 430.827 83.4432C426.883 77.2104 418.743 75.3024 412.383 79.2456C410.475 80.3904 408.948 82.044 407.931 83.952C388.851 116.897 377.275 151.368 378.675 192.199Z" fill="white"/>
<path d="M430.318 311.513H428.791C424.212 311.513 419.887 309.223 417.216 305.662C393.048 272.59 379.31 233.158 377.784 192.199C376.512 155.057 385.798 120.586 407.167 83.316C409.711 78.864 414.29 76.1928 419.378 76.1928C424.339 76.0656 429.046 78.6096 431.717 82.8072C439.858 96.036 452.705 105.83 467.714 110.028C483.487 114.226 501.422 111.3 515.796 102.269C519.612 99.852 524.318 99.3432 528.516 100.87C532.714 102.396 535.894 105.83 537.293 110.028C541.872 124.529 548.105 135.85 556.5 144.754C566.549 155.438 580.668 161.926 594.278 162.307C598.858 162.434 603.182 164.597 605.854 168.413C608.398 171.847 609.161 176.426 607.762 180.497C583.848 258.47 511.853 311.64 430.318 311.513ZM379.565 192.072C381.091 232.522 394.702 271.699 418.615 304.39C421.032 307.57 424.721 309.478 428.664 309.478C509.945 310.241 581.94 257.58 605.854 179.861C606.998 176.299 606.362 172.483 604.2 169.43C601.783 166.123 598.094 164.215 594.024 164.215C580.032 163.834 565.404 157.092 554.846 146.026C546.197 136.994 539.837 125.419 535.13 110.537C533.986 106.848 531.187 103.922 527.498 102.523C523.81 101.251 519.739 101.633 516.432 103.795C501.677 113.081 483.106 116.134 466.824 111.809C451.306 107.484 438.077 97.5624 429.682 83.8248C427.392 80.136 423.322 77.9736 418.997 78.1008C414.672 78.1008 410.602 80.5176 408.439 84.3336C387.324 121.222 378.038 155.438 379.31 192.199L379.565 192.072Z" fill="#0054A6"/>
<path d="M401.443 195.379C402.588 226.67 413.146 256.817 431.59 282.13C433.498 284.801 436.678 286.327 439.858 286.327C502.567 286.963 558.281 246.259 576.725 186.221C578.251 180.878 575.199 175.154 569.729 173.628C568.839 173.374 567.821 173.246 566.931 173.246C556.119 172.992 545.052 167.65 537.42 159.509C530.297 152.004 525.591 142.591 522.411 132.542C520.757 127.073 514.906 124.02 509.436 125.801C508.546 126.055 507.783 126.437 507.019 126.946C485.523 141.065 456.648 135.086 442.529 113.59C442.147 112.954 441.766 112.445 441.384 111.809C438.331 106.975 431.971 105.576 427.265 108.629C425.866 109.519 424.721 110.791 423.831 112.19C409.203 137.63 400.299 164.088 401.443 195.379Z" fill="#0054A6"/>
<path d="M392.667 214.714L398.391 244.478C399.027 247.786 399.917 251.474 402.843 253.128C405.768 254.782 409.457 253.764 412.637 252.746C469.368 233.03 522.792 204.919 571.001 169.176C565.531 173.246 544.416 148.824 536.148 149.969C521.902 151.877 504.348 164.215 491.119 170.194L392.667 214.714Z" fill="#00AEEF"/>
<path d="M408.948 263.05C406.404 266.866 409.711 272.335 414.163 273.734C418.615 275.134 423.195 273.607 427.647 272.081C486.922 251.602 544.671 224.762 593.77 185.839C593.515 186.094 588.046 179.861 587.283 179.479C583.721 177.953 584.357 178.207 580.795 179.352C575.453 181.006 568.711 188.892 564.132 192.199C553.066 200.34 541.745 207.845 529.915 214.841C506.129 228.96 480.943 240.662 454.867 249.948C439.731 255.163 424.467 259.615 408.948 263.05Z" fill="#00AEEF"/>
<path d="M461.227 158.746C441.765 165.996 428.028 186.475 428.791 207.336C429.554 228.197 444.564 247.531 464.534 253.51C484.505 259.488 507.655 251.347 519.612 234.302C547.087 194.998 506.129 141.955 461.227 158.746Z" fill="white"/>
<path d="M478.017 256.308C473.311 256.308 468.732 255.672 464.153 254.273C443.801 248.167 428.537 228.451 427.773 207.209C427.01 185.966 441.002 165.233 460.845 157.728C481.706 149.969 504.221 156.583 518.34 174.773C532.459 192.962 533.222 216.494 520.375 234.684C510.835 248.294 494.426 256.308 478.017 256.308ZM478.399 156.456C472.675 156.456 466.951 157.474 461.609 159.509C442.529 166.632 429.045 186.73 429.809 207.082C430.572 227.434 445.2 246.514 464.789 252.365C484.377 258.216 507.146 250.33 518.849 233.539C531.187 215.986 530.424 193.344 516.813 175.918C507.019 163.325 493.027 156.583 478.399 156.456Z" fill="#0054A6"/>
<path d="M442.529 193.853C441.511 193.98 440.748 194.87 440.875 195.888C440.875 196.015 440.875 196.015 440.875 196.142L448.507 224.126C449.016 225.907 449.652 227.942 451.306 228.706C452.959 229.469 454.867 228.578 456.648 227.815C475.601 219.547 494.935 212.424 514.397 208.735C515.287 208.481 515.923 207.718 515.796 206.827L514.778 191.945C514.778 191.182 514.142 190.673 513.506 190.673H513.379C493.79 194.489 475.346 202.63 459.446 214.714C458.938 215.222 458.174 215.222 457.666 214.714C457.411 214.459 457.157 213.95 457.284 213.569C457.538 211.152 457.538 208.226 457.538 207.336C457.666 204.41 457.92 200.213 456.775 197.669C455.249 193.598 447.49 193.598 442.529 193.853Z" fill="#00AEEF"/>
<path d="M241.298 266.484C264.194 336.317 304.008 405.005 368.626 439.858C392.539 452.705 418.87 460.464 444.818 467.969C451.942 470.004 459.701 472.166 466.824 470.004C475.728 467.333 481.452 458.81 486.286 450.924L527.498 385.034C470.894 365.827 426.247 319.526 398.899 266.484C371.551 213.442 359.594 153.658 352.471 94.2552C351.199 83.1888 349.8 71.4864 342.804 62.8368C334.918 53.0424 321.943 49.4808 309.859 46.3008C294.341 42.3576 278.314 38.2872 262.286 39.9408C231.631 43.1208 219.038 62.4552 217.258 90.0576C214.841 128.345 217.385 166.759 224.89 204.283C229.214 225.398 234.684 246.132 241.298 266.484Z" fill="white"/>
<path d="M460.337 471.912C454.74 471.912 449.27 470.258 444.564 468.986C418.87 461.482 392.285 453.722 368.117 440.748C297.139 402.588 259.488 325.123 240.281 266.866C233.539 246.514 228.07 225.78 223.872 204.665C216.367 167.014 213.823 128.472 216.24 90.1848C218.275 59.2752 233.794 42.1032 262.159 39.1776C278.568 37.524 295.231 41.7216 309.986 45.5376C320.544 48.2088 335.172 51.8976 343.44 62.328C350.69 71.232 352.09 83.4432 353.362 94.128C359.213 143.863 369.77 208.226 399.662 265.975C429.427 323.47 476.11 366.59 527.753 384.017C528.007 384.144 528.262 384.271 528.389 384.653C528.516 384.907 528.516 385.289 528.262 385.416L487.049 451.306C481.579 460.082 475.982 468.096 466.951 470.767C465.043 471.53 462.754 471.912 460.337 471.912ZM270.046 40.5768C267.502 40.5768 264.958 40.704 262.541 40.9584C234.811 43.7568 220.31 59.9112 218.402 90.1848C215.986 128.345 218.53 166.632 225.907 204.156C230.105 225.144 235.574 245.75 242.189 266.102C261.269 323.978 298.666 400.934 369.134 438.967C393.048 451.814 419.506 459.574 445.2 467.078C451.56 468.986 459.574 471.276 466.697 469.114C475.092 466.57 480.434 458.81 485.65 450.415L526.226 385.543C474.456 367.608 427.901 324.487 398.136 266.866C368.117 208.862 357.559 144.245 351.708 94.3824C350.436 83.316 349.037 71.868 342.168 63.4728C334.79 54.3144 323.088 50.7528 309.732 47.3184C296.758 44.0112 283.529 40.5768 270.046 40.5768Z" fill="#0054A6"/>
<path d="M231.377 305.153C224.635 314.057 217.639 323.724 216.876 334.918C216.113 345.73 221.201 356.033 226.289 365.7C235.829 383.89 245.623 402.079 255.418 420.142C259.615 427.774 263.813 435.406 269.919 441.511C276.024 447.617 284.419 451.942 293.069 451.306C303.372 450.542 311.767 443.038 318.763 435.406C334.155 418.742 347.002 400.044 357.051 379.692C365.955 361.63 372.569 341.405 368.753 321.689C365.573 305.026 355.27 291.034 343.059 279.586C332.247 269.282 319.781 255.418 307.061 247.658C275.007 228.578 246.259 285.31 231.377 305.153Z" fill="#0054A6"/>
<path d="M202.121 424.339C180.242 424.466 157.855 424.594 136.994 431.335C99.7248 443.419 72.504 474.583 47.064 504.475C43.248 509.054 39.3048 513.761 37.1424 519.358C34.98 524.954 35.2344 531.823 39.0504 536.402C43.884 542.126 52.2792 542.508 59.6568 542.635L505.238 543.78C511.598 543.78 517.958 543.78 523.937 541.618C529.915 539.455 535.258 534.749 536.402 528.516C537.802 520.757 532.459 513.634 527.371 507.528L478.272 448.634C467.333 435.533 460.846 423.83 442.656 423.449C391.14 422.304 339.497 423.83 287.981 424.085C259.361 424.085 230.741 424.594 202.121 424.339Z" fill="#00AEEF"/>
<path d="M128.854 519.994C112.445 519.994 95.6545 519.612 79.2457 517.577C73.9033 516.686 69.4513 512.87 67.9249 507.655C66.6529 503.839 67.7977 499.642 70.8505 497.098C97.6897 474.838 115.243 460.464 142.337 439.094C142.591 438.84 142.973 438.84 143.227 439.094C143.482 439.349 143.482 439.73 143.227 439.985C143.227 439.985 143.227 439.985 143.1 440.112C116.134 461.482 98.5801 475.855 71.6137 498.115C68.9425 500.405 67.9249 504.094 69.0697 507.401C70.4689 512.107 74.4121 515.542 79.2457 516.432C100.106 518.976 121.349 518.976 141.828 518.849L487.049 516.814C491.755 516.941 496.207 514.778 498.878 510.835C502.44 505.366 499.387 500.278 495.698 495.19L448.634 431.335C448.38 431.081 448.507 430.699 448.762 430.445C449.016 430.19 449.398 430.318 449.652 430.572L496.716 494.426C499.769 498.497 504.348 504.73 500.023 511.471C497.098 515.669 492.264 518.086 487.049 517.958L141.828 519.994C137.758 519.994 133.306 519.994 128.854 519.994Z" fill="#0054A6"/>
<path d="M141.701 510.581C141.574 510.581 141.446 510.581 141.446 510.454C141.192 510.326 141.065 509.945 141.192 509.563C155.693 483.487 173.628 459.574 194.743 438.586C194.998 438.331 195.379 438.331 195.634 438.586C195.888 438.84 195.888 439.222 195.634 439.476C174.646 460.464 156.583 484.25 142.21 510.199C142.21 510.326 141.955 510.454 141.701 510.581Z" fill="#0054A6"/>
<path d="M224.889 507.274H224.762C224.381 507.146 224.253 506.892 224.253 506.51C229.214 484.886 235.574 463.644 243.461 442.91C243.588 442.529 243.969 442.402 244.224 442.529C244.605 442.656 244.733 443.038 244.605 443.292C236.846 464.026 230.486 485.268 225.525 506.765C225.525 507.019 225.271 507.274 224.889 507.274Z" fill="#0054A6"/>
<path d="M287.981 507.274C287.599 507.274 287.345 506.892 287.345 506.638L290.779 443.674C290.779 443.292 291.034 443.038 291.415 443.038C291.797 443.038 292.051 443.292 292.051 443.674L288.617 506.638C288.617 507.019 288.362 507.274 287.981 507.274Z" fill="#0054A6"/>
<path d="M352.217 505.111C351.962 505.111 351.581 504.857 351.581 504.602C348.274 483.36 343.949 462.118 338.606 441.257C338.479 440.875 338.734 440.494 339.115 440.494C339.497 440.494 339.878 440.621 339.878 441.002C345.221 461.863 349.546 483.233 352.853 504.475C352.853 504.857 352.726 505.111 352.344 505.238L352.217 505.111Z" fill="#0054A6"/>
<path d="M437.822 507.401C437.568 507.401 437.441 507.274 437.313 507.146L392.03 437.95C391.776 437.695 391.903 437.314 392.157 437.059C392.412 436.805 392.793 436.932 393.048 437.186L438.331 506.383C438.585 506.638 438.458 507.019 438.204 507.274C438.077 507.401 437.949 507.401 437.822 507.401Z" fill="#0054A6"/>
<path d="M472.675 489.593H102.269C101.887 489.593 101.633 489.338 101.633 488.957C101.633 488.575 101.887 488.321 102.269 488.321H472.675C473.057 488.321 473.311 488.575 473.311 488.957C473.311 489.338 473.057 489.593 472.675 489.593Z" fill="#0054A6"/>
<path d="M431.971 458.938H139.157C138.775 458.938 138.521 458.683 138.521 458.302C138.521 457.92 138.775 457.666 139.157 457.666H431.971C432.353 457.666 432.607 457.92 432.607 458.302C432.607 458.683 432.353 458.938 431.971 458.938Z" fill="#0054A6"/>
<path d="M262.159 212.678C268.901 222.346 278.822 232.267 290.398 230.359C298.666 228.96 304.771 221.964 309.478 214.968C329.448 185.076 337.716 148.951 341.786 113.335C342.931 102.778 343.567 91.3296 337.843 82.5528C331.61 73.0128 319.526 69.324 308.333 67.416C294.214 64.9992 279.713 64.4904 265.466 65.7624C255.672 66.6528 245.75 68.5608 237.737 74.1576C228.324 80.772 224.635 91.0752 227.434 101.887C230.359 113.717 230.105 125.928 232.14 137.885C236.338 164.597 246.641 190.164 262.159 212.678Z" fill="white"/>
<path d="M287.599 231.504C276.66 231.504 267.375 221.71 261.396 213.187C245.878 190.673 235.447 164.978 230.995 137.885C230.232 132.924 229.723 127.836 229.342 123.002C228.96 115.879 227.943 108.883 226.416 102.014C223.491 90.5664 227.434 80.136 237.101 73.2672C245.751 67.1616 256.69 65.508 265.339 64.6176C279.713 63.3456 294.214 63.8544 308.46 66.2712C318 67.9248 331.611 71.3592 338.607 81.7896C344.712 90.948 343.949 102.905 342.677 113.208C337.716 157.219 327.413 189.655 310.241 215.222C306.171 221.328 299.683 229.596 290.525 230.995C289.507 231.377 288.49 231.504 287.599 231.504ZM280.349 65.8896C275.388 65.8896 270.427 66.144 265.467 66.5256C257.071 67.2888 246.514 68.9424 238.119 74.7936C229.087 81.1536 225.526 90.948 228.197 101.506C229.723 108.502 230.741 115.625 231.25 122.875C231.631 127.709 232.14 132.797 232.903 137.63C237.355 164.342 247.659 189.782 263.05 212.042C269.283 220.946 279.077 231.122 290.398 229.342C298.793 227.942 304.899 220.183 308.842 214.332C325.759 189.019 335.935 156.838 340.896 113.081C342.041 103.032 342.804 91.584 337.08 82.9344C330.593 73.0128 317.491 69.7056 308.206 68.1792C298.92 66.6528 289.635 65.8896 280.349 65.8896Z" fill="#0054A6"/>
<path d="M265.466 126.31C265.339 125.165 265.593 124.02 265.975 122.875C266.357 121.73 267.374 120.84 268.392 120.586C269.664 120.331 271.063 120.713 271.953 121.603C275.261 124.02 276.151 128.472 276.278 132.542C276.405 134.069 276.278 135.468 275.769 136.867C275.261 138.266 274.116 139.411 272.717 139.793C267.883 140.81 265.593 129.49 265.466 126.31Z" fill="#0054A6"/>
<path d="M297.139 129.617C296.63 131.143 296.376 132.797 296.503 134.323C296.63 135.977 297.775 137.376 299.302 137.885C300.574 138.139 301.973 137.758 302.863 136.867C303.754 135.977 304.517 134.832 305.026 133.687C306.425 130.634 309.096 123.766 304.644 122.112C299.938 120.331 298.157 126.31 297.139 129.617Z" fill="#0054A6"/>
<path d="M273.607 193.471C275.643 196.651 278.95 198.686 282.639 199.195C286.709 199.322 290.525 197.414 292.942 194.234C295.231 191.054 296.885 187.238 297.648 183.422C298.03 182.15 298.157 180.751 298.03 179.352C297.903 177.953 297.012 176.681 295.74 176.045C294.85 175.79 293.832 175.663 292.942 175.79L275.515 177.317C265.339 178.207 269.664 187.874 273.607 193.471Z" fill="#0054A6"/>
<path d="M282.257 96.5448C300.574 97.0536 318.763 97.4352 336.953 95.5272C345.602 94.6368 355.015 92.7288 359.976 85.6056C364.428 79.3728 363.919 70.8504 361.757 63.6C356.16 44.2656 340.133 28.7472 321.307 21.7512C302.482 14.7552 281.112 16.0272 262.286 23.1504C242.825 30.528 223.618 44.6472 211.406 61.5648C194.998 84.2064 227.434 91.2024 244.097 93.7464C256.69 95.9088 269.41 96.2904 282.257 96.5448Z" fill="#00AEEF"/>
<path d="M246.641 155.82C246.641 155.438 246.768 155.057 247.022 154.802C247.404 154.675 247.785 154.675 248.167 154.802C249.821 155.438 251.22 156.71 252.11 158.364C252.11 156.71 252.746 155.057 253.891 153.912C254.527 153.149 255.672 152.767 256.562 153.022C257.961 153.53 258.089 155.311 257.834 156.838C257.325 159.763 255.417 165.614 252.11 164.597C248.803 163.579 246.641 159 246.641 155.82Z" fill="#00AEEF"/>
<path d="M337.716 70.4688C300.828 70.4688 263.94 68.5608 227.179 64.7448L227.306 63.4728C266.611 67.5432 306.043 69.4512 345.475 69.1968V70.4688H337.716Z" fill="#0054A6"/>
<path d="M148.061 282.13C109.01 289.889 69.1968 303.626 41.7216 332.501C35.1072 339.497 29.0016 347.765 28.62 357.432C27.8568 372.442 40.8312 384.653 54.3144 391.267C63.7272 395.846 74.5392 398.899 84.7152 396.61C94.8912 394.32 104.177 385.162 103.795 374.604C103.668 370.661 102.269 366.845 102.269 362.902C102.396 353.107 111.173 345.73 119.568 340.769C163.198 315.456 218.911 316.346 261.014 288.617C268.646 283.656 279.204 271.445 268.774 263.304C261.014 257.071 245.369 264.703 237.228 266.484C207.718 273.098 177.571 276.151 148.061 282.13Z" fill="#0054A6"/>
<path d="M66.3986 388.723C74.285 376.512 87.5137 368.88 102.015 367.862C99.2161 358.577 98.9618 348.401 102.905 339.624C106.848 330.847 115.625 323.978 125.292 324.106C137.376 324.106 146.916 334.409 153.658 344.458C164.343 360.739 171.975 378.674 176.045 397.754C177.953 406.658 178.08 417.852 170.321 422.431C164.47 425.866 156.583 423.576 151.75 418.742C146.916 413.909 144.372 407.422 141.955 401.062C134.323 414.29 121.858 423.958 107.23 428.028C95.6546 431.208 76.3202 431.971 65.8897 424.594C54.0601 416.962 60.1658 398.39 66.3986 388.723Z" fill="white"/>
<path d="M89.1671 431.59C80.1359 431.59 71.1047 429.809 64.9991 425.738C59.6567 422.05 57.3671 415.69 58.3847 407.422C59.4023 400.68 61.8191 394.066 65.5079 388.342C73.3943 376.258 86.3687 368.498 100.742 367.099C97.9439 357.05 98.4527 347.256 101.887 339.37C106.212 329.702 115.497 323.215 125.037 323.215H125.165C135.468 323.215 145.262 330.211 154.293 344.076C165.105 360.358 172.738 378.547 176.935 397.627C178.462 404.878 179.861 417.979 170.829 423.322C164.342 427.138 156.074 424.339 151.113 419.506C146.534 415.054 143.99 408.948 141.828 403.351C133.941 415.944 121.73 425.102 107.484 429.046C101.378 430.699 95.2727 431.59 89.1671 431.59ZM125.037 325.123C116.388 325.123 107.611 331.229 103.668 340.133C100.106 347.892 99.8519 357.686 102.905 367.608C103.032 368.117 102.777 368.626 102.396 368.88C102.269 368.88 102.141 368.88 102.141 368.88C88.0223 369.77 75.0479 377.402 67.2887 389.232C61.1831 398.772 55.5863 416.58 66.2711 424.085C75.9383 430.826 94.3823 430.826 106.848 427.392C121.349 423.322 133.56 413.782 141.065 400.807C141.192 400.553 141.573 400.298 141.955 400.298C142.337 400.298 142.591 400.553 142.718 400.934C145.008 406.786 147.552 413.527 152.258 418.234C156.583 422.558 163.961 425.102 169.685 421.795C177.698 417.089 176.426 404.878 174.9 398.136C170.829 379.31 163.197 361.375 152.64 345.221C143.99 331.865 134.705 325.25 125.037 325.123Z" fill="#0054A6"/>
<path d="M142.973 400.044C139.665 392.285 134.45 385.416 127.836 380.074C123.893 376.894 116.006 371.933 107.993 374.095L107.738 372.823C116.261 370.661 124.529 375.749 128.726 379.056C135.468 384.526 140.81 391.522 144.245 399.535L142.973 400.044Z" fill="#0054A6"/>
<path d="M125.038 420.142C115.116 411.746 102.523 406.913 89.5488 406.658V405.386C102.905 405.641 115.752 410.602 125.928 419.251L125.038 420.142Z" fill="#0054A6"/>
<path d="M481.961 315.329C496.207 325.25 509.817 336.571 519.866 350.69C525.463 358.577 529.915 367.481 531.314 377.021C532.713 386.561 530.805 396.864 524.827 404.369C518.849 411.874 509.817 415.817 500.786 418.488C483.487 423.576 465.297 424.721 447.617 421.668C444.055 421.032 440.366 420.269 437.313 418.106C434.261 415.944 432.098 412.382 432.861 408.694C434.006 402.715 441.257 400.68 446.217 397.246C457.284 389.486 457.538 372.187 450.161 360.739C442.783 349.291 430.445 342.55 418.488 336.19L342.168 295.358C335.172 291.67 328.049 287.854 323.088 281.748C316.092 273.353 313.421 259.106 326.904 258.852C340.133 258.725 354.761 262.286 367.608 265.085C393.938 270.936 419.378 279.967 443.546 292.051C456.775 299.047 469.749 306.806 481.961 315.329Z" fill="#0054A6"/>
<path d="M349.291 461.227C348.655 465.679 348.528 470.386 350.309 474.583C352.09 478.781 356.287 482.215 360.739 481.834C365.191 481.452 368.626 477.763 371.424 474.202C380.328 462.881 388.214 450.797 395.083 438.204C389.105 448.889 384.398 460.082 380.964 471.785C379.692 476.11 378.674 480.943 380.964 484.886C384.78 491.628 395.465 490.483 400.934 485.014C406.404 479.544 408.185 471.658 410.983 464.407C413.273 458.556 417.089 452.196 423.194 450.924C430.318 449.398 436.932 455.249 444.055 456.648C452.196 458.174 460.591 453.468 465.043 446.599C469.495 439.73 470.513 431.081 469.622 422.813C468.223 409.966 461.736 398.39 452.705 389.359C445.582 382.236 435.66 371.551 425.357 369.389C401.062 364.428 378.293 400.934 366.972 417.725C358.322 431.081 351.326 445.582 349.291 461.227Z" fill="white"/>
<path d="M389.868 490.61C389.232 490.61 388.596 490.61 387.96 490.483C384.653 490.229 381.727 488.321 380.201 485.522C377.911 481.325 378.802 476.364 380.201 471.658C381.6 466.57 383.381 461.609 385.289 456.775C381.218 463.008 376.894 468.986 372.314 474.838C369.262 478.781 365.7 482.47 360.994 482.851C356.287 483.233 351.708 480.053 349.546 475.092C347.51 470.513 347.892 465.17 348.401 461.227C350.182 447.108 356.033 432.734 366.209 417.598L367.99 414.926C379.819 397.118 401.825 363.919 425.611 368.753C435.151 370.661 444.055 379.692 451.306 386.815L453.468 388.978C463.262 398.772 469.241 410.474 470.64 422.94C471.403 429.554 471.149 439.222 465.934 447.235C460.973 454.867 451.942 459.192 443.928 457.666C441.002 457.03 438.204 456.012 435.533 454.74C431.335 452.832 427.392 451.178 423.322 452.069C418.488 453.086 414.672 457.411 411.746 464.916C411.11 466.442 410.602 467.969 410.093 469.495C408.058 475.346 405.895 481.452 401.443 485.904C398.518 488.83 394.32 490.61 389.868 490.61ZM394.447 441.511C389.232 451.306 385.034 461.482 381.982 472.039C380.71 476.364 379.819 480.943 381.854 484.505C383.254 486.794 385.543 488.321 388.214 488.575C392.666 489.084 396.991 487.558 400.171 484.505C404.369 480.307 406.404 474.456 408.312 468.859C408.821 467.333 409.457 465.806 409.966 464.28C413.146 456.139 417.47 451.433 422.94 450.288C427.646 449.27 431.971 451.306 436.296 453.086C438.84 454.358 441.511 455.249 444.182 455.885C451.433 457.157 459.574 453.214 464.153 446.218C469.114 438.586 469.368 429.427 468.605 423.067C467.206 410.983 461.482 399.662 451.942 390.25L449.779 388.087C442.783 381.091 434.134 372.314 425.102 370.534C402.588 365.954 381.091 398.39 369.389 415.817L367.608 418.361C357.559 433.37 351.835 447.362 350.054 461.227C349.546 465.043 349.291 469.877 351.072 474.074C352.598 477.636 356.287 481.07 360.612 480.689C364.555 480.434 367.735 477 370.661 473.438C378.802 463.008 386.179 452.069 392.539 440.494C393.048 439.476 393.557 438.586 394.066 437.568C394.32 437.059 394.956 436.932 395.338 437.186C395.846 437.441 395.974 438.077 395.719 438.458C395.465 439.603 394.956 440.621 394.447 441.511Z" fill="#0054A6"/>
<path d="M393.303 444.818L392.158 444.437C394.829 437.059 397.755 429.427 401.825 422.558C406.531 414.799 412.255 409.075 418.87 405.895C424.085 403.351 429.936 402.206 435.66 402.588L435.533 403.86C429.936 403.478 424.339 404.496 419.379 407.04C413.019 410.22 407.422 415.817 402.843 423.322C398.899 429.936 396.101 437.568 393.303 444.818Z" fill="#0054A6"/>
<path d="M248.167 277.296C246.387 280.858 244.987 285.055 247.15 288.235C249.821 292.051 255.927 292.433 261.142 292.051C266.357 291.67 272.335 291.288 275.897 294.468C277.932 296.249 278.695 298.793 279.967 300.955C281.239 303.118 283.529 305.28 286.455 305.153C289.38 305.026 291.415 302.736 293.069 300.828C295.359 298.03 298.157 295.613 301.083 293.705C304.263 291.67 308.079 290.652 311.895 290.906C316.092 291.288 320.163 293.578 324.233 292.56C326.904 291.797 329.067 289.889 330.084 287.345C330.975 285.055 331.229 282.511 330.975 279.967C330.847 272.081 328.558 264.322 324.615 257.453C320.29 250.202 313.548 244.733 305.535 241.807C284.419 234.302 268.138 248.549 256.944 262.922C253.637 267.374 250.584 272.208 248.167 277.296Z" fill="#00AEEF"/>
<path d="M284.801 296.63C280.857 285.437 276.66 270.809 280.221 256.308C280.73 253.637 281.875 251.093 283.529 248.93C285.437 246.514 288.362 245.114 291.415 245.114C294.722 245.242 297.775 247.277 299.174 250.202C300.446 252.874 300.828 255.799 300.573 258.725C299.937 269.918 296.121 280.73 289.253 289.762L288.235 288.998C294.849 280.222 298.665 269.664 299.301 258.725C299.556 256.054 299.174 253.255 298.029 250.838C296.757 248.294 294.213 246.641 291.288 246.514C288.617 246.514 286.073 247.786 284.419 249.821C282.893 251.856 281.875 254.146 281.366 256.562C277.932 270.682 282.002 285.182 285.945 296.122L284.801 296.63Z" fill="#0054A6"/>
<path d="M145.39 568.584C142.337 574.944 142.337 582.194 142.337 589.19C142.337 598.349 143.609 609.542 151.877 613.486C155.057 615.012 158.746 615.139 162.307 615.139L434.007 618.701C442.147 618.828 451.051 618.574 457.03 613.231C464.026 606.871 464.28 596.059 463.899 586.519C463.644 579.142 462.754 570.619 456.648 566.422C452.959 563.878 448.38 563.496 443.928 563.242C359.849 558.662 275.643 556.373 191.309 556.373C176.681 556.373 153.531 552.175 145.39 568.584Z" fill="white"/>
<path d="M436.169 619.718H434.007L162.307 616.157C158.873 616.157 154.93 616.03 151.368 614.376C142.591 610.178 141.319 598.73 141.319 589.19C141.319 582.449 141.319 574.69 144.499 568.075C151.623 553.702 169.303 554.465 183.55 555.101C186.221 555.228 188.892 555.355 191.182 555.355C275.007 555.355 360.103 557.772 443.801 562.224C447.871 562.478 453.087 562.733 457.03 565.531C463.135 569.856 464.28 578.124 464.662 586.392C465.043 596.186 464.916 607.253 457.539 613.867C452.069 618.955 444.055 619.718 436.169 619.718ZM146.28 568.966C143.227 575.198 143.227 582.576 143.227 589.19C143.227 598.094 144.372 608.779 152.259 612.595C155.311 614.122 159 614.122 162.307 614.122L434.007 617.683C442.529 617.81 450.797 617.429 456.394 612.468C463.135 606.362 463.263 595.932 462.881 586.519C462.627 579.269 461.736 571.255 456.012 567.185C452.451 564.768 447.617 564.514 443.801 564.259C360.103 559.68 275.134 557.39 191.309 557.39C188.892 557.39 186.348 557.263 183.55 557.136C169.812 556.5 152.767 555.737 146.28 568.966Z" fill="#0054A6"/>
<path d="M315.329 578.76C309.223 583.594 309.223 594.151 315.074 599.112C320.926 604.073 331.356 602.292 335.172 595.423C342.295 582.958 326.777 569.602 315.329 578.76Z" fill="#0054A6"/>
<path d="M365.573 578.76C359.594 583.594 359.467 594.151 365.318 599.112C371.17 604.073 381.6 602.292 385.416 595.55C392.539 582.958 377.021 569.602 365.573 578.76Z" fill="#0054A6"/>
<path d="M411.238 578.76C405.259 583.594 405.132 594.151 410.983 599.112C416.835 604.073 427.265 602.292 431.081 595.423C438.204 582.958 422.686 569.602 411.238 578.76Z" fill="#0054A6"/>
<path d="M167.523 578.76C161.417 583.594 161.417 594.151 167.268 599.112C173.119 604.073 183.55 602.292 187.366 595.423C194.489 582.958 178.971 569.602 167.523 578.76Z" fill="#0054A6"/>
<path d="M217.767 578.76C211.788 583.594 211.661 594.151 217.512 599.112C223.363 604.073 233.794 602.292 237.61 595.423C244.733 582.958 229.215 569.602 217.767 578.76Z" fill="#0054A6"/>
<path d="M263.559 578.76C257.58 583.594 257.453 594.151 263.304 599.112C269.155 604.073 279.586 602.292 283.402 595.423C290.525 582.958 274.879 569.602 263.559 578.76Z" fill="#0054A6"/>
</svg>
