<svg width="300" height="300" viewBox="0 0 300 300" fill="none" xmlns="http://www.w3.org/2000/svg">
<path d="M106.74 63.18H33.2402C33.5402 60.36 35.8802 58.14 38.7002 58.08C40.3202 58.08 41.8802 58.86 43.6202 58.56C44.1602 58.5 44.7002 58.26 45.1202 57.84C46.6202 56.46 45.6602 54.18 45.6602 52.2C45.6602 48.9 49.3802 46.14 52.5602 47.1C50.2802 43.14 52.3802 37.56 56.4002 35.4C60.4202 33.24 65.7002 34.2 69.3002 37.02C72.7802 34.56 77.5802 35.4 80.0402 38.88C81.7802 41.34 81.9002 44.58 80.4002 47.16C83.4002 47.46 85.5602 50.22 85.2602 53.22C85.0802 54.72 86.1002 56.1 87.6602 56.34C88.1402 56.4 88.6202 56.34 89.0402 56.16H89.1002C90.6002 55.5 91.9202 54.3 93.5402 53.94C94.6202 53.7 95.7602 54 96.6002 54.72C96.9002 55.02 96.9002 55.56 96.6002 55.86C96.3002 56.16 95.8802 56.16 95.5802 55.98C95.5202 55.92 95.4602 55.86 95.4002 55.8C97.3802 56.22 99.0602 57.42 100.14 59.1C101.04 57.3 102.36 55.2 104.46 55.5C104.82 55.56 105.12 55.68 105.42 55.86C107.1 56.82 108.36 58.32 109.56 59.88C110.16 60.6 110.04 61.68 109.32 62.22C109.02 62.46 108.66 62.58 108.3 62.58C108.18 62.7 108.12 62.76 108 62.88C108 62.88 107.94 62.94 107.88 63C107.52 63.12 107.16 63.24 106.74 63.18Z" fill="#71BF44"/>
<path d="M186.601 40.14H153.601L153.721 38.7C154.261 38.1 155.101 37.98 155.881 37.8C156.661 37.62 157.561 37.26 157.741 36.48C157.861 36.06 157.741 35.58 157.921 35.16C158.101 34.62 158.521 34.26 159.061 34.08C159.601 33.9 160.141 33.9 160.681 33.96C160.441 33.24 161.161 32.52 161.881 32.46C162.601 32.46 163.381 32.7 163.981 33.12C163.861 31.98 164.581 30.9 165.721 30.54C166.201 30.48 166.621 30.36 167.101 30.24C167.641 30 168.001 29.4 168.481 29.04C169.501 28.26 170.941 28.32 171.901 29.22C172.021 28.68 172.501 28.26 173.041 28.26C173.581 28.26 174.121 28.38 174.601 28.68C175.441 29.04 176.161 29.52 176.761 30.18C177.361 30.84 177.541 31.8 177.301 32.64C178.321 33 178.861 34.08 178.501 35.1C178.501 35.16 178.441 35.22 178.441 35.28C178.141 35.82 177.541 36.48 177.901 36.96C178.321 37.56 179.401 36.96 180.061 37.32C180.361 37.5 180.541 37.86 180.901 37.92C181.261 37.98 181.681 37.56 182.101 37.56C182.701 37.56 183.001 38.22 183.481 38.58C184.021 38.82 184.561 38.94 185.161 38.88C185.521 39 186.481 39.6 186.601 40.14Z" fill="#71BF44"/>
<path d="M144.78 131.94H268.62C269.94 129.84 268.02 126.84 265.8 125.64C263.58 124.44 261 124.26 258.72 123.3C256.44 122.34 254.58 120.48 252.36 119.28C250.14 118.08 247.26 117.54 245.28 119.1C248.88 116.82 249.96 112.08 247.68 108.48C246.06 105.9 243.12 104.52 240.12 104.94C241.5 100.5 238.98 95.76 234.54 94.38C233.4 94.02 232.26 93.9 231.06 94.08C231.48 90.12 227.52 86.94 223.62 86.22C215.64 84.72 207.96 89.94 206.46 97.92C206.16 99.36 206.16 100.86 206.28 102.36C201.9 102.42 198.24 105.78 197.76 110.16C197.64 111.72 197.94 113.52 196.98 114.78C195.78 116.46 193.14 116.28 191.4 115.2C189.66 114.12 188.34 112.5 186.66 111.3C184.98 110.1 182.46 109.62 180.96 111.06C177.12 106.02 169.92 105.12 164.88 108.96C161.28 111.72 159.66 116.28 160.68 120.66C158.16 121.68 156.36 123.9 155.76 126.54L153.06 127.62C150 125.7 146.88 125.28 145.92 128.76C146.4 128.16 144.54 132.48 144.78 131.94Z" fill="#71BF44"/>
<path d="M41.7005 162.42C38.6405 166.98 37.2005 172.38 36.1205 177.72C34.8005 184.2 34.0805 190.98 35.4005 197.46C36.7205 203.94 40.5005 210.18 46.3205 213.3C52.1405 216.42 60.2405 215.64 64.5605 210.6C67.6205 207 68.4005 202.08 68.9405 197.4C70.0805 187.68 74.1605 170.34 69.1805 161.1C63.1805 149.88 47.7605 153.3 41.7005 162.42Z" fill="white"/>
<path d="M53.8204 215.64C51.1204 215.64 48.4804 214.98 46.0804 213.78C40.5604 210.84 36.4204 204.84 34.9204 197.58C33.4204 190.32 34.5004 183.18 35.6404 177.66C36.6004 172.74 38.0404 167.04 41.2804 162.18C44.9404 156.72 51.6604 153.3 58.0804 153.6C62.9404 153.78 67.3804 156.6 69.6004 160.92C73.6804 168.54 71.7004 181.68 70.2604 191.28C69.9004 193.5 69.6004 195.66 69.4204 197.46C68.8804 202.26 68.0404 207.24 64.9204 210.96C62.2804 214.02 58.1404 215.64 53.8204 215.64ZM42.0604 162.72C38.9404 167.46 37.5004 173.04 36.5404 177.84C35.4604 183.3 34.3804 190.44 35.8204 197.4C37.2604 204.36 41.2804 210.18 46.5004 213C52.4404 216.18 60.2404 215.04 64.1404 210.42C67.1404 206.94 67.9204 202.08 68.4604 197.46C68.7004 195.6 69.0004 193.5 69.3604 191.22C70.8004 181.74 72.7804 168.78 68.8204 161.4C66.7204 157.32 62.5804 154.68 58.0204 154.56C52.0204 154.26 45.4804 157.62 42.0604 162.72Z" fill="#231F20"/>
<path d="M102.24 264.06C103.2 266.82 104.4 269.52 103.98 271.98C103.38 275.94 98.7005 278.1 93.9605 277.74C89.5205 277.38 85.0205 275.04 81.7205 272.1C78.4805 269.1 75.9005 265.5 74.0405 261.54C69.7205 252.72 67.5605 242.22 65.5805 229.98C64.9205 225.78 64.2605 220.98 65.5805 216.9C67.8605 210.06 74.7605 208.2 81.2405 208.86C85.0205 209.22 98.7605 208.02 101.4 211.68C104.58 216.18 100.08 226.86 99.5405 231.66C98.0405 244.2 99.0605 255 102.24 264.06Z" fill="white"/>
<path d="M95.2807 278.22C94.8607 278.22 94.4407 278.22 94.0207 278.16C89.8207 277.8 85.1407 275.64 81.4807 272.4C78.1807 269.4 75.5407 265.74 73.6807 261.72C69.5407 253.32 67.3807 243.36 65.1607 230.04C64.4407 225.54 63.8407 220.8 65.2207 216.78C67.2607 210.78 73.2607 207.6 81.3607 208.44C82.2607 208.5 83.7607 208.5 85.5607 208.5C91.5607 208.5 99.7207 208.5 101.881 211.44C104.281 214.8 102.601 221.34 101.221 226.62C100.741 228.3 100.381 229.98 100.081 231.72C98.5807 243.84 99.4807 254.64 102.781 263.94C102.901 264.3 103.021 264.66 103.141 265.02C103.981 267.42 104.881 269.82 104.521 272.1C103.981 275.16 100.621 278.22 95.2807 278.22ZM78.9007 209.16C72.4807 209.16 67.7407 212.04 66.0607 217.02C64.7407 220.92 65.3407 225.48 66.0607 229.86C68.2207 243.12 70.3807 252.96 74.4607 261.3C76.6207 265.68 79.1407 269.1 82.0207 271.74C85.5607 274.86 90.0007 276.96 94.0207 277.32C99.4207 277.8 103.081 274.98 103.561 271.98C103.861 269.94 103.081 267.72 102.181 265.32C102.061 264.96 101.941 264.6 101.821 264.24C98.5207 254.82 97.6207 243.84 99.1207 231.6C99.4207 229.86 99.7807 228.12 100.261 226.38C101.581 221.28 103.261 214.98 101.041 211.92C99.1807 209.34 90.6007 209.34 85.4407 209.34C83.6407 209.34 82.0807 209.34 81.1807 209.28C80.4607 209.22 79.6807 209.16 78.9007 209.16Z" fill="#231F20"/>
<path d="M137.161 150.12C148.861 144.6 159.361 136.86 169.321 128.58C175.681 123.3 182.701 117.48 190.981 117.9C197.221 118.2 202.741 122.22 206.341 127.32C209.941 132.42 211.801 138.48 213.361 144.48C220.021 170.28 221.701 197.76 215.161 223.56C212.761 233.04 208.681 242.94 200.221 247.8C192.061 252.48 181.621 251.16 173.041 247.44C164.461 243.72 157.021 237.66 148.981 232.74C138.541 226.38 127.141 221.76 115.201 219.24C109.561 218.04 103.561 217.14 98.9407 213.72C93.1207 209.4 90.6007 202.02 88.7407 195C86.8807 187.92 85.2607 180.48 86.4007 173.28C87.1807 168.24 89.5207 162.96 93.4807 159.6C97.2607 156.36 99.4807 157.62 103.921 157.92C115.081 158.7 127.141 154.8 137.161 150.12Z" fill="white"/>
<path d="M188.041 251.28C182.761 251.22 177.601 250.02 172.801 247.8C166.981 245.28 161.641 241.62 156.421 238.14C153.901 236.46 151.321 234.66 148.681 233.1C138.301 226.74 126.961 222.18 115.081 219.6C114.361 219.42 113.641 219.3 112.861 219.12C107.881 218.1 102.721 217.02 98.5809 214.02C92.7609 209.7 90.1809 202.38 88.2009 195.06C86.4609 188.46 84.6609 180.78 85.8609 173.1C86.7609 167.4 89.4009 162.3 93.0609 159.18C96.2409 156.48 98.4009 156.78 101.401 157.14C102.181 157.26 102.961 157.32 103.861 157.38C115.801 158.28 128.401 153.66 136.921 149.64C149.701 143.64 160.741 135 168.961 128.16C175.261 122.88 182.461 116.94 190.921 117.36C196.741 117.66 202.621 121.26 206.641 126.96C210.241 132.12 212.161 138.3 213.721 144.3C220.921 172.32 221.521 199.74 215.521 223.62C212.341 236.28 207.541 244.08 200.401 248.16C196.621 250.26 192.361 251.34 188.041 251.28ZM98.7009 157.8C97.0809 157.8 95.5809 158.22 93.6609 159.9C90.1209 162.9 87.6009 167.82 86.7609 173.28C85.5609 180.72 87.3609 188.34 89.0409 194.82C90.9609 201.96 93.4809 209.16 99.0609 213.3C103.021 216.24 108.061 217.26 112.981 218.28L115.201 218.76C127.201 221.34 138.661 225.9 149.101 232.32C151.741 233.94 154.381 235.68 156.901 237.42C162.061 240.9 167.401 244.5 173.101 247.02C183.001 251.34 192.721 251.52 199.861 247.44C206.761 243.48 211.441 235.86 214.561 223.5C220.561 199.74 219.961 172.5 212.761 144.6C211.021 137.82 209.161 132.3 205.861 127.56C201.961 122.04 196.381 118.62 190.861 118.32C182.761 117.9 175.741 123.78 169.561 128.94C161.281 135.84 150.181 144.48 137.341 150.54C128.761 154.62 115.921 159.24 103.801 158.34C102.901 158.28 102.061 158.16 101.281 158.04C100.501 157.86 99.6009 157.8 98.7009 157.8Z" fill="#231F20"/>
<path d="M109.321 215.76C108.901 218.64 108.301 221.64 105.901 223.5C101.881 226.62 94.6208 225.36 88.3808 223.98C75.7808 221.16 61.8008 217.56 53.4608 208.62C45.1208 199.68 45.4208 188.7 46.0808 178.86C46.5608 172.14 47.2808 164.94 52.9208 160.8C57.0608 157.74 63.1208 156.9 69.0608 156.3C78.7808 155.4 88.5008 155.04 98.2808 155.22C102.601 155.28 105.901 154.5 108.181 157.74C110.161 160.56 109.621 166.86 109.921 169.86C111.721 185.1 111.541 200.52 109.321 215.76Z" fill="#71BF44"/>
<path d="M193.26 239.64C190.98 239.64 188.82 238.74 187.2 237.12C184.5 234.42 183.6 230.58 182.82 226.62C177.24 198.48 172.74 168.3 177.78 138.18C178.62 133.26 179.88 128.28 183.42 124.98C185.7 122.94 188.76 121.98 191.82 122.4C193.98 122.64 195.9 123.84 197.1 125.7C197.34 126.12 197.22 126.66 196.8 126.96C196.38 127.2 195.84 127.08 195.54 126.66C194.64 125.28 193.2 124.38 191.58 124.2C189.06 123.9 186.6 124.62 184.68 126.3C181.5 129.24 180.36 133.92 179.58 138.48C174.6 168.24 179.04 198.3 184.56 226.26C185.34 230.1 186.12 233.46 188.46 235.86C189.84 237.24 191.76 237.9 193.68 237.84C194.88 237.78 196.02 237.24 196.8 236.28C197.1 235.92 197.7 235.86 198.06 236.16C198.42 236.46 198.48 236.94 198.24 237.36C197.16 238.74 195.54 239.58 193.8 239.64C193.68 239.64 193.44 239.64 193.26 239.64Z" fill="#231F20"/>
<path d="M192.24 200.88C191.04 200.88 189.9 200.58 188.88 200.04C188.46 199.8 188.28 199.26 188.52 198.84C188.76 198.42 189.3 198.24 189.72 198.48C192.48 199.98 196.14 198.54 198.06 196.26C200.4 193.5 201 189.6 201.3 186.96C201.84 181.8 201.54 176.58 200.4 171.54C199.26 166.56 197.46 163.08 194.94 160.86C192.18 158.46 187.44 157.44 184.32 159.84C183.96 160.14 183.36 160.08 183.06 159.72C182.76 159.36 182.82 158.76 183.18 158.46C183.18 158.46 183.18 158.46 183.24 158.4C187.2 155.28 192.84 156.66 196.14 159.48C199.02 161.94 201 165.78 202.2 171.12C203.4 176.4 203.7 181.8 203.16 187.14C202.86 190.08 202.14 194.28 199.5 197.46C197.64 199.56 195 200.82 192.24 200.88Z" fill="#231F20"/>
<path d="M99.3005 273.96C99.0605 273.96 98.7605 273.84 98.6405 273.66C88.2005 261.12 84.0605 244.5 87.3605 228.54C87.4805 228.06 87.9605 227.76 88.4405 227.88C88.9205 228 89.2205 228.48 89.1005 228.9C85.9205 244.32 89.8805 260.34 99.9605 272.46C100.261 272.82 100.261 273.42 99.8405 273.72C99.7205 273.9 99.5405 273.96 99.3005 273.96Z" fill="#231F20"/>
<path d="M65.7003 123.78C66.3003 124.98 66.7803 126.6 65.7603 127.44C64.7403 128.28 63.2403 127.56 62.1603 126.78L55.2003 121.92C49.5003 123.24 43.5603 122.52 38.3403 119.88C35.2203 118.32 32.3403 115.86 31.3203 112.5C30.0603 108.3 32.1603 103.74 35.2203 100.62C42.0003 93.72 53.9403 92.64 61.8603 98.16C64.9803 100.38 67.6203 103.68 67.9203 107.52C68.2803 111.66 65.6403 114.48 62.1603 116.16C63.0003 118.8 64.5003 121.32 65.7003 123.78Z" fill="#71BF44"/>
<path d="M39.9604 109.56C39.0004 107.46 38.8804 104.52 40.8004 103.2C42.1204 102.36 43.8604 102.54 45.2404 103.32C46.5604 104.16 47.6404 105.3 48.5404 106.56C48.7804 104.04 50.1004 101.46 52.3804 100.38C54.6604 99.3 57.9004 100.38 58.6204 102.84C59.0404 104.28 58.5604 105.84 57.9604 107.22C56.7004 110.22 53.5204 117.18 49.9204 117.78C46.3204 118.38 41.2804 112.44 39.9604 109.56Z" fill="white"/>
<path d="M49.3801 118.32C45.4201 118.32 40.7401 112.2 39.6001 109.74C38.5201 107.4 38.4601 104.28 40.5601 102.84C42.0601 101.94 43.9801 102 45.4801 102.96C46.5601 103.62 47.4601 104.52 48.2401 105.48C48.6601 103.38 49.8601 101.04 52.2001 100.02C53.6401 99.42 55.2601 99.42 56.6401 100.08C57.7801 100.56 58.6801 101.52 59.0401 102.72C59.5201 104.34 58.9801 105.96 58.3801 107.4C55.5601 114.12 52.7401 117.78 49.9801 118.26C49.7401 118.32 49.5601 118.32 49.3801 118.32ZM40.3801 109.32C41.8201 112.38 46.6201 117.9 49.8601 117.36C52.2001 117 54.9001 113.28 57.5401 107.04C58.0801 105.78 58.5601 104.28 58.2001 102.96C57.9001 102 57.1801 101.22 56.2801 100.86C55.0801 100.32 53.7601 100.32 52.5601 100.8C50.6401 101.7 49.2001 103.98 48.9601 106.56C48.9601 106.74 48.8401 106.92 48.6601 106.98C48.4801 107.04 48.3001 106.98 48.1801 106.8C47.3401 105.54 46.2601 104.52 45.0001 103.68C43.9201 103.02 42.2401 102.72 41.0401 103.56C39.3601 104.7 39.4201 107.4 40.3801 109.32Z" fill="#231F20"/>
<path d="M99.2403 108.96C99.8403 110.4 101.4 111.24 102.9 111.48C104.46 111.6 106.02 111.42 107.46 111C127.5 106.26 147.18 99.78 165.84 91.02C166.38 90.78 166.98 90.42 167.16 89.82C167.22 89.4 167.1 88.92 166.92 88.56C165.66 85.74 164.46 82.92 163.2 80.1C163.56 80.88 138 91.74 135.66 92.7C131.04 94.56 126.36 96.24 121.62 97.86C117.12 99.42 112.08 101.7 107.34 102.18C105.42 102.36 103.92 102.12 102.18 103.14C100.2 104.22 98.2803 106.56 99.2403 108.96Z" fill="#231F20"/>
<path d="M167.7 77.22C166.38 78.06 165.12 79.02 164.04 80.16C162.96 81.3 162.36 82.86 162.48 84.48C162.78 85.92 163.5 87.18 164.52 88.14C166.44 90.18 168.84 91.8 171.42 92.82C172.5 93.24 173.82 93.54 174.84 93.06C175.86 92.58 176.34 90.84 175.32 90.18C177 91.86 180 91.38 181.62 89.64C183.24 87.9 183.48 85.26 182.88 82.98C182.28 80.7 181.02 78.72 179.7 76.74C182.88 74.4 185.4 71.28 186.96 67.62C187.5 66.42 187.86 65.04 187.56 63.78C186.96 61.44 185.16 61.32 183.78 62.7C182.1 64.38 180.6 66.3 178.86 67.98C175.44 71.34 171.66 74.46 167.7 77.22Z" fill="white"/>
<path d="M173.64 93.72C172.86 93.66 172.08 93.54 171.3 93.18C168.6 92.16 166.2 90.54 164.22 88.44C163.38 87.54 162.24 86.22 162.06 84.48C161.94 82.74 162.54 81.06 163.74 79.8C164.76 78.72 165.9 77.82 167.16 76.98L167.52 76.74C171.48 73.98 175.2 70.92 178.62 67.5C179.52 66.66 180.3 65.7 181.14 64.8C181.98 63.9 182.7 63.06 183.54 62.22C184.2 61.44 185.28 61.08 186.24 61.26C187.08 61.5 187.74 62.28 188.04 63.48C188.4 64.98 187.92 66.48 187.44 67.62C185.94 71.22 183.48 74.34 180.42 76.68C181.74 78.72 182.88 80.58 183.42 82.68C184.08 85.38 183.6 88.02 182.04 89.76C181.08 90.84 179.7 91.44 178.26 91.5C177.66 91.5 177.06 91.44 176.46 91.2V91.26C176.4 92.1 175.92 92.88 175.14 93.3C174.66 93.6 174.12 93.72 173.64 93.72ZM185.64 62.22C185.04 62.28 184.5 62.52 184.14 63C183.3 63.84 182.52 64.68 181.8 65.52C181.08 66.36 180.12 67.38 179.28 68.22C175.8 71.64 172.02 74.76 168.06 77.58L167.7 77.82C166.5 78.54 165.42 79.44 164.46 80.46C163.44 81.54 162.9 82.92 163.02 84.42C163.14 85.5 163.74 86.58 164.94 87.84C166.8 89.82 169.14 91.38 171.72 92.4C172.56 92.76 173.82 93.12 174.78 92.64C175.26 92.4 175.56 91.86 175.56 91.38C175.56 91.14 175.5 90.96 175.44 90.78C175.32 90.72 175.26 90.6 175.14 90.54C174.96 90.36 174.96 90.12 175.08 89.94C175.2 89.76 175.5 89.7 175.68 89.82C175.8 89.88 175.92 90 176.04 90.12C176.7 90.6 177.48 90.84 178.26 90.78C179.46 90.78 180.6 90.24 181.38 89.34C182.7 87.9 183.12 85.5 182.52 83.1C181.98 81 180.78 79.08 179.4 76.98C179.28 76.8 179.34 76.5 179.52 76.38C182.64 74.1 185.1 71.04 186.6 67.44C187.02 66.42 187.5 65.1 187.2 63.84C186.96 63 186.6 62.4 186 62.28C185.82 62.28 185.7 62.22 185.64 62.22Z" fill="#231F20"/>
<path d="M174.96 90C174.78 90 174.66 89.88 174.66 89.76C174.48 88.74 174.18 87.78 173.76 86.88C173.64 86.64 173.52 86.4 173.46 86.1C173.04 85.08 172.56 83.52 172.98 82.08C173.4 80.64 174.54 79.74 175.74 78.9C176.94 78.06 178.26 77.28 179.58 76.56C179.7 76.5 179.88 76.56 180 76.68C180.06 76.8 180 76.98 179.88 77.1C178.56 77.76 177.36 78.54 176.16 79.38C175.08 80.16 174 81 173.64 82.26C173.28 83.52 173.7 84.84 174.12 85.86C174.24 86.1 174.3 86.34 174.42 86.58C174.9 87.54 175.2 88.56 175.38 89.64C175.32 89.82 175.2 89.94 174.96 90C175.02 90 175.02 90 174.96 90Z" fill="#231F20"/>
<path d="M179.88 85.92C179.76 85.92 179.64 85.86 179.58 85.74C179.1 84.54 178.26 83.46 177.18 82.74C176.82 82.5 176.46 82.32 176.04 82.26C175.68 82.2 175.26 82.32 175.02 82.62C174.9 82.74 174.72 82.8 174.6 82.68C174.48 82.56 174.48 82.38 174.54 82.26C174.9 81.84 175.5 81.6 176.04 81.66C176.58 81.72 177.06 81.96 177.48 82.26C178.68 83.04 179.58 84.18 180.12 85.5C180.18 85.68 180.12 85.8 179.94 85.86L179.88 85.92Z" fill="#231F20"/>
<path d="M71.3997 153C70.4997 156.36 69.7797 160.38 72.0597 163.08C73.8597 165.24 76.8597 165.78 79.6197 166.02C84.8997 166.5 90.2397 166.38 95.5197 165.66C99.8397 165.06 104.4 163.86 107.04 160.44C109.86 156.72 109.56 151.62 109.08 147L105.78 112.98C105.36 108.54 104.04 98.58 97.6797 103.2C93.1197 106.5 89.5197 113.52 86.5797 118.26C79.9197 129 74.7597 140.76 71.3997 153Z" fill="white"/>
<path d="M86.0401 166.74C83.8801 166.74 81.7201 166.62 79.5601 166.44C76.7401 166.2 73.5601 165.6 71.7001 163.32C69.3001 160.44 70.0201 156.18 70.9801 152.82C74.3401 140.52 79.5001 128.76 86.2801 117.96C86.8201 117.12 87.3601 116.16 87.9601 115.2C90.6601 110.7 93.7201 105.54 97.5001 102.78C99.2401 101.52 100.74 101.16 102.06 101.76C105 103.08 105.9 108.72 106.26 112.86L109.56 146.88C110.04 151.8 110.28 156.9 107.4 160.68C104.52 164.46 99.2401 165.6 95.5801 166.08C92.4001 166.56 89.2201 166.74 86.0401 166.74ZM71.4001 153L71.8201 153.12C70.9801 156.3 70.2601 160.26 72.3601 162.78C74.0401 164.82 76.9801 165.3 79.6201 165.54C84.9001 166.02 90.1801 165.9 95.4601 165.18C99.0001 164.7 103.98 163.68 106.68 160.14C109.38 156.6 109.14 151.92 108.66 147L105.36 112.98C104.76 106.92 103.56 103.44 101.64 102.6C100.68 102.18 99.4201 102.48 97.9801 103.5C94.3201 106.14 91.2001 111.42 88.6801 115.68C88.0801 116.64 87.5401 117.6 87.0001 118.44C80.2801 129.18 75.1801 140.88 71.8201 153.06L71.4001 153Z" fill="#231F20"/>
<path d="M100.14 152.82C105 154.14 107.94 158.94 109.98 163.56C114.84 174.42 117.48 186.18 117.72 198.12L113.7 198.9C112.86 189.48 110.04 180.3 105.42 172.08C103.74 169.14 101.46 166.02 98.1003 165.6C96.0603 165.36 94.0803 166.14 92.2803 167.1C89.3403 168.6 85.8603 171.06 82.4403 169.5C79.2003 168.06 78.9603 165.36 80.7003 162.78C84.3603 157.5 93.5403 151.08 100.14 152.82Z" fill="#231F20"/>
<path d="M109.08 136.26C110.52 134.52 112.14 132.84 114.3 132.12C118.44 130.74 122.94 133.5 125.46 136.98C127.98 140.46 129.3 144.78 131.58 148.5L126.24 151.14C124.92 148.86 124.56 146.22 123.48 143.82C122.4 141.42 120 139.32 117.42 139.8C114.84 140.28 113.52 143.22 112.68 145.74L109.56 154.68C108.96 156.42 108.24 158.28 106.68 159.36C101.34 162.9 97.2 154.86 99.24 150.6C100.26 148.5 102.48 146.88 103.74 144.9C105.6 142.02 106.92 138.96 109.08 136.26Z" fill="#231F20"/>
<path d="M101.04 117.54C110.88 129.18 123.42 138.3 137.52 144.06L142.56 133.68C141.78 135.36 126.36 128.46 124.8 127.62C119.22 124.68 114.12 120.96 109.68 116.52C107.16 114 102.54 105.66 98.9999 105C92.6399 103.86 99.5399 115.74 101.04 117.54Z" fill="#231F20"/>
<path d="M154.62 142.62C155.64 140.94 156.24 138.96 157.62 137.58C159.3 135.96 161.82 135.66 164.1 135.18C166.38 134.7 168.9 133.68 169.74 131.52C170.58 129.36 169.38 126.84 167.52 125.58C165.66 124.32 163.2 124.14 160.92 124.38C155.34 125.04 150.36 128.04 145.86 131.34C141.78 134.28 133.92 139.2 139.2 144.66C143.52 149.28 151.5 147.72 154.62 142.62Z" fill="white"/>
<path d="M145.74 147.84C143.16 147.9 140.64 146.82 138.84 144.96C137.46 143.52 136.86 141.96 136.98 140.4C137.34 136.8 141.6 133.74 144.72 131.52L145.62 130.92C149.94 127.8 155.1 124.56 160.92 123.9C163.74 123.6 166.08 124.02 167.82 125.16C170.1 126.66 171.12 129.42 170.22 131.64C169.44 133.56 167.46 134.88 164.22 135.54L163.32 135.72C161.34 136.14 159.3 136.56 157.92 137.88C157.08 138.78 156.42 139.86 156 141C155.7 141.66 155.4 142.26 155.04 142.86C153.24 145.68 150.24 147.54 146.88 147.84C146.52 147.84 146.1 147.84 145.74 147.84ZM162.66 124.74C162.12 124.74 161.58 124.8 161.04 124.86C155.4 125.52 150.36 128.7 146.16 131.7L145.26 132.3C142.26 134.4 138.18 137.34 137.88 140.52C137.76 141.84 138.3 143.1 139.5 144.36C141.42 146.28 144.12 147.24 146.76 146.88C149.82 146.58 152.58 144.9 154.2 142.32C154.56 141.78 154.86 141.12 155.16 140.52C155.64 139.26 156.42 138.12 157.32 137.16C158.88 135.66 161.04 135.24 163.14 134.82L164.04 134.64C166.92 134.04 168.72 132.9 169.38 131.28C170.16 129.3 168.96 127.02 167.28 125.94C165.9 125.04 164.28 124.62 162.66 124.74Z" fill="#231F20"/>
<path d="M114.66 204.24C116.76 206.58 119.04 208.98 121.68 210.6C122.34 211.02 123.18 210.84 123.6 210.18C123.84 209.82 123.9 209.4 123.72 208.98C123.18 207.48 122.7 205.98 122.46 205.56C121.32 203.34 119.94 200.46 118.02 198.72C113.1 194.34 111.06 200.28 114.66 204.24Z" fill="#71BF44"/>
<path d="M127.081 154.32C127.681 154.56 128.401 154.62 129.061 154.38C132.661 153.54 136.321 152.7 139.261 150.54C139.801 150.18 140.341 149.58 140.101 148.92C139.861 148.26 139.021 148.2 138.361 148.2L132.841 148.32C131.641 148.32 129.781 148.08 128.641 148.56C127.141 149.28 125.161 153.24 127.081 154.32Z" fill="#71BF44"/>
<path d="M75.1803 77.22C74.8203 79.08 75.3603 80.94 76.5603 82.38C77.7603 83.76 79.3203 84.9 81.0603 85.56C85.3203 87.42 90.1803 87.78 94.6803 86.46C96.6603 85.92 98.7003 84.9 99.4803 82.98C100.5 80.52 99.0003 77.76 97.2003 75.84C94.4403 72.96 89.9403 69.84 85.8003 70.62C82.0203 71.34 76.0803 73.02 75.1803 77.22Z" fill="#231F20"/>
<path d="M118.26 76.5C119.52 83.7 119.7 91.2 117.66 98.22C116.88 100.92 115.32 103.92 112.5 104.34C110.1 104.7 107.94 102.96 106.14 101.34C102 97.5 97.9801 93.42 94.9201 88.68C91.8601 83.94 89.7001 78.48 89.5801 72.78C89.4601 67.08 91.5601 61.32 95.7601 57.54C99.3001 54.42 108.18 51.12 111.96 55.56C113.88 57.78 114.48 62.4 115.38 65.16C116.58 68.88 117.54 72.66 118.26 76.5Z" fill="white"/>
<path d="M111.84 104.82C109.62 104.82 107.64 103.32 105.84 101.64C102.06 98.16 97.7997 93.96 94.5597 88.92C91.1397 83.64 89.2797 78.06 89.1597 72.78C89.0397 66.66 91.3797 60.84 95.5197 57.18C98.0997 54.9 103.26 52.62 107.4 52.92C109.32 52.98 111.12 53.76 112.38 55.2C113.82 56.94 114.6 59.88 115.2 62.52C115.44 63.42 115.62 64.26 115.86 64.98C117.06 68.7 118.02 72.54 118.74 76.38C120.18 84.54 120 91.92 118.14 98.28C117.48 100.44 115.92 104.22 112.62 104.7C112.32 104.82 112.08 104.82 111.84 104.82ZM106.62 53.82C102.84 53.82 98.3997 55.8 96.1197 57.84C92.2197 61.32 89.9397 66.9 90.0597 72.72C90.1797 77.82 91.9797 83.22 95.3397 88.38C98.5797 93.36 102.78 97.5 106.5 100.98C108.3 102.66 110.34 104.22 112.44 103.86C115.26 103.44 116.64 100.08 117.24 98.1C119.1 91.86 119.28 84.6 117.84 76.62C117.12 72.78 116.16 69.06 115.02 65.34C114.78 64.62 114.6 63.72 114.36 62.82C113.76 60.3 113.04 57.42 111.72 55.86C110.58 54.6 109.02 53.88 107.4 53.88C107.1 53.82 106.86 53.82 106.62 53.82Z" fill="#231F20"/>
<path d="M85.5603 67.86C85.4403 70.56 85.8603 73.86 88.3203 74.88C89.7603 75.48 91.4403 75.12 92.9403 74.64C110.82 68.7 121.32 50.22 117.3 31.8C116.58 28.44 114.54 22.2 110.22 22.2C106.68 22.2 103.5 26.46 101.46 28.8C95.3403 35.76 90.8403 43.98 88.2003 52.86C86.7003 57.72 85.8003 62.76 85.5603 67.86Z" fill="#231F20"/>
<path d="M105.06 80.52C104.82 79.86 104.22 79.14 103.5 79.32C103.02 79.5 102.66 80.04 102.72 80.58C102.78 81.12 103.02 81.6 103.26 82.02C103.44 82.32 103.62 82.56 103.86 82.8C104.16 83.16 104.76 83.16 105.12 82.86C105.36 82.68 105.42 82.38 105.42 82.08C105.36 81.66 105.24 81.3 105.06 80.94" fill="#231F20"/>
<path d="M110.1 76.92C110.04 76.44 109.62 76.02 109.14 76.08C109.02 76.08 108.9 76.14 108.84 76.14C108.42 76.44 108.24 76.92 108.36 77.4C108.48 77.88 108.72 78.3 109.02 78.66C109.2 78.96 109.5 79.26 109.8 79.5C110.1 79.68 110.58 79.68 110.82 79.38C111 79.02 111 78.6 110.76 78.24C110.52 77.88 110.4 77.52 110.4 77.1" fill="#231F20"/>
<path d="M106.86 92.16C106.44 91.98 105.96 91.98 105.54 92.22C104.94 92.64 105.12 93.48 105.42 94.14C105.96 95.64 106.92 97.02 108.18 97.98C109.5 98.94 111.36 99.18 112.68 98.28C118.02 94.74 108.6 92.64 106.86 92.16Z" fill="#231F20"/>
<path d="M148.56 133.98C148.5 133.98 148.44 133.98 148.38 133.92C148.26 133.8 148.26 133.62 148.38 133.5C153.3 128.16 160.2 125.1 167.46 125.04C167.64 125.04 167.76 125.16 167.76 125.34C167.76 125.52 167.64 125.64 167.46 125.64C160.38 125.7 153.66 128.7 148.8 133.92C148.74 133.92 148.68 133.98 148.56 133.98Z" fill="#231F20"/>
<path d="M233.1 157.38L238.38 172.5C229.74 168.06 220.2 165.6 210.54 165.18C212.82 168.72 214.68 172.44 216.12 176.4C209.88 175.86 203.58 176.16 197.4 177.3C205.56 178.08 213.54 180.12 221.04 183.36C220.98 179.64 220.2 175.98 218.7 172.56C227.4 175.32 235.68 179.34 243.24 184.5C244.44 180 244.44 175.32 243.24 170.82C248.04 173.46 252.06 176.94 256.56 179.88C257.46 177.54 258.78 173.88 258.72 171.3C258.66 168.48 255.78 166.98 253.62 165.6C250.44 163.56 247.08 161.88 243.54 160.5C241.8 159.78 240 159.18 238.2 158.7C237.66 158.46 233.16 157.68 233.1 157.38Z" fill="#231F20"/>
<path d="M221.701 185.82C223.201 190.62 224.341 195.54 225.001 200.52C219.601 196.14 213.481 192.78 206.881 190.5C215.761 197.82 223.321 206.52 229.381 216.24C230.161 211.62 230.341 206.94 229.981 202.26L245.821 215.28C244.021 213.54 242.761 210 241.381 207.9C239.521 205.2 237.601 202.56 235.501 199.98C231.361 194.88 226.741 190.14 221.701 185.82Z" fill="#231F20"/>
<path d="M199.92 147.12C205.02 147.36 210.12 147.96 215.16 148.98C209.4 152.52 204.3 157.08 200.16 162.42C209.94 156.6 220.56 152.46 231.66 150.18C227.4 147.9 222.9 146.1 218.28 144.9L235.56 134.58C233.34 135.66 229.56 135.6 227.1 136.26C223.92 137.04 220.8 138 217.68 139.02C211.56 141.18 205.62 143.88 199.92 147.12Z" fill="#231F20"/>
</svg>
