<svg width="24" height="24" viewBox="0 0 24 24" fill="none" xmlns="http://www.w3.org/2000/svg">
<path d="M2.57438 8.12438L19.08 3.06188C19.3034 2.99672 19.5389 2.98443 19.7679 3.02599C19.9968 3.06754 20.213 3.16181 20.3993 3.30131C20.5855 3.44082 20.7367 3.62176 20.841 3.8298C20.9453 4.03784 20.9997 4.26729 21 4.5V18C21 18.3978 20.842 18.7794 20.5607 19.0607C20.2794 19.342 19.8978 19.5 19.5 19.5C19.3566 19.5001 19.2139 19.4795 19.0762 19.4391L11.25 17.0372V18C11.25 18.3978 11.092 18.7794 10.8107 19.0607C10.5294 19.342 10.1478 19.5 9.75 19.5H6.75C6.35218 19.5 5.97064 19.342 5.68934 19.0607C5.40804 18.7794 5.25 18.3978 5.25 18V15.1969L2.57438 14.3766C2.26471 14.2835 1.99313 14.0934 1.79969 13.8343C1.60626 13.5752 1.5012 13.2608 1.5 12.9375V9.5625C1.5014 9.23932 1.60655 8.92514 1.79997 8.66623C1.9934 8.40732 2.26486 8.21737 2.57438 8.12438ZM11.25 15.4688L19.5 18V4.5L11.25 7.03125V15.4688ZM6.75 18H9.75V16.5769L6.75 15.6563V18ZM3 12.9375H3.01031L9.75 15.0075V7.4925L3.01031 9.555H3V12.93V12.9375Z" fill="white"/>
</svg>
