<svg width="16" height="16" viewBox="0 0 16 16" fill="none" xmlns="http://www.w3.org/2000/svg">
<path d="M13.3535 6.35375L8.35354 11.3537C8.3071 11.4002 8.25196 11.4371 8.19126 11.4623C8.13056 11.4874 8.0655 11.5004 7.99979 11.5004C7.93408 11.5004 7.86902 11.4874 7.80832 11.4623C7.74762 11.4371 7.69248 11.4002 7.64604 11.3537L2.64604 6.35375C2.55222 6.25993 2.49951 6.13268 2.49951 6C2.49951 5.86732 2.55222 5.74007 2.64604 5.64625C2.73986 5.55243 2.86711 5.49972 2.99979 5.49972C3.13247 5.49972 3.25972 5.55243 3.35354 5.64625L7.99979 10.2931L12.646 5.64625C12.6925 5.59979 12.7476 5.56294 12.8083 5.5378C12.869 5.51266 12.9341 5.49972 12.9998 5.49972C13.0655 5.49972 13.1305 5.51266 13.1912 5.5378C13.2519 5.56294 13.3071 5.59979 13.3535 5.64625C13.4 5.6927 13.4368 5.74785 13.462 5.80855C13.4871 5.86925 13.5001 5.9343 13.5001 6C13.5001 6.0657 13.4871 6.13075 13.462 6.19145C13.4368 6.25214 13.4 6.30729 13.3535 6.35375Z" fill="#71BF44"/>
</svg>
