<svg width="22" height="22" viewBox="0 0 22 22" fill="none" xmlns="http://www.w3.org/2000/svg">
<path d="M21.2957 8.94353H20.4499V8.89996H10.9999V13.0999H16.934C16.0683 15.5449 13.742 17.2999 10.9999 17.2999C7.52079 17.2999 4.69998 14.4791 4.69998 10.9999C4.69998 7.52079 7.52079 4.69998 10.9999 4.69998C12.6059 4.69998 14.067 5.30583 15.1795 6.29545L18.1494 3.32554C16.2741 1.57782 13.7656 0.5 10.9999 0.5C5.20135 0.5 0.5 5.20135 0.5 10.9999C0.5 16.7985 5.20135 21.4999 10.9999 21.4999C16.7985 21.4999 21.4999 16.7985 21.4999 10.9999C21.4999 10.2959 21.4274 9.60871 21.2957 8.94353Z" fill="#FFC107"/>
<path d="M1.71069 6.11275L5.16045 8.64271C6.0939 6.33167 8.35454 4.69998 11 4.69998C12.606 4.69998 14.067 5.30583 15.1795 6.29545L18.1494 3.32554C16.2741 1.57782 13.7657 0.5 11 0.5C6.96697 0.5 3.46943 2.77691 1.71069 6.11275Z" fill="#FF3D00"/>
<path d="M10.9999 21.5C13.7121 21.5 16.1764 20.462 18.0396 18.7742L14.7899 16.0242C13.7003 16.8529 12.3688 17.3011 10.9999 17.3C8.26889 17.3 5.94997 15.5586 5.07638 13.1284L1.65234 15.7665C3.39009 19.1669 6.91912 21.5 10.9999 21.5Z" fill="#4CAF50"/>
<path d="M21.2957 8.9436H20.45V8.90002H11V13.1H16.934C16.5199 14.2636 15.774 15.2804 14.7884 16.0248L14.79 16.0237L18.0397 18.7736C17.8097 18.9826 21.4999 16.25 21.4999 11C21.4999 10.296 21.4275 9.60877 21.2957 8.9436Z" fill="#1976D2"/>
</svg>
