<svg width="48" height="48" viewBox="0 0 48 48" fill="none" xmlns="http://www.w3.org/2000/svg">
<path d="M34.5 6H13.5C11.9087 6 10.3826 6.63214 9.25736 7.75736C8.13214 8.88258 7.5 10.4087 7.5 12V39C7.5 39.7957 7.81607 40.5587 8.37868 41.1213C8.94129 41.6839 9.70435 42 10.5 42H15C15.7956 42 16.5587 41.6839 17.1213 41.1213C17.6839 40.5587 18 39.7957 18 39V36H30V39C30 39.7957 30.3161 40.5587 30.8787 41.1213C31.4413 41.6839 32.2044 42 33 42H37.5C38.2957 42 39.0587 41.6839 39.6213 41.1213C40.1839 40.5587 40.5 39.7957 40.5 39V12C40.5 10.4087 39.8679 8.88258 38.7426 7.75736C37.6174 6.63214 36.0913 6 34.5 6ZM10.5 33V22.5H37.5V33H10.5ZM10.5 15H37.5V19.5H10.5V15ZM13.5 9H34.5C35.2957 9 36.0587 9.31607 36.6213 9.87868C37.1839 10.4413 37.5 11.2044 37.5 12H10.5C10.5 11.2044 10.8161 10.4413 11.3787 9.87868C11.9413 9.31607 12.7044 9 13.5 9ZM15 39H10.5V36H15V39ZM33 39V36H37.5V39H33ZM19.5 27.75C19.5 28.195 19.368 28.63 19.1208 29C18.8736 29.37 18.5222 29.6584 18.111 29.8287C17.6999 29.999 17.2475 30.0436 16.811 29.9568C16.3746 29.87 15.9737 29.6557 15.659 29.341C15.3443 29.0263 15.13 28.6254 15.0432 28.189C14.9564 27.7525 15.001 27.3001 15.1713 26.889C15.3416 26.4778 15.63 26.1264 16 25.8792C16.37 25.632 16.805 25.5 17.25 25.5C17.8467 25.5 18.419 25.7371 18.841 26.159C19.2629 26.581 19.5 27.1533 19.5 27.75ZM33 27.75C33 28.195 32.868 28.63 32.6208 29C32.3736 29.37 32.0222 29.6584 31.611 29.8287C31.1999 29.999 30.7475 30.0436 30.311 29.9568C29.8746 29.87 29.4737 29.6557 29.159 29.341C28.8443 29.0263 28.63 28.6254 28.5432 28.189C28.4564 27.7525 28.501 27.3001 28.6713 26.889C28.8416 26.4778 29.13 26.1264 29.5 25.8792C29.87 25.632 30.305 25.5 30.75 25.5C31.3467 25.5 31.919 25.7371 32.341 26.159C32.7629 26.581 33 27.1533 33 27.75ZM46.5 15V19.5C46.5 19.8978 46.342 20.2794 46.0607 20.5607C45.7794 20.842 45.3978 21 45 21C44.6022 21 44.2206 20.842 43.9393 20.5607C43.658 20.2794 43.5 19.8978 43.5 19.5V15C43.5 14.6022 43.658 14.2206 43.9393 13.9393C44.2206 13.658 44.6022 13.5 45 13.5C45.3978 13.5 45.7794 13.658 46.0607 13.9393C46.342 14.2206 46.5 14.6022 46.5 15ZM4.5 15V19.5C4.5 19.8978 4.34196 20.2794 4.06066 20.5607C3.77936 20.842 3.39782 21 3 21C2.60218 21 2.22064 20.842 1.93934 20.5607C1.65804 20.2794 1.5 19.8978 1.5 19.5V15C1.5 14.6022 1.65804 14.2206 1.93934 13.9393C2.22064 13.658 2.60218 13.5 3 13.5C3.39782 13.5 3.77936 13.658 4.06066 13.9393C4.34196 14.2206 4.5 14.6022 4.5 15Z" fill="#9D0A0E"/>
</svg>
