<svg width="48" height="48" viewBox="0 0 48 48" fill="none" xmlns="http://www.w3.org/2000/svg">
<path d="M44.2354 37.3125C44.0632 37.4096 43.8734 37.4717 43.6771 37.4952C43.4808 37.5187 43.2818 37.5032 43.0915 37.4495C42.9013 37.3959 42.7235 37.3051 42.5684 37.1825C42.4133 37.0598 42.284 36.9078 42.1879 36.735L29.1229 13.5H25.5004V15C25.5004 15.3978 25.3423 15.7794 25.061 16.0607C24.7797 16.342 24.3982 16.5 24.0004 16.5C23.6026 16.5 23.221 16.342 22.9397 16.0607C22.6584 15.7794 22.5004 15.3978 22.5004 15V13.5H18.8779L5.81288 36.735C5.61795 37.0831 5.29272 37.3395 4.90874 37.4478C4.52476 37.5561 4.11348 37.5074 3.76538 37.3125C3.41729 37.1176 3.16089 36.7923 3.05258 36.4084C2.94428 36.0244 2.99295 35.6131 3.18788 35.265L15.4354 13.5H4.50038C4.10256 13.5 3.72103 13.342 3.43972 13.0607C3.15842 12.7794 3.00038 12.3978 3.00038 12C3.00038 11.6022 3.15842 11.2206 3.43972 10.9393C3.72103 10.658 4.10256 10.5 4.50038 10.5H43.5004C43.8982 10.5 44.2797 10.658 44.561 10.9393C44.8423 11.2206 45.0004 11.6022 45.0004 12C45.0004 12.3978 44.8423 12.7794 44.561 13.0607C44.2797 13.342 43.8982 13.5 43.5004 13.5H32.5654L44.8129 35.265C44.91 35.4372 44.9721 35.6269 44.9956 35.8232C45.0191 36.0195 45.0036 36.2186 44.9499 36.4088C44.8962 36.5991 44.8055 36.7769 44.6828 36.932C44.5602 37.0871 44.4082 37.2164 44.2354 37.3125ZM24.0004 21C23.6026 21 23.221 21.158 22.9397 21.4393C22.6584 21.7206 22.5004 22.1022 22.5004 22.5V25.5C22.5004 25.8978 22.6584 26.2794 22.9397 26.5607C23.221 26.842 23.6026 27 24.0004 27C24.3982 27 24.7797 26.842 25.061 26.5607C25.3423 26.2794 25.5004 25.8978 25.5004 25.5V22.5C25.5004 22.1022 25.3423 21.7206 25.061 21.4393C24.7797 21.158 24.3982 21 24.0004 21ZM24.0004 31.5C23.6026 31.5 23.221 31.658 22.9397 31.9393C22.6584 32.2206 22.5004 32.6022 22.5004 33V36C22.5004 36.3978 22.6584 36.7794 22.9397 37.0607C23.221 37.342 23.6026 37.5 24.0004 37.5C24.3982 37.5 24.7797 37.342 25.061 37.0607C25.3423 36.7794 25.5004 36.3978 25.5004 36V33C25.5004 32.6022 25.3423 32.2206 25.061 31.9393C24.7797 31.658 24.3982 31.5 24.0004 31.5Z" fill="#F99D1B"/>
</svg>
