<svg width="636" height="636" viewBox="0 0 636 636" fill="none" xmlns="http://www.w3.org/2000/svg">
<path d="M567.821 448.889C476.364 447.49 384.907 446.218 293.45 445.327L284.928 445.073C270.173 444.691 255.545 444.437 240.79 444.055C233.158 443.546 223.745 443.165 218.021 443.674L197.16 443.292C139.411 442.402 81.6624 442.147 24.0408 442.402C19.8433 442.402 14.5009 443.292 13.6105 447.108C12.4657 452.069 19.8432 454.231 25.1856 454.358C116.642 455.758 208.099 457.03 299.429 457.92L307.951 458.174C322.834 458.556 337.589 458.81 352.471 459.192C359.849 459.701 367.226 459.955 374.604 459.574L395.719 459.955C453.341 460.846 511.09 461.1 568.838 460.846C573.036 460.846 578.378 459.955 579.269 456.139C580.541 451.178 573.163 449.016 567.821 448.889Z" fill="#00AEEF"/>
<path d="M471.657 500.786C466.442 499.769 461.227 499.514 456.012 499.896C451.814 500.405 447.617 501.677 443.801 503.458C415.944 515.542 390.122 527.88 366.209 540.473C364.809 541.236 363.41 541.999 363.537 542.89C363.665 543.78 365.954 544.416 368.117 544.925C397.881 552.43 428.155 558.026 458.683 561.842C461.481 562.351 464.407 562.351 467.333 562.224C470.004 561.842 472.548 561.079 474.965 559.934C501.804 547.596 528.261 534.876 554.083 521.647C557.39 519.994 556.754 517.831 552.684 516.941C549.122 516.05 545.179 515.287 541.745 514.524C534.621 512.743 527.117 511.09 519.485 509.436C504.221 506.129 488.321 503.33 471.657 500.786Z" fill="white"/>
<path d="M464.662 563.242C462.626 563.242 460.591 562.987 458.556 562.733C428.028 558.917 397.754 553.32 367.99 545.815C365.191 545.052 363.029 544.416 362.774 543.017C362.52 541.618 364.301 540.346 365.954 539.582C389.741 526.99 415.817 514.524 443.546 502.567C447.49 500.659 451.687 499.387 456.012 498.878C461.354 498.497 466.697 498.751 471.912 499.769C488.448 502.313 504.475 505.111 519.612 508.418C527.498 510.072 535.13 511.853 541.999 513.506C543.78 513.888 545.688 514.397 547.596 514.778C549.504 515.16 551.158 515.542 552.938 515.923C556.246 516.686 557.009 518.086 557.136 519.103C557.263 520.121 556.882 521.266 554.592 522.41C529.025 535.385 502.313 548.359 475.474 560.698C472.93 561.97 470.258 562.733 467.46 563.114C466.442 563.242 465.552 563.242 464.662 563.242ZM364.555 542.762C365.7 543.398 367.099 543.907 368.371 544.034C398.136 551.539 428.282 557.136 458.81 560.952C461.609 561.461 464.407 561.461 467.206 561.334C469.75 560.952 472.294 560.189 474.583 559.044C501.422 546.706 528.007 533.858 553.574 520.757C554.719 520.121 555.101 519.612 555.101 519.358C555.101 519.103 554.465 518.34 552.302 517.831C550.522 517.45 548.741 517.068 546.96 516.686C545.179 516.305 543.144 515.923 541.236 515.414C534.367 513.761 526.862 511.98 518.976 510.326C503.966 507.146 487.939 504.221 471.403 501.804C466.315 500.786 461.1 500.532 456.012 500.914C451.814 501.422 447.871 502.694 444.055 504.475C416.326 516.432 390.377 528.898 366.59 541.363C365.827 541.745 365.191 542.126 364.555 542.762Z" fill="#0054A6"/>
<path d="M538.819 524.191H538.565C511.089 517.704 481.325 512.107 450.033 507.528C449.27 507.401 448.889 506.765 448.889 506.129C449.016 505.366 449.652 504.984 450.288 504.984C481.579 509.563 511.344 515.16 538.946 521.647C539.709 521.774 540.091 522.41 540.091 523.046C540.218 523.81 539.582 524.318 538.819 524.191Z" fill="#0054A6"/>
<path d="M529.279 527.498H529.025C501.677 521.774 473.057 516.305 444.182 511.344C443.419 511.217 443.038 510.581 443.165 509.818C443.292 509.054 443.928 508.673 444.691 508.8C473.693 513.761 502.186 519.23 529.661 525.082C530.424 525.209 530.933 525.845 530.806 526.481C530.551 527.117 529.915 527.626 529.279 527.498Z" fill="#0054A6"/>
<path d="M490.738 524.191C490.611 524.191 490.611 524.191 490.483 524.191C473.057 520.502 454.486 517.195 435.279 514.397C434.515 514.27 434.134 513.634 434.134 512.998C434.261 512.234 434.897 511.853 435.533 511.853C454.74 514.651 473.439 517.958 490.865 521.647C491.501 521.774 492.01 522.41 491.883 523.174C491.883 523.81 491.374 524.191 490.738 524.191Z" fill="#0054A6"/>
<path d="M480.689 547.85C480.562 547.85 480.562 547.85 480.435 547.85C454.359 541.999 427.011 536.53 399.281 531.442C398.518 531.314 398.136 530.678 398.263 529.915C398.391 529.152 399.027 528.77 399.79 528.898C427.647 533.858 454.995 539.455 481.071 545.306C481.834 545.434 482.343 546.07 482.215 546.706C481.961 547.469 481.325 547.978 480.689 547.85Z" fill="#0054A6"/>
<path d="M448.253 545.561H447.998C430.445 541.745 411.874 538.31 392.794 535.385C392.03 535.258 391.649 534.622 391.776 533.858C391.903 533.095 392.539 532.714 393.302 532.841C412.382 535.766 430.954 539.201 448.634 543.017C449.398 543.144 449.906 543.78 449.779 544.416C449.652 545.179 449.016 545.688 448.253 545.561Z" fill="#0054A6"/>
<path d="M435.66 548.486H435.405C419.505 544.925 402.461 541.872 384.653 539.328C383.889 539.201 383.508 538.565 383.508 537.929C383.635 537.166 384.271 536.784 384.907 536.784C402.715 539.328 419.887 542.508 435.787 545.942C436.55 546.07 437.059 546.706 436.932 547.342C436.932 548.105 436.296 548.614 435.66 548.486Z" fill="#0054A6"/>
<path d="M310.623 532.078C296.758 541.872 278.441 549.631 260.633 557.136C256.944 558.917 253.001 560.189 248.931 560.952C244.479 561.715 238.882 561.334 235.702 559.68C233.158 558.281 232.649 556.373 233.412 554.592C234.175 552.811 236.211 551.285 238.246 549.758C246.132 544.162 256.054 539.328 266.866 535.003C272.463 532.714 278.314 530.678 284.165 528.516C289.126 526.735 295.613 523.555 301.464 522.792C305.916 522.156 306.171 523.937 307.061 525.718C307.697 526.608 311.64 531.442 310.623 532.078Z" fill="white"/>
<path d="M244.351 562.224C241.299 562.351 238.246 561.715 235.447 560.443C232.14 558.662 231.886 555.991 232.776 554.083C233.667 552.175 235.447 550.649 237.991 548.868C245.115 543.78 254.655 538.946 266.739 533.986C271.699 531.95 277.423 529.915 284.038 527.498C285.437 526.99 286.963 526.354 288.617 525.718C292.815 523.937 297.139 522.538 301.591 521.647C305.916 521.011 306.934 522.41 307.951 524.446L308.206 525.082C308.333 525.209 308.715 525.718 308.969 526.226C311.004 529.152 312.022 530.678 311.767 531.696C311.767 532.078 311.513 532.332 311.259 532.586C297.267 542.508 278.823 550.267 261.015 557.772C257.199 559.553 253.255 560.825 249.185 561.588C247.531 562.097 245.878 562.224 244.351 562.224ZM303.372 523.682C302.863 523.682 302.355 523.682 301.719 523.81C297.394 524.7 293.196 525.972 289.126 527.753C287.472 528.389 285.946 529.025 284.547 529.534C277.932 531.823 272.208 533.986 267.247 535.894C255.163 540.727 245.878 545.561 238.882 550.522C236.974 551.921 235.066 553.32 234.303 554.974C233.539 556.627 234.303 557.772 236.211 558.79C238.882 560.189 244.097 560.698 248.803 559.934C252.747 559.171 256.563 557.899 260.251 556.246C277.805 548.868 295.867 541.109 309.732 531.442C308.969 530.042 308.206 528.77 307.315 527.498C306.934 527.117 306.679 526.608 306.425 526.099C306.298 525.845 306.171 525.59 306.043 525.336C305.407 524.318 305.153 523.682 303.372 523.682Z" fill="#0054A6"/>
<path d="M170.957 501.55C160.908 506.002 150.096 511.217 149.969 518.086C149.842 523.937 157.728 529.279 165.869 533.604C183.931 543.271 205.428 551.03 226.416 558.662C231.504 560.57 237.101 562.478 243.461 562.351C249.821 562.224 255.036 560.062 259.87 558.026L318.382 532.714L309.986 530.551C292.306 541.872 273.48 551.158 253.637 557.899C251.347 558.79 248.93 559.426 246.386 559.68C243.715 559.934 240.535 559.68 238.882 558.535C235.829 556.627 239.518 553.956 243.079 552.175C265.721 541.236 289.38 530.424 314.184 519.739C282.638 507.782 253.764 493.282 228.706 476.618C233.412 474.71 207.082 485.268 204.283 486.54L170.957 501.55Z" fill="#00AEEF"/>
<path d="M244.224 550.267C240.026 551.285 235.829 552.684 233.921 554.592C232.013 556.5 233.285 559.426 237.61 560.316C217.639 554.083 197.923 546.706 178.716 538.31C170.957 534.876 163.579 531.187 158.873 526.608C154.93 522.665 153.022 517.958 155.82 513.634C157.346 511.217 158.11 511.98 160.526 513.506C163.579 515.414 166.759 517.068 169.939 518.594C184.44 525.845 199.831 532.714 215.986 539.328C225.144 543.144 234.557 546.833 244.224 550.267Z" fill="#0054A6"/>
<path d="M251.093 555.228C250.838 555.228 250.584 555.101 250.584 554.846C250.457 554.592 250.584 554.21 250.838 553.956C268.392 544.925 286.327 537.038 304.771 530.297C305.153 530.17 305.407 530.297 305.534 530.678C305.662 531.06 305.534 531.314 305.153 531.442C286.709 538.183 268.774 546.07 251.347 555.101C251.347 555.355 251.22 555.355 251.093 555.228Z" fill="#0054A6"/>
<path d="M264.067 544.925C263.813 544.925 263.558 544.798 263.431 544.543C263.304 544.289 263.431 543.907 263.813 543.78L278.441 537.547C278.695 537.42 279.077 537.547 279.331 537.802C279.458 538.056 279.331 538.438 279.077 538.692L264.449 544.925C264.194 544.925 264.194 544.925 264.067 544.925Z" fill="#0054A6"/>
<path d="M113.462 428.028H112.953C112.572 428.028 112.317 427.774 112.317 427.392C112.317 427.01 112.572 426.756 112.953 426.756H113.462C113.844 426.756 114.098 427.01 114.098 427.392C114.098 427.774 113.844 428.028 113.462 428.028Z" fill="#0054A6"/>
<path d="M75.6839 431.208C74.0303 435.533 75.0479 440.366 76.3199 444.946C78.3551 452.323 80.6447 459.701 83.3159 466.951C85.3511 472.675 88.0223 478.781 93.2375 481.834C97.4351 484.25 102.523 484.25 107.229 484.25L132.161 484.123C139.665 484.123 147.679 483.869 153.657 479.417C159.127 475.346 161.798 468.478 163.961 461.863C166.632 453.85 168.921 445.582 170.829 437.441C171.72 433.498 172.483 428.791 169.939 425.611C167.904 423.067 164.469 422.304 161.289 421.795C144.117 418.997 127.2 419.633 110.028 421.668C99.2159 422.558 80.7719 417.979 75.6839 431.208Z" fill="#0054A6"/>
<path d="M102.778 350.563C103.286 346.238 104.049 341.914 106.466 338.352C108.883 334.79 113.335 332.246 117.533 333.264C122.748 334.536 125.419 340.26 126.946 345.348C133.178 365.954 134.069 387.833 129.49 408.948C131.27 400.171 133.178 391.522 136.994 383.508C140.81 375.494 146.662 368.117 154.548 363.919C158.491 361.757 163.706 360.612 167.268 363.283C172.229 366.972 170.83 374.731 168.54 380.455C162.943 394.829 155.311 408.312 145.898 420.523C141.701 425.993 136.867 431.335 130.38 433.37C119.695 436.678 108.756 430.063 99.5975 423.703C89.1671 416.453 78.4823 408.948 71.3591 398.39C68.4335 394.066 66.2711 388.214 69.1967 384.017C71.3591 380.837 75.6839 379.819 79.4999 380.582C83.1887 381.346 86.4959 383.762 89.4215 386.179C93.7463 389.741 97.8167 393.557 101.633 397.627C104.94 401.189 107.993 407.167 112.063 409.584C105.321 390.122 100.361 371.678 102.778 350.563Z" fill="white"/>
<path d="M124.656 435.406C115.752 435.406 106.975 429.936 99.3432 424.594C89.4216 417.725 78.228 409.966 70.8504 399.154C68.9424 396.355 64.872 389.232 68.688 383.762C71.232 379.946 76.1928 379.183 80.0088 379.946C83.8248 380.71 87.2592 383.254 90.312 385.67C94.6368 389.232 98.8344 393.048 102.65 397.246C103.922 398.645 105.067 400.171 106.212 401.698C107.484 403.478 108.883 405.259 110.282 406.913C103.541 387.451 99.5976 370.152 101.887 350.563C102.396 346.238 103.159 341.659 105.83 337.843C108.756 333.646 113.717 331.356 117.914 332.374C122.494 333.391 125.801 337.589 128.09 345.094C132.67 359.849 134.45 375.367 133.306 390.886C134.196 388.214 135.214 385.543 136.486 383.126C139.538 376.766 145.135 368.117 154.421 363.156C159.636 360.358 164.851 360.103 168.158 362.647C174.137 366.972 171.72 376.003 169.812 380.964C164.088 395.338 156.456 408.948 147.043 421.286C142.718 426.883 137.885 432.353 131.016 434.515C128.854 435.024 126.818 435.406 124.656 435.406ZM77.2104 381.6C74.5392 381.473 71.868 382.618 70.2144 384.78C67.1616 389.359 70.7232 395.592 72.3768 398.136C79.5 408.694 90.5664 416.326 100.361 423.067C109.519 429.427 120.077 435.787 130.253 432.607C136.486 430.699 141.192 425.484 145.262 420.014C154.548 407.803 162.18 394.447 167.777 380.074C169.176 376.512 171.974 367.735 166.759 364.046C162.689 361.121 156.71 363.792 155.057 364.682C146.28 369.389 140.938 377.657 138.012 383.762C134.959 390.631 132.67 397.882 131.27 405.386C131.016 406.658 130.762 407.803 130.507 409.075C130.507 409.584 129.998 409.966 129.49 409.966C128.981 409.966 128.599 409.457 128.599 408.948V408.821C128.854 407.676 129.108 406.531 129.362 405.259C133.051 385.416 132.034 364.937 126.055 345.602C124.02 338.734 121.094 335.045 117.278 334.154C113.208 333.137 109.265 335.935 107.23 338.861C104.94 342.295 104.177 346.493 103.668 350.69C101.251 370.915 105.703 388.723 113.081 409.33C113.208 409.711 113.081 410.093 112.826 410.347C112.572 410.602 112.063 410.602 111.682 410.474C108.883 408.948 106.721 405.768 104.431 402.715C103.414 401.189 102.269 399.79 100.997 398.39C97.1808 394.32 93.2376 390.504 88.9128 387.07C85.9872 384.78 82.9344 382.49 79.3728 381.727C78.7368 381.6 77.9736 381.6 77.2104 381.6Z" fill="#0054A6"/>
<path d="M136.486 440.494C135.214 440.494 133.814 440.494 132.415 440.366C124.656 439.985 116.77 439.349 109.01 438.586C102.905 437.95 96.2905 436.678 93.2377 431.59C93.1105 431.335 93.1105 430.954 93.4921 430.699H93.6193L100.361 427.901C100.742 427.774 100.997 427.901 101.251 428.282C101.378 428.664 101.251 428.918 100.87 429.173L94.8913 431.59C97.8169 435.66 103.795 436.805 109.265 437.441C117.024 438.204 124.91 438.84 132.67 439.222C136.231 439.603 139.793 439.349 143.227 438.586C146.28 437.822 149.078 436.042 150.732 433.37L144.626 431.844C144.245 431.717 144.118 431.462 144.118 431.081C144.245 430.699 144.499 430.572 144.881 430.572L151.75 432.353C151.877 432.353 152.131 432.48 152.131 432.734C152.258 432.862 152.258 433.116 152.131 433.243C150.35 436.678 147.17 439.094 143.482 439.858C141.065 440.239 138.775 440.494 136.486 440.494Z" fill="white"/>
<path d="M124.274 424.339C124.02 424.339 123.765 424.212 123.638 423.83C115.752 396.737 112.699 368.498 114.734 340.514C114.734 340.133 115.116 339.878 115.37 339.878C115.625 339.878 116.006 340.26 116.006 340.514C113.971 368.498 117.024 396.61 124.91 423.449C125.037 423.83 124.783 424.085 124.529 424.212C124.401 424.339 124.401 424.339 124.274 424.339Z" fill="#0054A6"/>
<path d="M133.687 419.633H133.56C133.179 419.506 133.051 419.124 133.179 418.87C137.885 402.842 146.28 388.214 157.855 376.13C158.11 375.876 158.491 375.876 158.746 376.13C159 376.385 159 376.766 158.746 377.021C147.425 388.978 139.03 403.351 134.323 419.124C134.196 419.378 133.942 419.506 133.687 419.633Z" fill="#0054A6"/>
<path d="M111.046 418.87C110.918 418.87 110.791 418.87 110.664 418.742C98.9616 411.492 88.6584 402.079 80.5176 390.886C80.2632 390.631 80.3904 390.25 80.6448 389.995C80.8992 389.741 81.2808 389.868 81.5352 390.122C89.5488 401.062 99.7248 410.474 111.3 417.598C111.554 417.725 111.682 418.106 111.554 418.488C111.554 418.742 111.3 418.87 111.046 418.87Z" fill="#0054A6"/>
<path d="M220.438 155.057C205.047 177.062 210.389 207.463 232.395 222.854C241.935 229.596 253.637 232.522 265.212 231.377C274.625 230.486 283.529 226.67 290.652 220.438C303.499 208.99 307.951 189.782 303.372 173.119C299.302 157.855 284.928 137.885 268.392 134.705C250.711 131.27 230.487 140.683 220.438 155.057Z" fill="white"/>
<path d="M260.76 232.649C243.588 232.649 226.289 222.982 217.512 208.226C208.099 191.436 208.862 170.702 219.674 154.675C230.486 139.284 250.966 130.507 268.519 133.942C284.928 137.122 299.938 156.71 304.39 172.992C309.223 190.546 303.881 209.88 291.288 221.201C284.038 227.561 274.879 231.504 265.339 232.394C263.813 232.522 262.286 232.649 260.76 232.649ZM221.201 155.566C206.064 177.19 211.406 206.954 232.903 222.091C242.316 228.706 253.637 231.631 265.085 230.486C274.243 229.596 283.02 225.78 289.889 219.802C301.973 208.99 306.934 190.418 302.354 173.501C298.03 157.728 283.656 138.775 268.01 135.722C251.602 132.415 231.377 141.065 221.201 155.566Z" fill="#0054A6"/>
<path d="M178.843 315.456C176.935 319.908 178.843 324.996 183.295 326.904C187.747 328.812 192.835 326.904 194.743 322.452C195.506 320.798 195.634 318.89 195.252 316.982C194.234 313.421 191.436 310.495 187.747 309.605C184.313 309.096 180.115 312.53 178.843 315.456Z" fill="#0054A6"/>
<path d="M206.573 315.456C204.665 319.908 206.573 324.996 211.025 326.904C215.477 328.812 220.565 326.904 222.473 322.452C223.236 320.798 223.49 318.89 222.981 316.982C221.964 313.421 219.165 310.622 215.477 309.605C212.169 309.096 207.972 312.53 206.573 315.456Z" fill="#0054A6"/>
<path d="M161.544 260.633C157.219 265.975 156.838 273.989 161.798 279.077C166.759 284.165 175.027 285.31 182.659 285.946C227.434 289.762 272.335 290.779 317.237 288.744C326.777 288.362 336.953 287.599 345.094 283.402C353.234 279.204 358.195 269.918 353.107 263.05C350.436 259.361 345.602 256.944 340.514 255.799C335.426 254.782 330.211 254.4 325.123 254.527C275.897 253.891 229.087 253.255 184.949 252.619C176.045 252.365 166.886 254.146 161.544 260.633Z" fill="#0054A6"/>
<path d="M161.544 307.57C157.219 312.912 156.838 320.926 161.798 326.014C166.759 331.102 175.027 332.246 182.659 332.882C227.434 336.698 272.335 337.589 317.237 335.554C326.777 335.172 336.953 334.409 344.966 330.211C352.98 326.014 358.068 316.728 352.98 309.859C350.309 306.17 345.475 303.754 340.387 302.609C335.299 301.591 330.084 301.21 324.996 301.337C275.77 300.701 228.96 300.065 184.822 299.429C176.045 299.174 166.886 300.955 161.544 307.57Z" fill="#00AEEF"/>
<path d="M178.843 315.456C176.935 319.908 178.843 324.996 183.295 326.904C187.747 328.812 192.835 326.904 194.743 322.452C195.506 320.798 195.634 318.89 195.252 316.982C194.234 313.421 191.436 310.495 187.747 309.605C184.313 309.096 180.115 312.53 178.843 315.456Z" fill="#0054A6"/>
<path d="M206.573 315.456C204.665 319.908 206.573 324.996 211.025 326.904C215.477 328.812 220.565 326.904 222.473 322.452C223.236 320.798 223.49 318.89 222.981 316.982C221.964 313.421 219.165 310.622 215.477 309.605C212.169 309.096 207.972 312.53 206.573 315.456Z" fill="#0054A6"/>
<path d="M290.907 315.456C288.999 319.908 290.907 324.996 295.359 326.904C299.811 328.812 304.899 326.904 306.807 322.452C307.57 320.798 307.824 318.89 307.315 316.982C306.298 313.421 303.499 310.622 299.811 309.605C296.376 309.096 292.179 312.53 290.907 315.456Z" fill="#0054A6"/>
<path d="M318.636 315.456C316.728 319.908 318.636 324.996 323.088 326.904C327.54 328.812 332.628 326.904 334.536 322.452C335.299 320.798 335.554 318.89 335.045 316.982C334.027 313.421 331.229 310.622 327.54 309.605C324.233 309.096 320.035 312.53 318.636 315.456Z" fill="#0054A6"/>
<path d="M235.575 315.456C233.667 319.908 235.575 324.996 240.027 326.904C244.479 328.812 249.567 326.904 251.475 322.452C252.238 320.798 252.492 318.89 251.983 316.982C250.966 313.421 248.167 310.622 244.479 309.605C241.171 309.096 236.974 312.53 235.575 315.456Z" fill="#0054A6"/>
<path d="M263.431 315.456C261.396 319.781 263.304 324.996 267.756 327.031C272.081 329.066 277.296 327.158 279.331 322.706C280.095 320.926 280.349 319.018 279.967 317.11C278.95 313.548 276.151 310.622 272.463 309.732C268.901 309.096 264.703 312.53 263.431 315.456Z" fill="#0054A6"/>
<path d="M277.932 216.749C281.875 219.038 286.327 220.183 290.907 220.056C293.196 220.056 296.249 220.056 297.012 222.346C297.267 223.745 296.885 225.271 295.867 226.416C290.271 234.43 280.603 239.009 270.809 239.899C261.015 240.79 251.22 238.373 242.316 234.43C237.991 232.522 233.285 229.469 233.285 224.762C233.158 219.802 238.246 216.24 241.68 213.314C244.86 210.643 248.04 206.446 251.983 204.792C255.927 203.138 260.887 204.919 264.449 206.954C266.23 207.972 276.279 217.512 277.932 216.749Z" fill="#00AEEF"/>
<path d="M265.594 207.845C266.103 210.643 265.339 213.569 263.431 215.604C261.142 218.021 257.835 218.784 254.527 219.42C250.711 220.056 246.641 220.438 243.079 218.657C239.518 216.876 237.228 212.551 238.882 208.99C240.281 206.064 243.843 204.919 247.023 204.029C253.255 202.375 263.813 197.669 265.594 207.845Z" fill="#00AEEF"/>
<path d="M257.707 144.118C264.195 142.846 271.699 144.626 276.151 149.206C280.095 153.403 281.112 159.127 283.783 164.215C286.073 168.54 289.635 172.61 289.126 177.317C288.744 181.006 285.946 183.931 283.147 186.602C274.879 194.616 265.594 201.485 255.545 207.209C253.128 208.735 250.33 209.88 247.404 210.262C244.479 210.643 241.171 209.626 239.645 207.336C238.119 205.046 238.882 201.994 239.518 199.322C242.952 186.094 243.97 172.483 242.443 158.873C241.935 154.802 242.698 153.149 246.005 150.096C249.312 147.17 253.255 145.135 257.707 144.118Z" fill="#00AEEF"/>
<path d="M236.211 199.577C236.338 201.358 236.847 203.138 237.737 204.665C238.882 206.446 240.79 207.59 242.825 207.845C245.369 207.972 247.913 207.082 249.821 205.428C263.05 196.27 269.156 182.405 274.498 169.176C275.261 167.777 275.516 166.25 275.134 164.724C274.244 162.053 270.3 160.781 266.739 160.145C258.471 158.746 246.005 158.491 238.628 162.18C235.193 163.834 236.211 169.558 235.956 172.61C235.575 176.808 235.32 181.006 235.32 185.203C235.32 190.037 235.575 194.87 236.211 199.577Z" fill="white"/>
<path d="M243.461 208.735C243.206 208.735 242.952 208.735 242.698 208.735C240.281 208.481 238.246 207.209 236.974 205.174C236.083 203.52 235.447 201.612 235.32 199.704C234.684 194.87 234.43 190.037 234.557 185.203C234.557 181.514 234.811 177.444 235.193 172.483C235.193 171.847 235.193 171.084 235.193 170.194C235.193 166.886 235.193 162.816 238.373 161.29C246.005 157.474 258.598 157.855 266.993 159.127C270.554 159.763 275.006 161.035 276.024 164.342C276.406 166.123 276.151 167.904 275.261 169.43C269.282 184.186 263.304 197.16 250.33 206.191C248.422 207.718 246.005 208.608 243.461 208.735ZM237.101 199.45C237.228 201.103 237.737 202.63 238.5 204.156C239.518 205.682 241.044 206.7 242.825 206.827C245.242 207.082 247.531 205.81 249.185 204.538C261.778 195.761 267.629 183.168 273.48 168.667C274.116 167.522 274.37 166.123 274.116 164.851C273.48 163.07 270.809 161.671 266.484 160.908C257.707 159.509 245.75 159.509 239.009 162.816C236.846 163.834 236.974 167.141 236.974 170.066C236.974 170.957 236.974 171.847 236.974 172.61C236.592 177.444 236.338 181.514 236.338 185.203C236.338 190.037 236.592 194.743 237.101 199.45Z" fill="#0054A6"/>
<path d="M239.009 156.456C235.829 158.746 232.903 161.544 230.486 164.597C229.469 165.742 228.451 167.141 228.96 168.413C229.723 170.194 232.522 170.702 234.938 170.957L266.611 173.755C269.41 174.01 272.462 174.264 274.625 172.992C277.55 171.466 277.932 168.158 277.042 165.487C275.515 161.035 272.208 157.474 267.883 155.566C263.177 153.276 257.834 153.403 252.619 153.022C247.913 152.64 243.079 153.785 239.009 156.456Z" fill="#00AEEF"/>
<path d="M243.079 178.462C242.062 178.97 241.935 180.242 241.935 181.387C241.935 181.896 241.935 182.405 242.062 182.786C242.189 183.422 242.825 183.931 243.588 183.804C243.97 183.677 244.351 183.422 244.479 183.041C244.733 182.532 244.86 181.896 244.86 181.387C244.987 180.751 244.987 179.988 244.733 179.352C244.479 178.716 243.843 178.207 243.207 178.334" fill="#0054A6"/>
<path d="M252.365 178.843C251.347 179.352 251.22 180.624 251.22 181.769C251.22 182.278 251.22 182.786 251.347 183.168C251.475 183.804 252.111 184.313 252.874 184.186C253.255 184.058 253.637 183.804 253.764 183.422C254.019 182.914 254.146 182.278 254.146 181.769C254.273 181.133 254.273 180.37 254.019 179.734C253.764 179.098 253.128 178.589 252.492 178.716" fill="#0054A6"/>
<path d="M247.786 215.477C245.496 215.477 243.334 214.968 241.426 213.823C241.171 213.696 241.044 213.314 241.171 212.933C241.299 212.678 241.68 212.551 242.062 212.678C242.062 212.678 242.062 212.678 242.189 212.678C245.623 214.459 249.694 214.714 253.255 213.187C256.944 211.661 260.251 209.626 263.304 207.082C263.559 206.827 263.94 206.954 264.195 207.209C264.449 207.463 264.322 207.845 264.067 208.099C260.887 210.643 257.453 212.806 253.637 214.332C251.729 215.222 249.694 215.477 247.786 215.477Z" fill="#0054A6"/>
<path d="M251.856 194.743C251.474 195.379 250.838 195.761 250.075 196.015C249.057 196.27 247.785 195.761 247.022 196.397C246.513 196.906 246.513 197.796 246.895 198.432C247.404 198.941 248.167 199.322 248.93 199.195C249.693 199.068 250.329 198.814 250.965 198.432C251.983 197.923 252.746 197.287 253.509 196.397C254.145 195.634 255.163 193.853 254.273 192.835C253.382 191.818 252.237 194.107 251.856 194.743Z" fill="#0054A6"/>
<path d="M468.732 383.381L464.916 383.254L470.895 155.311C470.895 153.149 471.022 150.732 471.149 148.315C471.658 132.034 472.421 111.682 466.824 98.3256C460.337 82.68 455.63 76.8288 431.335 76.32H429.809V76.0656C410.602 74.5392 162.943 77.4648 145.262 77.9736C133.687 78.3552 112.826 81.6624 103.032 98.9616C96.7993 110.028 96.5449 124.529 96.2905 136.231L90.8209 372.569L87.0049 372.442L92.4745 136.104C92.7289 123.893 93.1105 108.883 99.7249 96.9264C110.41 77.8464 132.797 74.412 145.135 73.9032C153.403 73.6488 223.618 72.6312 294.341 72.1224C333.137 71.7408 365.827 71.6136 388.85 71.6136C418.361 71.6136 428.155 71.6136 431.462 72.3768C457.666 72.8856 463.517 80.2632 470.386 96.7992C476.237 111.046 475.601 131.779 474.965 148.442C474.838 150.859 474.838 153.149 474.71 155.311L468.732 383.381Z" fill="#0054A6"/>
<path d="M455.249 119.059H108.629V122.875H455.249V119.059Z" fill="#0054A6"/>
<path d="M129.998 112.572C129.49 112.572 129.108 112.572 128.599 112.445C122.621 111.427 118.423 106.085 119.059 100.106C119.441 96.2904 121.858 92.9832 125.292 91.584C129.362 89.9304 133.814 90.5664 137.376 93.1104C140.429 95.4 141.828 99.216 141.192 103.032C140.302 108.502 135.468 112.572 129.998 112.572ZM129.871 94.5096C128.854 94.5096 127.836 94.764 126.818 95.1456C124.529 96.036 123.002 98.1984 122.875 100.615C122.366 104.686 125.165 108.374 129.108 108.883C133.178 109.392 136.867 106.594 137.376 102.65C137.885 100.234 136.994 97.8168 135.086 96.2904C133.56 95.0184 131.779 94.5096 129.871 94.5096Z" fill="#0054A6"/>
<path d="M158.237 113.335C157.219 113.335 156.202 113.208 155.311 112.954C149.587 111.046 146.28 105.194 147.425 99.3432C148.443 95.0184 150.987 91.9656 154.675 90.948C158.873 89.9304 163.325 91.2024 166.378 94.2552C169.303 97.1808 170.448 101.633 169.176 105.576C168.286 108.374 166.378 110.664 163.834 111.936C162.053 112.826 160.145 113.335 158.237 113.335ZM151.114 100.106C150.351 104.05 152.64 107.993 156.329 109.265C158.237 109.774 160.272 109.519 161.926 108.502C163.579 107.611 164.851 106.085 165.487 104.304C166.378 101.633 165.615 98.7072 163.707 96.7992C161.671 94.6368 158.619 93.7464 155.693 94.5096C153.276 95.2728 151.75 97.0536 151.114 100.106Z" fill="#0054A6"/>
<path d="M185.84 113.335C185.458 113.335 184.949 113.335 184.568 113.208C178.716 112.19 174.392 107.357 174.137 101.378C174.01 98.0712 175.282 94.8912 177.826 92.856C181.26 90.0576 186.348 89.8032 190.928 92.4744C195.507 95.1456 197.924 99.4704 197.16 103.922C196.143 109.265 191.436 113.208 185.84 113.335ZM184.313 94.3824C182.914 94.3824 181.388 94.8912 180.243 95.7816C178.716 97.1808 177.826 99.216 177.953 101.251C178.208 105.322 181.133 108.629 185.076 109.265C189.02 109.646 192.581 106.975 193.472 103.159C193.98 99.7248 191.436 96.9264 189.02 95.6544C187.62 94.8912 185.967 94.5096 184.313 94.3824Z" fill="#0054A6"/>
<path d="M388.723 366.845C384.398 375.622 378.293 384.398 368.88 387.451C361.121 389.995 352.598 387.96 344.585 389.486C334.79 391.267 326.65 398.39 323.597 407.93C320.926 417.343 324.487 428.41 332.628 433.879C339.497 438.586 348.528 438.967 356.796 437.822C398.136 432.098 427.01 393.811 421.159 352.471C420.905 350.563 420.523 348.655 420.142 346.747C418.361 338.734 410.983 328.939 403.224 337.08C396.61 343.949 392.921 358.45 388.723 366.845Z" fill="white"/>
<path d="M349.291 439.349C342.423 439.349 336.571 437.822 332.119 434.77C323.724 429.173 319.908 417.725 322.707 407.803C325.887 397.882 334.155 390.631 344.458 388.723C348.019 388.214 351.581 387.96 355.27 388.087C359.976 388.087 364.428 388.087 368.626 386.815C376.131 384.398 382.363 377.784 387.833 366.718C389.105 364.046 390.504 360.739 391.776 357.178C394.575 349.8 397.882 341.405 402.461 336.698C405.895 333.137 409.075 333.137 411.111 333.646C416.071 335.045 419.76 341.278 421.032 346.874C430.063 388.214 403.86 429.046 362.52 438.077C360.612 438.458 358.704 438.84 356.796 439.094C354.379 439.094 351.835 439.349 349.291 439.349ZM353.616 389.868C350.691 389.741 347.638 389.995 344.712 390.504C335.172 392.285 327.413 399.154 324.487 408.312C321.816 417.598 325.378 428.028 333.137 433.243C338.861 437.059 346.747 438.331 356.669 436.932C397.5 431.208 425.993 393.557 420.269 352.726C420.015 350.818 419.633 348.91 419.251 347.129C418.234 342.295 414.799 336.571 410.729 335.426C408.439 334.79 406.15 335.554 403.987 337.97C399.663 342.422 396.483 350.69 393.684 357.814C392.285 361.375 391.013 364.682 389.614 367.481C383.89 379.056 377.275 386.052 369.262 388.596C364.683 389.995 359.976 389.995 355.27 389.995L353.616 389.868Z" fill="#0054A6"/>
<path d="M485.904 308.842C494.427 313.675 504.221 316.219 514.016 316.092C519.104 316.092 525.718 316.219 527.244 321.053C528.262 324.106 526.608 327.158 524.7 329.83C512.362 347.129 491.501 357.05 470.386 359.086C449.271 361.121 428.028 355.651 408.567 347.129C399.281 342.931 389.105 336.19 388.978 326.141C388.724 315.202 399.79 307.57 407.04 301.337C413.909 295.486 420.905 286.582 429.3 282.893C437.95 279.077 448.508 283.02 456.267 287.472C460.464 289.634 482.47 310.368 485.904 308.842Z" fill="#00AEEF"/>
<path d="M367.99 475.346L408.821 478.399C414.672 478.781 467.333 476.873 485.395 477.636C486.667 470.513 485.395 470.258 482.979 463.39C482.343 461.736 481.579 460.082 480.689 458.683C478.272 443.292 473.82 427.901 472.803 412.255C471.276 389.741 476.746 367.354 477.509 344.839C477.891 332.374 475.983 318.254 465.934 311.004C458.683 305.789 448.635 305.534 440.112 308.206C414.163 316.474 393.175 348.019 397.627 375.367C400.299 392.285 414.291 407.294 411.747 424.212C410.347 434.388 403.224 442.529 396.737 450.415C394.447 453.214 392.158 456.012 389.868 458.81C388.596 459.319 387.324 460.082 386.052 460.718C379.311 464.916 373.205 469.877 367.99 475.346Z" fill="white"/>
<path d="M412.001 479.417C410.475 479.417 409.33 479.417 408.694 479.417L367.863 476.364C367.481 476.364 367.227 476.11 366.972 475.728C366.845 475.346 366.972 474.965 367.099 474.71C372.442 468.986 378.675 464.153 385.289 459.955C386.434 459.192 387.706 458.556 388.978 458.047L390.25 456.521C392.031 454.358 393.811 452.069 395.592 449.906L395.974 449.525C402.461 441.893 409.075 433.879 410.475 424.212C411.874 414.545 407.803 405.514 403.479 395.974C400.553 389.486 397.373 382.618 396.228 375.622C391.776 348.401 412.383 315.965 439.476 307.315C449.271 304.135 459.319 305.28 466.188 310.241C474.711 316.346 478.781 328.049 478.272 344.839C478.018 353.998 476.873 363.283 475.855 372.314C474.329 385.416 472.675 398.899 473.566 412.255C474.202 421.795 476.237 431.59 478.145 441.002C479.29 446.726 480.562 452.578 481.452 458.429C482.343 459.955 483.106 461.482 483.742 463.135C484.251 464.534 484.759 465.806 485.141 466.697C486.667 470.386 487.303 471.912 486.286 477.763C486.159 478.272 485.777 478.526 485.268 478.526C474.838 478.145 452.705 478.654 434.897 479.035C424.975 479.29 416.58 479.417 412.001 479.417ZM370.025 474.583L408.821 477.509C411.238 477.636 422.177 477.509 434.77 477.127C452.196 476.746 473.693 476.237 484.378 476.618C485.141 473.566 484.759 470.258 483.233 467.46C482.851 466.442 482.342 465.298 481.834 463.771C481.198 462.118 480.562 460.591 479.671 459.192C479.671 459.065 479.544 458.938 479.544 458.81C478.654 452.959 477.382 447.108 476.237 441.257C474.329 431.844 472.294 422.05 471.658 412.255C470.767 398.772 472.294 385.162 473.947 371.933C474.965 363.029 476.11 353.743 476.364 344.712C476.873 328.558 473.057 317.491 465.171 311.767C458.811 307.188 449.525 306.17 440.239 309.096C414.036 317.364 394.066 348.91 398.391 375.24C399.535 382.109 402.461 388.723 405.387 395.083C409.584 404.369 414.036 414.036 412.51 424.339C410.983 434.642 404.242 442.656 397.627 450.542L397.246 450.924C395.465 453.086 393.557 455.376 391.903 457.538L390.504 459.319C390.377 459.446 390.25 459.574 390.123 459.574C388.851 460.082 387.579 460.718 386.434 461.482C380.455 465.298 374.986 469.622 370.025 474.583Z" fill="#0054A6"/>
<path d="M310.368 380.328C307.061 373.332 304.517 364.428 297.14 362.393C296.122 367.99 297.012 373.714 299.811 378.547C294.341 374.35 287.981 370.915 281.112 370.661C274.244 370.406 266.866 374.222 264.576 380.71C262.032 387.96 266.612 396.355 273.099 400.426C279.586 404.496 287.727 405.386 295.486 405.768C303.245 406.15 311.131 406.404 318.255 409.457C323.724 411.746 328.303 415.69 333.646 418.234C338.988 420.778 345.603 421.922 350.564 418.742C354.252 416.453 356.924 408.948 352.98 405.514C350.309 403.097 341.914 404.369 338.352 403.351C326.141 400.044 315.965 391.649 310.368 380.328Z" fill="white"/>
<path d="M343.568 421.541C340.006 421.414 336.444 420.523 333.264 418.997C330.848 417.725 328.558 416.453 326.268 414.926C323.597 413.146 320.799 411.619 318 410.22C311.64 407.549 304.39 407.167 297.521 406.786L295.613 406.658C288.236 406.277 279.713 405.386 272.844 401.189C266.357 397.118 261.015 388.469 263.94 380.328C266.484 373.078 274.625 369.516 281.367 369.643C286.582 369.77 291.924 371.678 297.648 375.494C295.995 371.297 295.613 366.59 296.504 362.138C296.504 361.884 296.758 361.63 296.885 361.502C297.14 361.375 297.394 361.375 297.648 361.375C304.263 363.156 307.061 369.77 309.86 376.13C310.368 377.402 311.004 378.674 311.513 379.819C316.983 391.013 327.032 399.154 338.988 402.206C340.769 402.588 342.55 402.715 344.331 402.715C348.147 402.842 352.09 402.842 353.998 404.623C355.652 406.15 356.415 408.439 356.16 410.729C355.906 414.163 354.125 417.343 351.454 419.378C348.91 420.905 346.239 421.668 343.568 421.541ZM280.476 371.551C274.498 371.551 267.629 374.731 265.467 380.964C262.923 388.087 267.756 395.846 273.608 399.535C280.095 403.606 288.363 404.369 295.486 404.75L297.394 404.878C304.517 405.259 311.895 405.641 318.509 408.439C321.562 409.838 324.36 411.365 327.159 413.273C329.321 414.672 331.611 416.071 334.028 417.216C340.133 420.142 346.112 420.396 350.055 417.852C352.344 416.071 353.744 413.527 353.871 410.602C354.125 408.948 353.489 407.294 352.344 406.15C350.945 404.878 347.256 404.878 343.949 404.75C342.041 404.75 340.006 404.623 338.098 404.242C325.505 400.934 315.075 392.412 309.351 380.71C308.842 379.438 308.206 378.293 307.697 376.894C305.28 371.297 302.736 365.446 297.648 363.538C296.885 368.498 297.903 373.586 300.447 377.911C300.701 378.293 300.701 378.929 300.32 379.31C299.938 379.565 299.429 379.565 299.048 379.183C292.56 374.222 286.709 371.678 280.858 371.551H280.476Z" fill="#0054A6"/>
<path d="M474.329 410.093C477.127 413.654 475.474 419.124 472.039 421.922C468.605 424.721 463.899 425.484 459.447 425.866C446.091 426.883 432.735 425.484 419.506 423.958C415.69 423.576 406.913 422.304 411.111 416.834C414.291 412.764 425.357 415.69 429.809 415.69C444.819 415.817 459.828 413.909 474.329 410.093Z" fill="#0054A6"/>
<path d="M429.936 336.317C435.66 335.299 441.893 335.172 447.108 337.97C457.411 343.44 460.21 356.16 464.153 366.082C468.986 377.784 475.855 388.469 484.632 397.5C490.992 403.987 498.497 409.838 507.401 411.746C521.011 414.672 534.876 407.93 545.942 399.281C562.987 385.925 575.707 368.117 588.173 350.563C592.625 344.33 597.204 337.716 598.603 330.211C600.766 318.509 594.406 305.916 583.848 300.446C573.29 294.977 559.553 297.012 550.649 304.771C537.166 316.728 536.53 337.462 527.244 352.853C523.682 358.704 516.686 364.301 510.454 361.375C507.655 360.103 505.874 357.305 504.221 354.761C492.01 335.554 479.29 302.354 452.578 300.828C443.165 300.319 434.134 304.771 426.247 309.859C410.856 320.035 394.956 335.172 387.197 352.09C394.702 353.107 398.645 349.291 404.623 345.602C412.382 341.023 421.032 337.716 429.936 336.317Z" fill="white"/>
<path d="M514.143 413.273C511.853 413.273 509.563 413.018 507.274 412.51C499.387 410.856 491.883 406.022 483.996 398.009C475.092 388.85 468.096 378.038 463.263 366.336C462.499 364.428 461.863 362.52 461.1 360.485C457.92 351.835 454.74 342.931 446.599 338.734C442.529 336.571 437.059 336.062 430.063 337.207C421.287 338.734 412.891 341.914 405.259 346.62C404.369 347.256 403.479 347.765 402.588 348.401C397.882 351.454 393.939 354.125 387.197 353.234C386.943 353.234 386.688 352.98 386.434 352.726C386.307 352.471 386.307 352.09 386.434 351.835C393.303 336.698 407.676 321.18 425.866 309.223C436.042 302.482 444.564 299.556 452.705 299.938C474.838 301.21 487.685 323.851 497.988 342.168C500.405 346.493 502.822 350.69 505.111 354.252C506.511 356.542 508.291 359.34 510.963 360.612C517.068 363.41 523.555 357.305 526.481 352.471C530.17 346.366 532.459 339.37 534.749 332.628C538.183 322.198 541.745 311.513 550.14 304.135C559.68 295.867 573.163 294.086 584.484 299.683C595.423 305.28 602.038 318.509 599.748 330.466C598.222 338.352 593.388 345.221 589.063 351.199C576.725 368.626 563.878 386.688 546.706 400.171C538.438 406.404 526.608 413.273 514.143 413.273ZM436.805 334.663C440.494 334.536 444.183 335.426 447.49 337.08C456.267 341.659 459.701 351.326 462.881 359.849C463.644 361.884 464.28 363.792 465.043 365.573C469.75 377.148 476.746 387.706 485.395 396.737C493.027 404.496 500.278 409.202 507.655 410.729C522.029 413.782 536.148 405.768 545.307 398.518C562.351 385.162 575.071 367.354 587.283 349.927C591.48 344.076 596.187 337.462 597.586 329.957C599.748 318.89 593.515 306.552 583.339 301.21C572.782 295.994 560.062 297.648 551.158 305.407C543.271 312.403 539.837 322.452 536.403 333.137C534.113 340.006 531.696 347.129 528.007 353.362C523.937 360.103 516.432 365.318 510.072 362.266C506.892 360.739 504.984 357.686 503.458 355.27C501.168 351.581 498.751 347.51 496.335 343.058C485.777 324.233 473.693 302.99 452.578 301.846C444.946 301.464 436.678 304.262 426.883 310.75C409.457 322.325 395.719 336.953 388.723 351.454C393.939 351.708 397.246 349.546 401.443 346.747C402.334 346.111 403.224 345.602 404.115 344.966C411.874 340.133 420.523 336.826 429.555 335.299C431.971 334.918 434.388 334.663 436.805 334.663Z" fill="#0054A6"/>
<path d="M459.065 289.507C460.337 295.613 458.556 301.846 454.231 306.425C449.27 311.513 441.893 313.421 434.897 314.566C426.629 315.965 417.598 316.601 410.093 312.912C402.588 309.223 397.246 299.683 400.934 292.051C403.987 285.691 411.619 283.147 418.488 281.239C432.226 277.55 455.249 267.247 459.065 289.507Z" fill="#00AEEF"/>
<path d="M441.893 151.241C456.139 148.442 472.294 152.258 481.834 162.18C490.483 171.338 492.646 183.804 498.37 194.616C503.203 203.902 511.09 212.806 510.072 222.982C509.309 230.868 503.203 237.482 497.225 243.206C479.162 260.506 459.065 275.515 437.314 287.854C431.844 290.906 426.12 293.832 419.76 294.595C413.4 295.358 406.15 293.323 402.842 288.362C399.535 283.402 401.062 276.787 402.588 271.063C410.22 242.443 412.382 212.678 408.948 183.295C407.93 174.391 409.457 170.83 416.707 164.342C423.703 157.728 432.48 153.276 441.893 151.241Z" fill="#00AEEF"/>
<path d="M395.338 271.572C395.847 275.388 396.483 279.204 398.645 282.511C401.062 286.327 405.132 288.744 409.584 289.38C415.308 290.016 420.523 287.09 424.848 284.165C453.595 264.194 466.697 234.175 478.399 205.428C479.671 202.375 480.943 198.941 479.926 195.761C478.018 189.91 469.368 187.111 461.863 185.839C443.928 182.914 416.962 182.405 400.935 190.164C393.557 193.853 395.719 206.191 395.211 212.933C394.447 222.091 393.811 231.25 393.684 240.408C393.43 250.711 393.939 261.142 395.338 271.572Z" fill="white"/>
<path d="M411.238 290.27C410.729 290.27 410.093 290.27 409.584 290.143C404.878 289.507 400.553 286.963 397.882 282.893C395.847 279.458 394.702 275.515 394.32 271.572C392.921 261.142 392.412 250.711 392.539 240.154C392.667 232.013 393.175 223.363 394.066 212.678C394.193 211.279 394.193 209.371 394.193 207.59C394.193 200.722 394.066 192.326 400.426 189.274C415.817 181.769 442.402 181.642 461.991 184.822C469.368 186.094 478.654 188.892 480.816 195.379C481.961 199.068 480.562 202.757 479.29 205.682C466.315 237.482 453.341 265.466 425.484 284.801C421.795 287.472 416.835 290.27 411.238 290.27ZM437.059 184.694C423.703 184.694 410.475 186.475 401.316 190.927C396.101 193.471 396.101 201.23 396.228 207.59C396.228 209.498 396.228 211.279 396.101 212.933C395.211 223.618 394.702 232.267 394.575 240.281C394.32 250.711 394.956 261.142 396.355 271.445C396.864 275.006 397.5 278.822 399.535 282.002C401.825 285.564 405.641 287.854 409.839 288.362C415.435 288.998 420.651 285.946 424.467 283.274C451.942 264.194 464.789 236.465 477.636 204.919C478.781 202.248 480.053 198.941 479.035 195.888C477.127 190.037 467.333 187.493 461.736 186.602C453.595 185.33 445.327 184.694 437.059 184.694Z" fill="#0054A6"/>
<path d="M401.443 177.953C394.066 182.914 388.469 189.274 382.999 195.506C380.837 197.923 378.547 200.976 379.692 203.902C381.218 207.845 387.451 208.99 392.666 209.498L461.482 215.604C467.46 216.113 474.074 216.622 478.908 213.95C485.141 210.643 486.031 203.52 484.25 197.669C481.579 188.892 474.202 181.006 464.28 176.299C453.977 171.466 442.529 171.72 431.081 170.575C420.65 169.43 410.22 172.102 401.443 177.953Z" fill="#00AEEF"/>
<path d="M410.22 225.653C408.058 226.798 407.804 229.596 407.804 232.013C407.676 233.03 407.804 234.048 408.185 235.066C408.567 236.592 409.966 237.482 411.492 237.228C412.383 236.974 413.146 236.338 413.528 235.574C414.036 234.43 414.418 233.158 414.418 231.886C414.672 230.486 414.672 228.96 414.164 227.561C413.655 226.162 412.383 225.144 410.856 225.271" fill="#0054A6"/>
<path d="M430.318 226.67C428.155 227.815 427.901 230.614 427.901 233.03C427.901 234.048 427.901 235.066 428.283 236.083C428.537 237.101 429.427 237.864 430.445 238.246C431.717 238.373 432.989 237.737 433.625 236.592C434.134 235.447 434.515 234.175 434.515 232.903C434.77 231.504 434.77 229.978 434.261 228.578C433.752 227.179 432.48 226.162 430.954 226.289" fill="#0054A6"/>
<path d="M420.396 305.407C415.689 305.534 410.983 304.262 406.913 301.846C406.658 301.718 406.531 301.21 406.658 300.955C406.786 300.701 407.294 300.574 407.549 300.701C414.163 304.771 423.067 305.153 432.225 301.846C440.366 298.92 447.489 293.578 454.231 288.49C454.486 288.235 454.867 288.362 455.121 288.617C455.376 288.871 455.249 289.253 454.994 289.507C448.126 294.722 441.002 300.065 432.607 302.99C428.664 304.517 424.593 305.28 420.396 305.407Z" fill="#0054A6"/>
<path d="M291.797 392.412C291.67 392.412 291.415 392.285 291.288 392.158C285.818 385.925 278.059 382.363 269.791 381.982C269.41 381.982 269.155 381.727 269.155 381.346C269.155 380.964 269.41 380.71 269.791 380.71C278.441 381.091 286.582 384.907 292.306 391.267C292.56 391.522 292.56 391.903 292.306 392.158C292.178 392.285 292.051 392.412 291.797 392.412Z" fill="#0054A6"/>
<path d="M293.323 400.553C293.069 400.553 292.814 400.298 292.687 400.044C290.906 393.43 290.652 386.434 291.924 379.692C292.051 379.31 292.306 379.183 292.687 379.183C293.069 379.31 293.196 379.565 293.196 379.946C291.924 386.434 292.178 393.175 293.959 399.662C294.086 400.044 293.832 400.298 293.45 400.426L293.323 400.553Z" fill="#0054A6"/>
<path d="M429.173 261.014C428.282 262.286 426.883 263.177 425.484 263.686C423.322 264.194 420.65 263.177 418.997 264.576C417.852 265.848 417.852 267.629 418.87 268.901C420.014 270.173 421.541 270.682 423.194 270.554C424.848 270.3 426.374 269.791 427.646 268.901C429.682 267.756 431.59 266.357 433.116 264.576C434.515 262.795 436.678 258.979 434.642 256.944C432.607 254.909 430.19 259.742 429.173 261.014Z" fill="#0054A6"/>
<path d="M466.315 458.429C469.877 458.302 473.566 458.174 476.746 459.701C479.926 461.227 482.343 464.916 481.198 468.223C479.926 471.912 475.347 473.057 471.531 473.693L445.836 477.763C431.081 480.18 416.199 482.47 401.189 482.851C385.798 483.233 370.407 481.706 355.143 480.053L293.196 473.438C290.143 473.057 286.836 472.675 284.419 470.894C282.003 469.114 280.731 465.17 282.766 462.754C284.038 461.482 285.819 460.718 287.599 460.464C310.877 455.249 334.791 452.832 358.577 453.214C369.007 453.341 378.802 455.376 389.232 456.266C401.571 457.284 413.782 458.047 426.247 458.429C439.476 458.938 452.959 458.938 466.315 458.429Z" fill="#0054A6"/>
<path d="M399.281 475.346C395.211 475.346 391.14 475.092 387.197 474.456C386.815 474.329 386.561 474.074 386.561 473.693C386.688 473.311 386.943 473.057 387.324 473.057C398.645 474.965 410.22 473.566 421.414 472.166L469.368 466.442C470.895 466.315 472.421 465.934 473.184 465.043C473.566 464.534 473.566 463.771 473.184 463.135C473.057 462.881 472.803 462.626 472.421 462.626C472.039 462.626 471.658 462.372 471.658 461.99C471.658 461.609 471.912 461.227 472.294 461.227C473.184 461.1 474.075 461.609 474.456 462.372C475.092 463.517 474.965 464.789 474.329 465.806C473.184 467.206 471.276 467.587 469.495 467.842L421.541 473.566C414.163 474.71 406.786 475.219 399.281 475.346Z" fill="white"/>
<path d="M378.166 465.043C378.929 467.46 379.565 470.258 378.166 472.421C376.512 474.965 372.951 474.965 369.898 474.838C345.73 473.311 321.816 470.767 297.775 467.333C290.398 466.315 282.639 465.043 276.66 460.591C270.936 456.394 267.502 449.906 264.576 443.546C252.492 417.979 243.97 390.886 239.263 363.029C238.755 361.121 238.882 359.213 239.391 357.432C241.044 353.489 246.387 353.107 250.584 353.362L332.883 358.195C338.734 358.577 344.331 357.05 347.002 362.393C349.927 368.244 351.072 375.749 352.98 381.982L364.683 420.65L378.166 465.043Z" fill="#0054A6"/>
<path d="M554.973 274.752C551.921 272.335 548.614 270.173 546.451 266.993C544.289 263.813 543.907 258.852 546.96 256.435C550.394 253.764 555.61 255.926 558.535 259.234C561.461 262.541 563.369 266.738 566.93 269.282C568.075 262.795 566.93 256.054 566.294 249.566C565.658 243.079 565.531 235.956 568.457 230.105C571.382 224.254 578.633 219.929 584.865 222.218C589.953 223.999 592.879 229.596 593.388 234.938C593.897 240.281 592.243 245.623 590.589 250.838C595.041 246.895 599.621 242.952 605.217 241.298C610.814 239.645 617.81 241.044 620.99 246.005C623.28 249.821 622.898 254.654 621.117 258.725C619.337 262.795 616.411 266.102 613.613 269.537C601.401 284.419 591.225 300.955 583.593 318.636C582.067 322.325 580.541 326.014 577.742 328.812C574.944 331.61 570.746 333.391 567.057 331.992C558.153 328.685 568.457 311.131 568.457 304.262C568.329 293.196 563.623 281.875 554.973 274.752Z" fill="white"/>
<path d="M569.602 333.518C568.584 333.518 567.567 333.391 566.549 333.01C559.68 330.338 562.733 320.798 565.277 313.039C566.422 309.605 567.439 306.425 567.439 304.262C567.567 293.196 562.86 282.638 554.465 275.515C553.702 274.879 552.939 274.243 552.175 273.734C549.759 272.081 547.469 270.046 545.688 267.629C543.271 264.067 542.89 258.598 546.451 255.799C550.267 252.874 555.991 255.036 559.299 258.725C560.316 259.997 561.334 261.269 562.351 262.668C563.496 264.449 564.895 266.102 566.295 267.629C566.676 262.795 566.549 257.834 565.786 253.001C565.659 251.856 565.531 250.838 565.404 249.694C564.768 243.334 564.514 235.956 567.694 229.723C570.747 223.745 578.379 218.911 585.247 221.328C590.971 223.363 593.897 229.596 594.406 234.938C594.533 239.39 593.897 243.842 592.498 248.04C596.187 244.987 600.257 241.934 605.091 240.535C610.815 238.882 618.447 240.026 621.881 245.75C624.171 249.439 624.171 254.527 622.135 259.361C620.355 263.05 617.938 266.484 615.267 269.537L614.503 270.427C602.292 285.182 592.243 301.591 584.611 319.272L584.357 319.908C582.831 323.342 581.304 326.904 578.633 329.702C575.962 331.992 572.909 333.391 569.602 333.518ZM550.522 256.308C549.377 256.308 548.359 256.69 547.469 257.326C544.925 259.361 545.179 263.686 547.087 266.484C548.741 268.646 550.776 270.554 553.066 272.081C553.829 272.717 554.719 273.353 555.483 273.989C564.259 281.494 569.347 292.687 569.22 304.262C569.22 306.552 568.075 309.986 566.931 313.548C564.641 320.926 561.97 329.194 567.058 331.102C570.492 332.374 574.435 330.593 576.725 328.176C579.015 325.759 580.668 322.198 582.067 318.89L582.322 318.254C590.081 300.446 600.257 283.91 612.595 269.028L613.359 268.138C616.03 265.212 618.192 262.032 619.973 258.47C621.881 254.146 621.881 249.821 619.846 246.641C616.92 241.807 610.306 240.79 605.218 242.316C599.621 243.97 595.042 248.04 590.844 251.602C590.463 251.983 589.827 251.856 589.445 251.474C589.191 251.22 589.191 250.838 589.191 250.584C590.717 245.496 592.371 240.408 591.989 235.066C591.607 230.359 589.063 224.89 584.103 223.109C578.124 220.946 571.637 225.271 568.966 230.614C566.04 236.465 566.295 243.461 566.931 249.566C567.058 250.711 567.185 251.729 567.312 252.874C567.948 258.343 568.584 264.067 567.567 269.664C567.567 269.918 567.312 270.3 566.931 270.427C566.676 270.554 566.295 270.554 566.04 270.3C563.751 268.519 561.843 266.357 560.316 263.94C559.426 262.668 558.535 261.396 557.518 260.124C555.991 257.834 553.32 256.562 550.522 256.308Z" fill="#0054A6"/>
<path d="M600.384 278.568C600.13 278.568 599.875 278.441 599.875 278.186C594.66 268.265 583.721 262.668 572.527 264.322C572.146 264.322 571.891 264.194 571.764 263.813C571.637 263.431 571.891 263.177 572.273 263.05C583.975 261.269 595.423 267.12 600.893 277.55C601.02 277.805 600.893 278.186 600.638 278.441C600.638 278.568 600.511 278.568 600.384 278.568Z" fill="#0054A6"/>
<path d="M591.989 271.318C591.607 271.318 591.353 271.063 591.353 270.682C591.353 270.554 591.353 270.427 591.48 270.3C597.84 262.159 604.963 254.654 612.723 248.04C612.977 247.786 613.359 247.913 613.613 248.167C613.867 248.422 613.867 248.803 613.613 249.058C605.854 255.672 598.858 263.177 592.625 271.19C592.371 271.318 592.243 271.445 591.989 271.318Z" fill="#0054A6"/>
<path d="M577.361 264.322C576.979 264.322 576.725 264.067 576.725 263.813C575.58 252.874 576.089 241.807 578.379 230.995C578.506 230.614 578.76 230.359 579.142 230.486C579.523 230.614 579.778 230.868 579.651 231.25C577.361 241.934 576.852 252.746 577.997 263.558C577.997 263.94 577.743 264.322 577.361 264.322Z" fill="#0054A6"/>
</svg>
