<svg width="189" height="25" viewBox="0 0 189 25" fill="none" xmlns="http://www.w3.org/2000/svg">
<path d="M0 12C0.00165449 10.4092 0.634326 8.88405 1.75919 7.75919C2.88405 6.63433 4.40921 6.00166 6 6.00001H10.975C11.3388 5.97876 17.6775 5.53251 23.7137 0.470005C24.0052 0.225196 24.3605 0.0686557 24.7379 0.0187736C25.1153 -0.0311085 25.4991 0.0277392 25.8441 0.188404C26.1892 0.349069 26.4813 0.604877 26.6861 0.925779C26.8908 1.24668 26.9997 1.61935 27 2.00001V22C26.9999 22.3808 26.8912 22.7536 26.6866 23.0747C26.4819 23.3958 26.1898 23.6518 25.8447 23.8126C25.4996 23.9734 25.1157 24.0324 24.7382 23.9825C24.3607 23.9327 24.0053 23.7761 23.7137 23.5313C18.9925 19.5713 14.0887 18.4363 12 18.1188V22.0838C12.0004 22.4133 11.9194 22.7379 11.7641 23.0286C11.6088 23.3193 11.3841 23.5671 11.11 23.75L9.735 24.6663C9.46923 24.8436 9.16483 24.9548 8.84728 24.9903C8.52974 25.0259 8.2083 24.9849 7.90987 24.8706C7.61145 24.7564 7.34473 24.5724 7.13206 24.3339C6.91938 24.0955 6.76694 23.8095 6.6875 23.5L5.21625 17.955C3.77284 17.763 2.44828 17.0533 1.48882 15.958C0.529366 14.8626 0.000305085 13.4561 0 12ZM25 21.9913V2.00001C19.6487 6.48875 14.1713 7.625 12 7.905V16.09C14.1688 16.375 19.645 17.5088 25 21.9913ZM8.625 22.9913V23.005L10 22.0888V18H7.3L8.625 22.9913ZM6 16H10V8.00001H6C4.93913 8.00001 3.92172 8.42143 3.17157 9.17158C2.42143 9.92172 2 10.9391 2 12C2 13.0609 2.42143 14.0783 3.17157 14.8284C3.92172 15.5786 4.93913 16 6 16Z" fill="#71BF44"/>
<path d="M37.2002 3.744C37.9042 3.664 38.5602 3.6 39.1682 3.552C39.7922 3.488 40.4802 3.456 41.2322 3.456C42.1122 3.456 42.9762 3.536 43.8242 3.696C44.6882 3.856 45.4642 4.144 46.1522 4.56C46.8402 4.96 47.3922 5.512 47.8082 6.216C48.2402 6.904 48.4562 7.784 48.4562 8.856C48.4562 9.496 48.3762 10.064 48.2162 10.56C48.0562 11.04 47.8482 11.464 47.5922 11.832C47.3522 12.2 47.0882 12.52 46.8002 12.792C46.5122 13.048 46.2402 13.256 45.9842 13.416L45.5762 13.68L49.7762 20.976C49.4562 21.008 49.1202 21.04 48.7682 21.072C48.4162 21.104 48.0562 21.12 47.6882 21.12C47.0802 21.12 46.4802 21.072 45.8882 20.976L41.3762 12.96L41.9522 12.672C42.1762 12.56 42.4482 12.416 42.7682 12.24C43.0882 12.064 43.3922 11.848 43.6802 11.592C43.9842 11.32 44.2402 11 44.4482 10.632C44.6562 10.248 44.7602 9.8 44.7602 9.288C44.7602 8.28 44.4722 7.544 43.8962 7.08C43.3202 6.6 42.5762 6.36 41.6642 6.36C41.3122 6.36 40.9922 6.384 40.7042 6.432V21C40.4162 21.032 40.1282 21.056 39.8402 21.072C39.5522 21.104 39.2722 21.12 39.0002 21.12C38.7282 21.12 38.4402 21.112 38.1362 21.096C37.8322 21.08 37.5202 21.048 37.2002 21V3.744Z" fill="#0054A6"/>
<path d="M53.6241 3.744H63.4161C63.5121 4.224 63.5601 4.712 63.5601 5.208C63.5601 5.736 63.5121 6.24 63.4161 6.72H57.1281V10.464H62.1201C62.2161 10.976 62.2641 11.472 62.2641 11.952C62.2641 12.464 62.2161 12.968 62.1201 13.464H57.1281V18.024H63.5841C63.6801 18.504 63.7281 18.992 63.7281 19.488C63.7281 20.016 63.6801 20.52 63.5841 21H53.6241V3.744Z" fill="#0054A6"/>
<path d="M79.6941 17.736C79.9021 18.184 80.0701 18.648 80.1981 19.128C80.3421 19.592 80.4461 20.064 80.5101 20.544C79.6781 20.848 78.9261 21.048 78.2541 21.144C77.5981 21.24 76.8861 21.288 76.1181 21.288C74.7581 21.288 73.5661 21.072 72.5421 20.64C71.5181 20.192 70.6541 19.576 69.9501 18.792C69.2621 17.992 68.7421 17.048 68.3901 15.96C68.0381 14.872 67.8621 13.688 67.8621 12.408C67.8621 11.128 68.0461 9.944 68.4141 8.856C68.7821 7.752 69.3101 6.8 69.9981 6C70.7021 5.2 71.5581 4.576 72.5661 4.128C73.5901 3.68 74.7501 3.456 76.0461 3.456C76.8141 3.456 77.5181 3.504 78.1581 3.6C78.8141 3.696 79.5181 3.896 80.2701 4.2C80.2381 4.68 80.1421 5.152 79.9821 5.616C79.8221 6.064 79.6461 6.52 79.4541 6.984C78.8941 6.792 78.3981 6.656 77.9661 6.576C77.5341 6.496 77.0221 6.456 76.4301 6.456C74.8941 6.456 73.7101 6.96 72.8781 7.968C72.0621 8.96 71.6541 10.44 71.6541 12.408C71.6541 16.312 73.3101 18.264 76.6221 18.264C77.2141 18.264 77.7341 18.224 78.1821 18.144C78.6301 18.064 79.1341 17.928 79.6941 17.736Z" fill="#0054A6"/>
<path d="M85.05 3.744C85.642 3.648 86.21 3.6 86.754 3.6C87.314 3.6 87.898 3.648 88.506 3.744V17.976H94.482C94.53 18.248 94.562 18.512 94.578 18.768C94.594 19.008 94.602 19.24 94.602 19.464C94.602 19.72 94.594 19.976 94.578 20.232C94.562 20.472 94.53 20.728 94.482 21H85.05V3.744Z" fill="#0054A6"/>
<path d="M102.814 3.744C103.15 3.696 103.47 3.664 103.774 3.648C104.078 3.616 104.414 3.6 104.782 3.6C105.102 3.6 105.414 3.616 105.718 3.648C106.022 3.664 106.358 3.696 106.726 3.744L112.126 21C111.47 21.096 110.83 21.144 110.206 21.144C109.598 21.144 109.006 21.096 108.43 21L107.47 17.544H101.758L100.774 21C100.198 21.096 99.6459 21.144 99.1179 21.144C98.5259 21.144 97.9419 21.096 97.3659 21L102.814 3.744ZM106.654 14.64L104.662 7.392L102.574 14.64H106.654Z" fill="#0054A6"/>
<path d="M116.464 3.744C117.104 3.648 117.72 3.6 118.312 3.6C118.936 3.6 119.552 3.648 120.16 3.744L124.12 13.632L128.2 3.744C128.696 3.648 129.248 3.6 129.856 3.6C130.464 3.6 131.048 3.648 131.608 3.744L132.424 21C131.816 21.096 131.24 21.144 130.696 21.144C130.152 21.144 129.616 21.096 129.088 21L128.656 9.288L125.152 17.4C124.928 17.432 124.696 17.464 124.456 17.496C124.216 17.512 123.976 17.52 123.736 17.52C123.528 17.52 123.32 17.512 123.112 17.496C122.904 17.48 122.688 17.448 122.464 17.4L119.2 9.12L118.864 21C118.352 21.096 117.856 21.144 117.376 21.144C116.864 21.144 116.336 21.096 115.792 21L116.464 3.744Z" fill="#0054A6"/>
<path d="M137.521 3.744H147.313C147.409 4.224 147.457 4.712 147.457 5.208C147.457 5.736 147.409 6.24 147.313 6.72H141.025V10.464H146.017C146.113 10.976 146.161 11.472 146.161 11.952C146.161 12.464 146.113 12.968 146.017 13.464H141.025V18.024H147.481C147.577 18.504 147.625 18.992 147.625 19.488C147.625 20.016 147.577 20.52 147.481 21H137.521V3.744Z" fill="#0054A6"/>
<path d="M159.384 3.672C160.12 3.608 160.864 3.56 161.616 3.528C162.368 3.48 163.128 3.456 163.896 3.456C164.696 3.456 165.504 3.536 166.32 3.696C167.152 3.856 167.896 4.16 168.552 4.608C169.224 5.04 169.768 5.648 170.184 6.432C170.6 7.216 170.808 8.232 170.808 9.48C170.808 10.728 170.6 11.744 170.184 12.528C169.768 13.296 169.232 13.904 168.576 14.352C167.92 14.8 167.184 15.104 166.368 15.264C165.568 15.424 164.776 15.504 163.992 15.504C163.784 15.504 163.584 15.504 163.392 15.504C163.216 15.488 163.048 15.472 162.888 15.456V21C162.584 21.048 162.288 21.08 162 21.096C161.712 21.112 161.432 21.12 161.16 21.12C160.904 21.12 160.624 21.112 160.32 21.096C160.016 21.08 159.704 21.048 159.384 21V3.672ZM162.888 12.552C163.08 12.584 163.256 12.6 163.416 12.6C163.592 12.6 163.8 12.6 164.04 12.6C164.44 12.6 164.832 12.552 165.216 12.456C165.6 12.344 165.936 12.168 166.224 11.928C166.528 11.688 166.768 11.376 166.944 10.992C167.12 10.592 167.208 10.104 167.208 9.528C167.208 8.936 167.12 8.44 166.944 8.04C166.768 7.624 166.528 7.296 166.224 7.056C165.936 6.8 165.6 6.624 165.216 6.528C164.832 6.416 164.44 6.36 164.04 6.36C163.864 6.36 163.696 6.368 163.536 6.384C163.392 6.384 163.176 6.4 162.888 6.432V12.552Z" fill="#0054A6"/>
<path d="M184.777 12.048C185.369 11.952 185.945 11.904 186.505 11.904C187.065 11.904 187.649 11.952 188.257 12.048V20.52C187.425 20.824 186.553 21.024 185.641 21.12C184.745 21.232 183.961 21.288 183.289 21.288C181.881 21.288 180.649 21.072 179.593 20.64C178.537 20.192 177.657 19.576 176.953 18.792C176.249 17.992 175.721 17.048 175.369 15.96C175.017 14.872 174.841 13.688 174.841 12.408C174.841 11.128 175.025 9.944 175.393 8.856C175.761 7.752 176.289 6.8 176.977 6C177.681 5.2 178.537 4.576 179.545 4.128C180.569 3.68 181.729 3.456 183.025 3.456C183.793 3.456 184.505 3.504 185.161 3.6C185.833 3.696 186.529 3.896 187.249 4.2C187.217 4.68 187.121 5.152 186.961 5.616C186.801 6.064 186.625 6.52 186.433 6.984C185.873 6.792 185.377 6.656 184.945 6.576C184.513 6.496 184.001 6.456 183.409 6.456C181.873 6.456 180.689 6.96 179.857 7.968C179.041 8.96 178.633 10.44 178.633 12.408C178.633 14.376 179.041 15.848 179.857 16.824C180.673 17.784 181.873 18.264 183.457 18.264C183.729 18.264 183.969 18.248 184.177 18.216C184.401 18.184 184.601 18.152 184.777 18.12V12.048Z" fill="#0054A6"/>
</svg>
