<svg width="116" height="116" viewBox="0 0 116 116" fill="none" xmlns="http://www.w3.org/2000/svg">
<path d="M69.4144 103.17C69.252 102.15 68.2544 101.477 67.3032 101.059C64.1016 99.6672 60.5288 99.5048 57.2112 100.549C55.0536 101.245 53.012 102.892 50.7616 102.915C49.1376 102.915 47.5832 102.219 45.9824 102.034C39.7648 101.268 33.4312 101.709 27.376 103.31C26.0304 103.658 24.36 104.609 24.8704 106.001C25.1256 106.65 25.7056 107.138 26.4016 107.23C33.5704 108.46 41.0408 109.829 48.1168 107.996C49.5088 107.625 50.8544 106.906 52.2928 106.72C53.012 106.627 53.7544 106.79 54.4736 106.836C58.5104 107.045 62.64 107.254 66.5376 106.14C67.976 105.699 69.6465 104.655 69.4144 103.17Z" fill="white"/>
<path d="M40.5307 109.063C36.0067 109.063 31.4131 108.274 26.9355 107.509L26.3555 107.416C25.5899 107.3 24.9635 106.79 24.6851 106.07C24.5227 105.653 24.5691 105.189 24.7779 104.771C25.3347 103.727 26.8659 103.263 27.3299 103.124C33.4083 101.523 39.7651 101.106 46.0059 101.848C46.6787 101.941 47.3747 102.08 48.0243 102.266C48.9059 102.521 49.8339 102.683 50.7619 102.73C52.1539 102.73 53.4995 102.057 54.7987 101.407C55.5643 101.013 56.3531 100.665 57.1651 100.363C60.5291 99.296 64.1483 99.4816 67.3731 100.874C68.7187 101.454 69.4611 102.219 69.5771 103.101C69.8091 104.725 68.0923 105.815 66.5379 106.256C62.5707 107.393 58.4179 107.184 54.4043 106.975C54.1491 106.952 53.9171 106.929 53.6619 106.906C53.1979 106.836 52.7107 106.813 52.2467 106.859C51.3883 106.998 50.5763 107.23 49.7875 107.578C49.2307 107.787 48.6739 107.973 48.1171 108.135C45.6347 108.785 43.0827 109.086 40.5307 109.063ZM40.0435 101.825C35.7747 101.825 31.5523 102.358 27.4227 103.449C26.5411 103.681 25.4739 104.191 25.0795 104.91C24.9171 105.212 24.8939 105.583 25.0099 105.931C25.2419 106.534 25.7755 106.952 26.4019 107.045L26.9819 107.138C33.9651 108.344 41.1803 109.574 48.0243 107.81C48.5811 107.648 49.1147 107.462 49.6483 107.254C50.4603 106.906 51.3187 106.674 52.2003 106.534C52.7107 106.488 53.1979 106.511 53.7083 106.581C53.9403 106.604 54.1955 106.627 54.4275 106.65C58.4179 106.859 62.5243 107.091 66.4451 105.954C67.9763 105.514 69.4379 104.493 69.2291 103.17C69.1131 102.405 68.4403 101.732 67.2107 101.198C64.0555 99.8296 60.5059 99.6672 57.2347 100.688C56.4459 100.966 55.6571 101.314 54.9147 101.709C53.5691 102.382 52.2003 103.054 50.7155 103.054C49.7643 103.054 48.8131 102.822 47.9083 102.59C47.2587 102.405 46.5859 102.266 45.9363 102.173C43.9875 101.941 42.0155 101.825 40.0435 101.825Z" fill="#004812"/>
<path d="M39.997 47.3744C40.2754 49.4624 40.7162 51.5504 41.5978 53.4528C44.1962 58.9976 50.2282 62.06 56.237 60.9L56.7706 63.5912C54.4042 64.4728 51.8522 64.7512 49.3466 64.4032C46.841 64.032 44.4978 62.9184 42.6418 61.1552C40.9018 59.4616 39.765 57.2112 39.0458 54.8912C38.5586 53.3136 38.3266 51.6896 37.9786 50.0656C37.7234 48.9056 37.3058 47.7688 37.097 46.6088C36.981 45.8896 36.8186 45.0312 37.6538 44.7528C39.2314 44.2192 39.8346 46.284 39.997 47.3744Z" fill="#004812"/>
<path d="M50.3442 51.2024C51.133 50.4136 51.945 49.6248 52.9194 49.1376C55.1002 48.0472 57.6754 48.5808 60.0418 49.1144C60.6218 49.2536 61.3178 49.4856 61.3874 50.0888C61.457 50.576 61.0858 50.9936 60.7378 51.3184L54.5202 57.2344C53.337 58.3712 52.1074 59.5312 50.5762 60.1808C49.045 60.8304 47.3282 60.9 45.681 60.7376C44.6834 60.6216 41.4586 60.5752 42.4098 59.1136C43.361 57.652 45.1706 56.376 46.4002 55.1464L50.3442 51.2024Z" fill="#004812"/>
<path d="M47.1425 104.423C47.4209 104.748 47.7225 105.142 47.5601 105.537C47.4209 105.815 47.0961 106.001 46.7945 105.954C46.4697 105.908 46.1913 105.815 45.9129 105.63C43.9409 104.586 42.1545 103.263 40.5769 101.709C40.2289 101.361 39.8577 100.897 39.9505 100.41C40.0665 99.8528 40.7161 99.5976 41.2729 99.5744C41.7369 99.5512 42.4329 99.3888 42.8737 99.5744C43.3609 99.8064 43.8713 100.688 44.2193 101.082L47.1425 104.423Z" fill="#004812"/>
<path d="M37.2131 102.73L39.6955 102.335C35.7051 94.9112 33.6403 86.8608 33.6635 78.8104C33.6635 78.3464 33.7331 77.7664 34.2667 77.5344C34.8699 77.256 35.6123 77.604 36.1459 77.952C42.7811 82.3368 45.5883 89.9232 42.9667 96.396C42.4795 97.5792 41.8299 98.7624 41.7371 99.992C41.6443 101.222 42.5723 101.732 44.0107 102.289C45.2867 98.5536 46.2843 95.7 46.7019 91.8488C47.1195 87.9976 46.6323 84.0072 44.4979 80.5272C43.0363 78.1376 40.8555 76.0496 38.6747 74.008C37.7467 73.1264 36.7723 72.2216 35.4499 71.7576C33.1995 70.9688 27.7707 71.6416 26.7731 73.7528C26.2395 74.8896 27.3995 76.6296 27.7939 77.6968L29.6499 82.6384L37.2131 102.73Z" fill="#004812"/>
<path d="M38.141 100.479C37.561 100.456 37.0042 100.758 36.7026 101.245C36.3778 101.802 36.4706 102.521 36.3778 103.147C36.285 103.797 36.0066 104.4 35.589 104.91C35.4266 105.073 35.2874 105.258 35.1714 105.444C35.0554 105.63 35.009 105.862 35.0554 106.094C35.1482 106.395 35.473 106.558 35.7978 106.674C37.1666 107.114 38.6746 106.929 40.113 106.72C40.4842 106.674 40.8786 106.604 41.1338 106.349C41.5282 105.931 41.4354 105.282 41.273 104.725C40.9714 103.774 40.5538 102.892 40.0202 102.057C39.5562 101.384 38.9994 100.526 38.141 100.479Z" fill="#004812"/>
<path d="M34.2666 79.1816C34.2202 79.1816 34.1738 79.1584 34.1506 79.112C33.385 77.2096 32.4338 75.3768 31.3202 73.6368C31.2738 73.5904 31.297 73.5208 31.3434 73.4744C31.3898 73.4512 31.4594 73.4512 31.5058 73.4976C32.573 75.1448 33.501 76.908 34.2434 78.7176C34.8698 76.8384 34.8002 74.7968 34.0346 72.964C34.0114 72.9176 34.0346 72.848 34.081 72.8016C34.1274 72.7784 34.197 72.8016 34.2434 72.848V72.8712C35.0554 74.8432 35.1018 77.0704 34.3362 79.0888C34.3594 79.1352 34.313 79.1816 34.2666 79.1816Z" fill="white"/>
<path d="M36.5167 43.7551C37.7463 43.9871 38.6511 45.0775 38.6511 46.3303C38.7439 53.9399 39.2079 61.5959 41.3655 68.9039C41.6671 69.9479 42.0151 71.0615 41.6671 72.0823C41.2959 73.1727 40.2519 73.8919 39.2079 74.4023C34.8695 76.5135 29.8119 76.6527 25.3575 74.7967C24.0119 74.2167 22.6663 73.3815 22.0863 72.0359C21.5063 70.6903 21.8079 69.2055 22.1327 67.8135C23.2231 63.2663 24.6383 58.7655 26.7959 54.6127C28.2575 51.7127 30.1367 49.0447 32.3407 46.6551C33.1991 45.7503 34.2431 44.4511 35.4031 43.9175C35.7743 43.7319 36.1455 43.6855 36.5167 43.7551Z" fill="white"/>
<path d="M31.8534 76.2584C29.603 76.2584 27.3758 75.8176 25.2878 74.936C23.5246 74.1936 22.4342 73.2424 21.9238 72.0824C21.3438 70.7136 21.6222 69.1824 21.9702 67.744C23.1998 62.524 24.731 58.1856 26.6566 54.4968C28.1414 51.5968 29.9974 48.9056 32.2246 46.516C32.3638 46.3536 32.5262 46.1912 32.6886 46.0288C33.4774 45.1704 34.359 44.196 35.3566 43.732C35.7278 43.5696 36.1455 43.5 36.5631 43.5928C37.8855 43.848 38.8366 45.008 38.8366 46.3536C38.9062 53.2208 39.3007 61.2712 41.5511 68.8576L41.5742 68.904C41.8758 69.9248 42.2238 71.0848 41.8526 72.152C41.435 73.4048 40.2054 74.124 39.3006 74.5648C36.9806 75.6784 34.4286 76.2584 31.8534 76.2584ZM36.1454 43.8944C35.9134 43.8944 35.7046 43.9408 35.4958 44.0336C34.5678 44.4744 33.7094 45.4024 32.9438 46.2608C32.7814 46.4464 32.6422 46.6088 32.4798 46.748C30.2758 49.1144 28.4198 51.7824 26.9582 54.6592C25.0558 58.3248 23.5478 62.64 22.3182 67.8368C21.9934 69.2288 21.715 70.6904 22.2486 71.9664C22.7126 73.0568 23.7566 73.9152 25.427 74.6344C29.835 76.4904 34.823 76.3512 39.1382 74.2632C39.9734 73.8456 41.1334 73.1728 41.5046 72.0592C41.8294 71.108 41.5047 70.0408 41.2031 69.0432L41.1798 68.9968C38.9062 61.364 38.535 53.2904 38.4422 46.4C38.4422 45.2168 37.607 44.2192 36.4702 43.9872C36.3774 43.9176 36.2614 43.8944 36.1454 43.8944Z" fill="#004812"/>
<path d="M40.6231 40.4144C39.6719 41.5512 38.2334 42.7808 36.8878 42.1776C35.8206 41.7136 35.519 40.3912 35.3566 39.2312C34.6606 34.1736 34.6142 29.0464 35.2174 23.9656C35.4494 21.9472 35.867 19.8128 37.2358 18.3048C38.3958 17.0288 40.0662 16.4024 41.6902 15.8224C43.8478 15.08 46.1214 14.384 48.3719 14.7552C50.251 15.0568 51.875 16.24 52.7102 17.98C53.5222 19.6272 52.7334 20.8104 52.0142 22.4112C50.135 26.5408 47.9078 30.508 45.3558 34.2432C43.8478 36.3544 42.2935 38.4192 40.6231 40.4144Z" fill="white"/>
<path d="M37.6306 42.5024C37.3522 42.5024 37.0738 42.4328 36.7954 42.3168C35.6354 41.8064 35.3106 40.4144 35.1482 39.2312C34.4522 34.1504 34.4058 29 35.009 23.9192C35.2642 21.8312 35.6818 19.6736 37.0738 18.1656C38.2338 16.8664 39.881 16.24 41.5978 15.6368C43.7554 14.8944 46.0754 14.1984 48.349 14.5696C50.2978 14.8712 51.9682 16.1008 52.8266 17.8872C53.569 19.4184 53.0122 20.5552 52.3858 21.8776C52.293 22.0632 52.2002 22.2488 52.1306 22.4344C50.2514 26.564 48.0242 30.5312 45.4722 34.2896C44.0106 36.424 42.433 38.512 40.7626 40.5072C39.9274 41.4816 38.8138 42.5024 37.6306 42.5024ZM47.0498 14.8248C45.2402 14.8248 43.4306 15.3816 41.7138 15.9848C40.0434 16.5648 38.4426 17.1912 37.329 18.3976C36.0066 19.8592 35.6122 21.924 35.357 23.9656C34.7538 29.0232 34.8002 34.1504 35.4962 39.1848C35.6354 40.252 35.937 41.5512 36.9346 41.992C38.2106 42.5488 39.5562 41.3888 40.4842 40.2752C42.1314 38.3032 43.7322 36.2152 45.1706 34.104C47.7226 30.3688 49.9498 26.4248 51.8058 22.3184C51.8986 22.1328 51.9914 21.924 52.0842 21.7384C52.7106 20.4392 53.1978 19.4184 52.525 18.0264C51.713 16.356 50.1354 15.196 48.3026 14.9176C47.885 14.848 47.4674 14.8248 47.0498 14.8248Z" fill="#004812"/>
<path d="M49.9727 18.6528C49.7871 18.0728 49.1375 17.5856 48.5575 17.7944C48.0239 17.98 47.8383 18.6296 47.7223 19.1864C47.3743 20.9496 47.1655 22.7592 47.1423 24.5688L36.1919 23.0376C35.8207 23.0144 35.4727 22.9216 35.1479 22.7592C34.8695 22.5736 34.6143 22.3416 34.4287 22.0632C31.3199 18.0032 32.0855 12.18 36.1455 9.04797C37.0271 8.37517 38.0247 7.86477 39.1151 7.53997C41.5279 6.82077 44.1495 7.09917 46.5623 7.79517C48.5343 8.37517 50.5063 9.27997 51.8983 10.788C53.2903 12.296 54.0327 14.5464 53.3599 16.4952C53.9167 15.7064 55.0767 15.4744 55.9583 15.892C56.8399 16.3096 57.4199 17.2144 57.6055 18.1656C57.7447 19.14 57.6287 20.1144 57.2575 21.0192C56.7007 22.5272 55.7959 23.8728 54.5663 24.9168C54.4039 24.2208 54.2415 23.5016 54.0791 22.8056C54.4503 22.156 54.8447 21.46 54.8911 20.7176C54.9375 19.9752 54.5199 19.14 53.7775 18.9544C53.0351 18.7688 52.3855 19.2792 51.8983 19.8128C51.5967 20.1608 50.5063 21.7384 49.9959 21.1584C49.5783 20.7408 50.1583 19.256 49.9727 18.6528Z" fill="#004812"/>
<path d="M47.0265 30.4848C46.9569 30.624 46.8641 30.74 46.7481 30.856C46.6321 30.9488 46.4465 30.972 46.3305 30.8792C46.1913 30.7632 46.1913 30.5312 46.2377 30.3456C46.3305 29.928 46.7713 28.0952 47.3281 28.304C48.1169 28.5824 47.1889 30.1832 47.0265 30.4848Z" fill="#004812"/>
<path d="M42.5491 28.4431C42.4795 28.6983 42.3403 28.9767 42.0851 29.0463C41.8531 29.0695 41.6443 28.9535 41.5515 28.7447C41.4819 28.5359 41.4587 28.3039 41.5051 28.0951C41.5747 27.6775 41.9459 26.2159 42.5723 26.4943C43.1987 26.7263 42.6651 28.0487 42.5491 28.4431Z" fill="#004812"/>
<path d="M39.6491 37.6072C39.2315 38.0016 38.6515 38.1175 38.1179 37.9087C37.6075 37.6999 37.2131 37.2591 37.0739 36.7255C36.9347 36.1919 37.0043 35.6351 37.2595 35.1479C37.6771 35.2639 39.7419 37.5144 39.6491 37.6072Z" fill="#004812"/>
<path d="M36.4472 27.26C36.1224 27.5152 35.7512 27.724 35.3568 27.8168C34.9624 27.9096 34.5216 27.84 34.1736 27.6312C33.8024 27.3528 33.5704 26.9352 33.5008 26.4712C33.3616 25.7056 33.6632 24.94 34.2664 24.476C34.8696 24.0352 35.8208 24.1048 36.308 24.708" fill="white"/>
<path d="M34.9856 28.0256C34.6608 28.0256 34.336 27.9328 34.0808 27.7704C33.6632 27.4688 33.408 27.0048 33.3384 26.4944C33.1992 25.6824 33.524 24.8472 34.1736 24.3368C34.8928 23.8264 35.9368 23.9424 36.4472 24.592C36.5168 24.6616 36.4936 24.7776 36.424 24.8472C36.3544 24.9168 36.2384 24.8936 36.1688 24.824C35.7744 24.3368 34.9392 24.244 34.3824 24.6384C33.8256 25.0792 33.5704 25.7752 33.6864 26.4712C33.7328 26.8888 33.9416 27.26 34.2896 27.5152C34.6144 27.7008 34.9856 27.7704 35.3336 27.6776C35.7048 27.5848 36.0528 27.3992 36.3544 27.1672C36.424 27.0976 36.54 27.1208 36.6096 27.1904C36.6792 27.26 36.656 27.376 36.5864 27.4456C36.2616 27.724 35.844 27.9328 35.4264 28.0256C35.264 28.0024 35.1248 28.0256 34.9856 28.0256Z" fill="#004812"/>
<path d="M35.1712 27.0744C34.6376 27.0744 34.1968 26.6104 34.1968 26.0768C34.1968 25.5432 34.6608 25.1024 35.1944 25.1024C35.2872 25.1024 35.38 25.1256 35.4496 25.1488C35.5192 25.172 35.5424 25.2416 35.5192 25.288C35.496 25.3576 35.4264 25.3808 35.38 25.3576C34.9856 25.2416 34.568 25.4736 34.452 25.868C34.336 26.2624 34.568 26.68 34.9624 26.796C35.032 26.8192 35.1016 26.8192 35.1712 26.8192C35.2408 26.8192 35.2872 26.8656 35.2872 26.9352C35.2872 27.0048 35.2408 27.0512 35.1712 27.0512V27.0744Z" fill="#004812"/>
<path d="M33.0832 52.3856C32.5264 53.4528 32.3872 54.8216 33.0368 55.8656C33.8024 57.0024 35.2872 57.42 36.54 56.8632C37.7696 56.26 38.4192 54.8912 38.1408 53.5456C37.6072 51.1792 34.3592 49.9264 33.0832 52.3856Z" fill="#004812"/>
<path d="M34.0808 52.8264C33.988 52.896 33.9184 52.9888 33.872 53.1048C33.8256 53.2208 33.8488 53.3368 33.9648 53.4296C34.1968 53.592 34.4984 53.1512 34.7536 53.244C34.916 53.3136 34.9856 53.5224 34.916 53.6848C34.916 53.6848 34.916 53.708 34.8928 53.708C34.8 53.8704 34.6608 53.9864 34.5216 54.0792C34.336 54.2184 34.1968 54.404 34.104 54.6128C34.0112 54.8216 34.0344 55.0768 34.1736 55.2624C34.336 55.448 34.5912 55.4712 34.7768 55.332C34.8696 55.216 34.9392 55.0768 34.9392 54.9376C34.9624 54.7984 35.0088 54.6592 35.1016 54.5432C35.1944 54.4272 35.3568 54.404 35.4728 54.4968C35.5424 54.5664 35.5424 54.6824 35.5192 54.7752C35.4496 55.0536 35.2408 55.3784 35.4032 55.6104C35.5424 55.7728 35.7976 55.7728 35.96 55.6336C36.0992 55.4944 36.192 55.2856 36.1688 55.0768C36.1456 54.868 36.076 54.6824 36.0064 54.4736C35.9368 54.3344 35.9136 54.172 35.96 54.0096C36.0064 53.8704 36.1456 53.7776 36.2848 53.8008C36.308 53.8008 36.308 53.8008 36.3312 53.824C36.4936 53.9168 36.424 54.172 36.5168 54.3576C36.6328 54.5432 36.888 54.6128 37.0736 54.4968C37.0968 54.4736 37.12 54.4736 37.1432 54.4504C37.3056 54.2648 37.352 54.0096 37.2592 53.7776C37.1664 53.5688 37.004 53.36 36.7952 53.244C36.6328 53.128 36.4472 52.9888 36.4472 52.8032C36.4472 52.6408 36.5864 52.5016 36.5864 52.3392C36.5864 52.1768 36.4936 52.0376 36.3544 51.9912C36.2152 51.9448 36.0528 52.0144 35.9832 52.1536C35.96 52.2464 35.9136 52.3392 35.8904 52.432C35.8672 52.5248 35.7744 52.6176 35.6816 52.5944C35.5888 52.5712 35.5424 52.432 35.5656 52.3392C35.612 52.2464 35.6352 52.1304 35.6352 52.0144C35.5656 51.272 34.22 52.7104 34.0808 52.8264Z" fill="#004812"/>
<path d="M34.5913 44.1264C35.6121 44.3816 35.9601 45.7504 35.5193 46.7248C35.0785 47.6992 34.1737 48.3024 33.3153 48.9056C28.7913 52.1072 24.8241 56.028 21.5993 60.5288C20.8569 61.5496 20.1609 62.64 19.8825 63.8928C19.6041 65.1456 19.8825 66.5608 20.8569 67.3728C22.2489 68.5328 24.3369 68.0456 25.9841 67.3496C30.8097 65.3312 35.0785 62.2224 39.3009 59.1136C40.7393 59.5776 41.1569 61.596 40.4841 62.9648C39.8113 64.3336 38.4425 65.192 37.1201 65.9808C33.8025 67.9528 30.4617 69.9248 26.7961 71.1544C25.1257 71.7112 23.3393 72.1288 21.5761 71.92C19.8129 71.7112 18.0729 70.8528 17.1681 69.3216C16.1705 67.6512 16.3329 65.5168 16.8665 63.6376C18.1889 58.9512 21.3905 55.1464 24.7777 51.7592C26.7961 49.8104 31.4129 43.3144 34.5913 44.1264Z" fill="#004812"/>
<path d="M41.2497 55.1232C41.8761 54.3344 42.6417 53.592 43.6161 53.3368C44.5905 53.0816 45.7969 53.4296 46.2145 54.3576C46.6321 55.2856 45.9129 56.5848 44.9153 56.492C47.5137 57.1416 49.9961 58.1624 52.2929 59.5312C52.8961 59.8792 53.4993 60.2968 53.8705 60.8768C54.2417 61.4568 54.3809 62.2688 53.9865 62.8488C53.3833 63.7536 52.0841 63.6144 51.0169 63.684C49.3929 63.7768 47.8849 64.5192 46.3769 65.0992C43.4769 66.2128 40.0201 66.0736 38.9065 62.6168C38.1873 60.2968 39.9041 56.8632 41.2497 55.1232Z" fill="white"/>
<path d="M43.2914 65.888C42.5258 65.9112 41.7602 65.7488 41.041 65.424C39.9506 64.9136 39.185 63.9856 38.7674 62.6632C38.0018 60.2736 39.7418 56.7936 41.1106 55.0072C41.8994 53.9864 42.7114 53.3832 43.5698 53.1512C44.5674 52.896 45.8898 53.244 46.377 54.2648C46.6322 54.8448 46.5394 55.4944 46.1682 56.0048C46.029 56.2136 45.8434 56.376 45.6346 56.492C48.001 57.1416 50.2514 58.116 52.3626 59.3688C52.9426 59.7168 53.5922 60.1344 54.0098 60.7608C54.4042 61.3408 54.5898 62.2456 54.1258 62.9184C53.569 63.7536 52.4786 63.7768 51.5274 63.8232C51.3418 63.8232 51.1794 63.8232 51.017 63.8464C49.7178 63.916 48.4882 64.4264 47.2818 64.9136C47.0034 65.0296 46.7018 65.1456 46.4234 65.2616C45.449 65.656 44.3818 65.8648 43.2914 65.888ZM44.2658 53.4296C44.057 53.4296 43.8714 53.4528 43.6858 53.4992C42.897 53.708 42.1314 54.2648 41.389 55.216C40.0666 56.9328 38.373 60.2968 39.0922 62.5472C39.4866 63.7536 40.1826 64.612 41.2034 65.0992C42.5258 65.7256 44.405 65.6792 46.3306 64.9136C46.609 64.7976 46.9106 64.6816 47.189 64.5656C48.4186 64.0784 49.6946 63.5448 51.0402 63.4752C51.2026 63.4752 51.3882 63.452 51.5506 63.452C52.4786 63.4288 53.4298 63.4056 53.8706 62.7096C54.2418 62.1528 54.0794 61.4336 53.7546 60.9464C53.3834 60.3896 52.7802 59.9952 52.2234 59.6704C49.9498 58.3016 47.4674 57.2808 44.8922 56.6544C44.7994 56.6312 44.7298 56.5384 44.753 56.4456C44.7762 56.3528 44.869 56.2832 44.9618 56.3064C45.3562 56.3296 45.7042 56.144 45.913 55.8192C46.2146 55.4248 46.2842 54.8912 46.0754 54.4272C45.7506 53.7312 44.985 53.4064 44.2658 53.4296Z" fill="#004812"/>
<path d="M45.0778 58.3712C45.0546 58.3712 45.0082 58.348 44.985 58.3248C44.9386 58.2784 44.9386 58.2088 44.985 58.1624L51.5274 51.968C52.3162 51.2256 53.1978 50.3672 54.2882 49.9496C55.9586 49.3 57.745 49.6712 59.7634 50.1816C59.833 50.2048 59.8562 50.2512 59.8562 50.3208C59.8562 50.3904 59.7866 50.4136 59.717 50.4136C57.745 49.9264 56.005 49.5552 54.381 50.1816C53.337 50.5992 52.4554 51.4112 51.6898 52.1536L45.1474 58.348C45.1242 58.348 45.101 58.348 45.0778 58.3712Z" fill="#004812"/>
<path d="M57.7219 56.4456C58.8819 54.288 60.7379 52.3856 63.0811 51.6896C63.5915 51.5504 64.1947 51.4575 64.6123 51.7823C64.9835 52.0839 65.1691 52.5712 65.0763 53.0352C64.9835 53.4992 64.8211 53.9399 64.5427 54.3343C63.2667 56.492 61.6427 58.4176 59.7171 59.9952C60.1115 59.8792 60.5291 59.8328 60.9467 59.8792C61.3643 59.9256 61.7123 60.204 61.8747 60.5984C62.0371 61.1088 61.6427 61.6423 61.2715 62.0135C60.2739 62.9647 57.0027 65.2615 56.0515 63.22C55.2163 61.3408 56.8635 58.0928 57.7219 56.4456Z" fill="white"/>
<path d="M57.3739 64.2408C57.2579 64.2408 57.1419 64.2408 57.0027 64.2176C56.5155 64.1248 56.0979 63.7768 55.9123 63.3128C55.0539 61.4336 56.4459 58.464 57.5595 56.376C58.8819 53.8936 60.8307 52.1768 63.0115 51.5272C63.7307 51.3184 64.2875 51.3416 64.6819 51.6432C65.0995 51.9912 65.3083 52.5248 65.2155 53.0584C65.1227 53.5456 64.9371 54.0096 64.6587 54.4272C63.4987 56.4224 62.0139 58.1856 60.2971 59.7168C60.5059 59.6936 60.7379 59.6936 60.9467 59.7168C61.4339 59.7632 61.8515 60.088 62.0139 60.552C62.1531 61.0392 61.9211 61.596 61.3643 62.1528C60.6683 62.8952 58.7891 64.2408 57.3739 64.2408ZM63.8699 51.736C63.6147 51.736 63.3595 51.7824 63.1275 51.852C61.0395 52.4784 59.1603 54.1256 57.8843 56.5152C57.2579 57.6752 55.3555 61.2016 56.2371 63.1504C56.3763 63.5216 56.7011 63.7768 57.0955 63.8464C58.3947 64.1016 60.4363 62.6168 61.1787 61.8976C61.5035 61.5728 61.8747 61.0856 61.7587 60.6448C61.6195 60.32 61.3179 60.088 60.9699 60.0416C60.5755 60.0184 60.1811 60.0416 59.8099 60.1576C59.7403 60.1808 59.6475 60.1344 59.6243 60.0648C59.5779 59.9952 59.6011 59.9024 59.6707 59.856C61.5731 58.2784 63.1971 56.376 64.4499 54.2416C64.7051 53.8704 64.8675 53.4528 64.9603 53.012C65.0299 52.5944 64.8907 52.1768 64.5659 51.9216C64.3339 51.7824 64.1019 51.736 63.8699 51.736Z" fill="#004812"/>
<path d="M63.1967 46.0056C62.9415 46.3072 62.5471 46.6552 62.1527 46.3536C62.0599 46.284 61.9671 46.168 61.9207 46.052C61.6423 45.4488 61.4103 44.8456 61.2247 44.2192C61.1087 43.7552 60.6911 43.4536 60.2271 43.4304C58.8815 43.4304 57.3735 43.5 56.0975 43.4536C55.6567 43.4304 55.2159 43.4072 54.8679 43.1288C54.4503 42.7576 54.5431 41.5048 54.4967 40.948C54.2879 38.3728 54.2183 35.8208 54.2183 33.2224C54.2183 32.2016 54.2879 31.088 54.9839 30.3688C55.7031 29.6032 56.8631 29.5568 57.8839 29.5568C62.7327 29.5568 63.4519 29.6032 68.3007 29.6032C69.6463 29.6032 71.1775 29.696 71.9895 30.7864C72.4999 31.4824 72.5927 32.4104 72.6623 33.292C72.8711 35.8672 72.7551 38.4192 72.6391 41.0176C72.6159 41.6672 72.5463 42.3864 72.1519 42.8968C71.6879 43.5 70.8991 43.6856 70.1567 43.7784C68.3007 44.0568 67.1407 43.8248 66.2127 43.7552C65.7255 43.7088 65.1455 43.5464 64.7279 43.8944C64.4263 44.1264 64.2639 44.544 64.0783 44.8456C63.7999 45.24 63.5215 45.6344 63.1967 46.0056Z" fill="#004812"/>
<path d="M60.1806 35.2872C60.4126 33.8952 60.8766 32.3872 62.083 31.6448C63.1734 31.0184 64.5422 31.1576 65.4702 32.016C66.3518 32.8512 66.5838 34.1504 66.7462 35.3568C66.9086 36.5632 67.0246 37.8624 67.767 38.8136C67.9758 39.092 68.2542 39.3936 68.1614 39.7416C68.0686 40.1128 67.5814 40.2288 67.2102 40.2752C64.867 40.5072 62.5238 40.5536 60.2038 40.4376C59.7398 40.4144 59.0206 40.3448 58.8814 39.788C58.7654 39.324 59.1134 39.208 59.3454 38.86C59.9718 37.8856 59.995 36.424 60.1806 35.2872Z" fill="white"/>
<path d="M62.6631 40.6928C61.8511 40.6928 61.0159 40.6696 60.2039 40.6232C59.8095 40.6 58.9047 40.5536 58.7191 39.8576C58.6495 39.556 58.7423 39.2312 58.9975 39.0224C59.0671 38.9528 59.1367 38.86 59.2063 38.7672C59.6703 38.048 59.7864 37.0272 59.9024 36.1224C59.9256 35.8208 59.972 35.5424 60.0184 35.264C60.32 33.3616 60.9695 32.132 62.0135 31.5056C63.1735 30.8328 64.6351 30.9952 65.6095 31.9C66.5607 32.8048 66.7927 34.1504 66.9319 35.3568L66.9551 35.496C67.0943 36.6328 67.2335 37.8392 67.9295 38.7208L67.9759 38.7904C68.1847 39.0688 68.4631 39.3936 68.3471 39.788C68.2311 40.1824 67.8831 40.368 67.2335 40.4376C65.7255 40.6 64.1943 40.6928 62.6631 40.6928ZM63.5215 31.436C63.0575 31.436 62.5935 31.552 62.1759 31.8072C61.2247 32.3872 60.6447 33.524 60.3431 35.3336C60.2967 35.5888 60.2735 35.8672 60.2271 36.1688C60.1111 37.12 59.9951 38.1872 59.4847 38.976C59.4151 39.092 59.3223 39.1848 59.2295 39.2776C59.0439 39.4632 58.9743 39.556 59.0207 39.788C59.1135 40.1824 59.6703 40.2752 60.1807 40.2984C62.5007 40.4144 64.8439 40.368 67.1639 40.136C67.6279 40.0896 67.9063 39.9504 67.9759 39.7416C68.0455 39.5328 67.8599 39.2776 67.6511 39.0456L67.6047 38.976C66.8623 38.0248 66.6999 36.772 66.5607 35.5888L66.5375 35.4496C66.3983 34.3128 66.1663 33.0368 65.3311 32.2016C64.8671 31.6912 64.1943 31.436 63.5215 31.436Z" fill="#004812"/>
<path d="M60.3197 39.8576C62.3845 40.02 64.4261 40.02 66.4909 39.8576C66.7693 39.8344 67.1173 39.7648 67.2101 39.4864C67.2565 39.2776 67.1637 39.0456 66.9781 38.9296C66.7925 38.8136 66.5837 38.744 66.3517 38.744C64.8205 38.5352 63.2893 38.6976 61.7581 38.5816C61.2941 38.512 60.8301 38.5817 60.4125 38.7673C59.8557 39.0225 59.3685 39.7648 60.3197 39.8576Z" fill="#004812"/>
<path d="M64.7744 41.0176C64.496 41.6904 63.7304 42.0384 63.0344 41.76C62.3848 41.5048 62.0368 40.7856 62.2456 40.136C62.8256 38.4888 65.3544 39.3936 64.7744 41.0176Z" fill="white"/>
<path d="M63.4753 42.0616C63.3129 42.0616 63.1505 42.0384 63.0113 41.9688C62.2457 41.6672 61.8513 40.832 62.0833 40.0664C62.2225 39.5792 62.6401 39.208 63.1505 39.1152C63.7305 39.0224 64.3105 39.2312 64.7049 39.672C65.0297 40.0664 65.1225 40.6 64.9369 41.0872C64.7049 41.6672 64.1249 42.0616 63.4753 42.0616ZM63.4521 39.44C63.3825 39.44 63.2897 39.44 63.2201 39.4632C62.8489 39.5328 62.5241 39.8112 62.4081 40.1824C62.2225 40.7856 62.5705 41.4352 63.1737 41.6208C63.7537 41.7832 64.3569 41.5048 64.5889 40.948C64.7281 40.6 64.6817 40.1824 64.4265 39.8808C64.1713 39.6024 63.8233 39.44 63.4521 39.44Z" fill="#004812"/>
<path d="M80.7358 32.5496C81.1302 32.5264 81.5246 32.4336 81.8958 32.2712C82.267 32.0856 82.5918 31.7376 82.5222 31.4592C82.4294 31.088 81.7566 31.1112 81.223 31.204C80.4574 31.3432 76.1886 31.8072 76.1886 32.4336C76.1654 33.1528 79.9934 32.6192 80.7358 32.5496Z" fill="#004812"/>
<path d="M77.836 24.2672C78.1144 23.9656 78.416 23.6872 78.7408 23.432C79.0424 23.1768 79.4136 23.0144 79.808 22.968C80.3416 22.9448 80.388 23.5016 80.0632 24.012C79.7384 24.5224 79.1584 24.9864 78.6016 25.4272C77.4648 26.2856 76.096 27.3296 74.8432 27.9328C74.5184 27.3064 77.14 25.0096 77.836 24.2672Z" fill="#004812"/>
<path d="M73.0798 17.7944C73.7062 17.4464 74.1238 17.6552 74.1238 18.0728C74.1238 18.4904 73.7989 19.0936 73.4973 19.6504C73.0565 20.4624 71.1077 24.7312 70.4813 23.316C70.0637 22.4344 72.1054 19.2096 73.0798 17.7944Z" fill="#004812"/>
<path d="M95.1663 101.384C95.8391 101.616 96.6047 101.987 96.7439 102.683C96.9527 103.634 95.9319 104.33 95.0271 104.702C88.2759 107.486 80.1791 106.766 74.0311 102.822C69.2055 99.7368 79.9239 99.0872 81.8031 99.1568C86.2575 99.296 90.9671 99.8992 95.1663 101.384Z" fill="white"/>
<path d="M86.3968 106.558C81.9888 106.581 77.6504 105.328 73.9384 102.962C72.8944 102.289 72.4768 101.686 72.6624 101.106C73.2656 99.18 80.8056 98.9248 81.8032 98.9712C87.0928 99.1568 91.5008 99.8992 95.2128 101.222C95.9088 101.477 96.744 101.848 96.9064 102.637C97.1848 103.89 95.584 104.655 95.0968 104.864C92.336 105.978 89.3896 106.558 86.3968 106.558ZM81.4552 99.3192C79.3672 99.3192 73.4512 99.8064 72.9872 101.222C72.8248 101.732 73.5208 102.289 74.124 102.683C80.3648 106.627 88.1368 107.323 94.9576 104.539C95.3984 104.354 96.7904 103.704 96.5584 102.706C96.4192 102.08 95.7 101.755 95.0968 101.546C91.408 100.247 87.0464 99.5048 81.78 99.3192H81.4552Z" fill="#004812"/>
<path d="M79.2512 81.78C78.9728 82.2208 79.0192 82.7544 79.0888 83.2648C79.2744 84.6336 79.5296 86.0024 79.8544 87.3712C79.9936 87.9512 80.156 88.5312 80.5504 88.972C81.084 89.552 81.9192 89.6912 82.708 89.7608C84.4712 89.9 86.2344 89.7608 87.9976 89.6216C88.74 89.5752 89.6216 89.436 89.9696 88.7632C90.364 88.044 89.8768 87.1624 89.3896 86.536C88.044 84.8192 86.2576 83.056 84.2624 82.128C83.5432 81.78 82.7312 81.7104 81.9656 81.5016C81.1304 81.2232 79.8544 80.852 79.2512 81.78Z" fill="#004812"/>
<path d="M80.1097 82.8472C80.1097 83.0792 80.2257 83.288 80.3881 83.4504C80.7361 83.7056 81.2001 83.404 81.5017 83.1024C82.2209 82.4064 82.9865 81.6408 83.0561 80.6432C83.1257 79.7152 81.5017 76.328 80.2257 77.3024C79.6689 77.72 79.8777 79.3208 79.8777 79.9472C79.8777 80.9216 79.9473 81.896 80.1097 82.8472Z" fill="#004812"/>
<path d="M88.1367 84.6104C87.8351 84.7032 87.5799 84.8888 87.4175 85.144C87.2319 85.5384 87.4639 85.9792 87.6959 86.3272C88.0439 86.884 88.4615 87.4872 89.1111 87.6032C89.5287 87.6728 89.9463 87.5104 90.3407 87.348C90.9671 87.0928 95.3055 85.144 94.3311 84.216C93.8207 83.7288 92.0343 83.8912 91.3847 83.9144C90.2711 83.984 89.1575 84.216 88.1367 84.6104Z" fill="#004812"/>
<path d="M82.5456 84.68C82.476 84.7496 82.4528 84.8656 82.476 84.9584C82.5224 85.0512 82.6152 85.1208 82.7312 85.0976C82.824 85.0744 82.94 85.0512 83.0096 84.9816C83.1952 84.8656 84.2856 83.984 83.8448 83.8216C83.404 83.6592 82.7312 84.3552 82.5456 84.68Z" fill="white"/>
<path d="M84.4016 85.9328C84.332 86.0256 84.2856 86.1416 84.3552 86.2112C84.4248 86.2808 84.5176 86.2576 84.5872 86.2576C84.796 86.2112 85.724 85.7472 85.492 85.4456C85.1672 85.0512 84.5408 85.7472 84.4016 85.9328Z" fill="white"/>
<path d="M81.2229 85.7472C81.1301 85.956 81.0605 86.2112 81.0605 86.4432C81.0605 86.6984 81.1997 86.9304 81.4085 87.0464C81.5477 87.0928 81.687 87.116 81.8262 87.0696C82.151 87.0232 82.7309 86.9072 82.3365 86.5128C81.9885 86.2576 81.6173 86.0024 81.2229 85.7472Z" fill="#004812"/>
<path d="M81.525 90.9208C80.8522 91.3152 80.4114 92.0344 80.0402 92.7304C78.7642 95.1432 77.8362 97.8344 77.8594 100.549C77.8362 101.082 77.9522 101.616 78.1842 102.08C78.4394 102.498 78.8338 102.799 79.2978 102.962C79.7618 103.124 80.2258 103.217 80.713 103.24C82.2674 103.333 83.8218 103.147 85.3762 102.962C85.9562 102.892 86.5594 102.799 86.9538 102.382C87.209 102.08 87.3482 101.709 87.325 101.314C87.325 100.92 87.2554 100.549 87.1162 100.178C86.629 98.5536 85.817 97.0456 85.121 95.4912C84.7498 94.7256 84.425 93.9368 84.1466 93.1248C84.0074 92.7304 83.8914 92.336 83.8218 91.9184C83.7986 91.6632 83.729 91.408 83.6362 91.1528C83.2418 90.48 82.105 90.5728 81.525 90.9208Z" fill="#004812"/>
<path d="M95.5606 91.6168C94.9342 92.684 94.6326 93.8904 94.331 95.0968C94.0294 96.3032 93.7742 97.5328 93.1942 98.6232C92.6142 99.7136 91.663 100.688 90.4798 101.013C89.5982 101.245 88.647 101.106 87.7422 100.897C87.5566 100.85 87.371 100.827 87.1622 100.827C86.9766 100.85 86.791 100.966 86.7446 101.175C86.7214 101.361 86.791 101.523 86.9302 101.639C87.0694 101.755 87.255 101.825 87.4174 101.848C89.0414 102.289 90.8046 102.335 92.4054 101.755C94.0062 101.175 95.3982 99.992 96.0014 98.4144C96.6046 96.8368 96.4422 94.9112 97.4862 93.5424C97.8806 93.1016 98.275 92.684 98.7158 92.2896C99.1102 91.872 99.4814 91.3616 99.5046 90.7816C99.5278 90.3176 99.2958 89.8536 98.9014 89.5984C98.507 89.3432 98.159 89.4592 97.7414 89.6216C96.8134 90.0392 96.0478 90.7352 95.5606 91.6168Z" fill="#004812"/>
<path d="M77.0009 89.5056C76.8849 89.4592 76.7457 89.5288 76.7225 89.668C76.6993 89.7376 76.7225 89.8304 76.7689 89.8768C76.9081 90.2712 77.1633 90.596 77.4881 90.8512C77.8129 91.1064 78.1609 91.3152 78.5321 91.4776C78.6713 91.5472 78.8105 91.5936 78.9729 91.6168C79.1353 91.64 79.2745 91.5704 79.3673 91.4544C79.5993 91.0832 78.9961 90.364 78.7177 90.132C78.2305 89.7144 77.6273 89.4824 77.0009 89.5056Z" fill="#004812"/>
<path d="M80.7823 102.776C80.6663 102.846 80.5735 102.962 80.5503 103.101C80.5503 103.263 80.6895 103.356 80.8287 103.449C81.5015 103.82 82.2903 103.843 83.0559 103.774C83.4271 103.75 83.8679 103.588 83.7519 103.124C83.6591 102.822 83.4503 102.59 83.1487 102.474C82.3367 102.242 81.5015 102.358 80.7823 102.776Z" fill="#004812"/>
<path d="M85.7239 102.567C85.6079 102.637 85.5151 102.706 85.5151 102.846C85.5151 102.985 85.6311 103.031 85.7239 103.078C86.0719 103.263 88.4383 103.797 88.2527 102.846C88.1831 102.498 87.4407 102.358 87.1855 102.312C86.6751 102.242 86.1647 102.335 85.7239 102.567Z" fill="#004812"/>
</svg>
