<svg width="116" height="116" viewBox="0 0 116 116" fill="none" xmlns="http://www.w3.org/2000/svg">
<path d="M102.428 50.4832C101.152 51.62 98.9019 51.852 97.3243 51.9448C86.5595 52.5712 75.5627 51.8056 64.6819 51.6664L63.5915 53.7776C63.1043 54.752 62.3387 55.8656 61.2483 55.7264C60.5987 55.6336 60.1115 55.1 59.7171 54.5664C59.2299 53.9168 58.3483 52.8032 57.8147 51.6432C55.7963 51.6664 53.7779 51.736 51.7827 51.852C49.3931 51.9912 46.7947 52.0608 44.9155 50.344C42.5259 48.1632 42.2011 44.1032 42.1083 40.5304L41.6211 23.3856C41.5283 20.184 41.4819 16.7736 42.8507 13.9896C44.7763 10.0688 49.4395 10.3936 52.8035 10.1616C57.7683 9.81358 62.7331 9.76718 67.6979 9.74398C77.5811 9.72078 100.526 10.4864 102.266 12.0176C104.795 14.3376 104.331 48.7896 102.428 50.4832Z" fill="white"/>
<path d="M61.4337 55.912C61.3641 55.912 61.2945 55.912 61.2249 55.8888C60.5057 55.796 59.9953 55.216 59.5777 54.6592L59.4385 54.4736C58.7889 53.6384 58.2089 52.7568 57.6985 51.8288C55.6105 51.8752 53.6849 51.9448 51.7825 52.0376C49.1609 52.1768 46.6553 52.1768 44.7761 50.4832C42.3401 48.2792 42.0153 44.196 41.9225 40.5536L41.4353 23.4088C41.3425 20.4856 41.2497 16.8432 42.6881 13.9432C44.4281 10.4168 48.3489 10.2312 51.5041 10.0688C51.9449 10.0456 52.3857 10.0224 52.7801 9.9992C57.9769 9.628 63.2201 9.6048 67.6977 9.5816C72.4305 9.5816 80.5737 9.744 88.0441 10.1384C96.7441 10.6024 101.57 11.1824 102.382 11.9016C103.751 13.1312 104.215 22.5968 104.191 31.0416C104.168 38.3264 103.727 49.5552 102.544 50.5992C101.245 51.7592 98.9481 52.0144 97.3241 52.1072C89.8073 52.548 82.0817 52.316 74.5881 52.084C71.3633 51.9912 68.0457 51.8752 64.7745 51.8288L63.7305 53.8472C63.0345 55.2392 62.2921 55.912 61.4337 55.912ZM57.8145 51.504C57.8841 51.504 57.9537 51.5504 57.9769 51.5968C58.4641 52.548 59.0441 53.4528 59.7169 54.288L59.8561 54.4736C60.2273 54.9608 60.6681 55.4712 61.2713 55.564C62.0369 55.6568 62.7329 55.0536 63.4289 53.708L64.5193 51.5968C64.5425 51.5504 64.6121 51.504 64.6817 51.504C67.9761 51.5504 71.3633 51.6432 74.6113 51.7592C82.0817 51.9912 89.8305 52.2232 97.3241 51.7824C98.8785 51.6896 101.106 51.4344 102.335 50.3672C103.171 49.6248 103.843 41.1568 103.867 31.0648C103.89 20.6944 103.194 13.108 102.173 12.18C100.595 10.7648 79.4369 9.9296 68.0921 9.9296H67.7209C63.2433 9.9296 58.0233 9.976 52.8265 10.3472C52.4089 10.3704 51.9913 10.3936 51.5273 10.4168C48.3025 10.5792 44.6601 10.7416 43.0129 14.0824C41.6209 16.9128 41.7137 20.5088 41.8065 23.3856L42.2937 40.5304C42.3865 44.1032 42.6881 48.0936 45.0313 50.228C46.8177 51.852 49.2537 51.852 51.7825 51.6896C53.7081 51.5968 55.6801 51.5272 57.8145 51.504Z" fill="#004812"/>
<path d="M46.7248 17.98C45.8664 19.3256 45.7272 21.0424 46.4 22.504C46.8408 23.5016 47.676 24.2672 48.72 24.6152C49.4624 24.8008 50.228 24.8008 50.9704 24.5688C52.316 24.1976 53.476 23.2696 54.1256 22.04C54.7752 20.7872 54.7984 19.3024 54.1952 18.0496C53.0816 15.8456 50.2976 15.312 48.2792 16.5416C47.6528 16.8896 47.1192 17.3768 46.7248 17.98Z" fill="#004812"/>
<path d="M49.0914 17.7944C48.813 18.0728 48.6738 18.4672 48.7202 18.8616C48.7434 19.256 48.9986 19.604 49.3466 19.7896C49.7642 19.9288 50.2282 19.8128 50.5298 19.5112C50.8546 19.256 51.0402 18.8616 51.0402 18.444C50.9938 17.4928 49.7178 17.1912 49.0914 17.7944Z" fill="#004812"/>
<path d="M50.298 20.2072C49.9732 20.1608 49.6716 20.416 49.4396 20.648C49.1148 20.996 48.8132 21.4136 48.5812 21.8312C48.4188 22.0632 48.3724 22.3648 48.442 22.62C48.558 22.8984 48.8828 23.0376 49.1612 23.1072C49.6484 23.2232 50.1588 23.2232 50.646 23.1536C50.9476 23.1304 51.2492 22.9912 51.458 22.736C51.6204 22.4808 51.6436 22.156 51.5276 21.8776C51.3652 21.4136 50.878 20.2536 50.298 20.2072Z" fill="#004812"/>
<path d="M57.1419 15.7064C56.4923 15.9848 56.0283 16.7968 56.3763 17.4232C56.6779 18.0032 57.4435 18.096 58.0931 18.1424C60.4827 18.2584 62.8491 18.2584 65.2387 18.1424C66.2827 18.096 67.3499 18.0032 68.3243 17.5856C68.7187 17.4232 69.1363 17.1216 69.2291 16.704C69.3219 16.2864 68.9739 15.8456 68.5563 15.66C68.1387 15.5208 67.6747 15.4512 67.2339 15.4976L61.6195 15.6368C60.8075 15.66 59.9723 15.7064 59.1603 15.6368C58.5107 15.5672 57.6987 15.3352 57.1419 15.7064Z" fill="#004812"/>
<path d="M57.4665 21.2048L75.7481 20.8336C76.0729 20.8568 76.3977 20.7872 76.6993 20.648C76.9777 20.4856 77.1633 20.0912 76.9777 19.8128C76.7921 19.5344 76.4441 19.5112 76.1193 19.5112L63.2665 19.3952C61.5729 19.372 59.6473 19.0704 57.9769 19.2792C56.7009 19.4416 55.4713 21.2048 57.4665 21.2048Z" fill="#004812"/>
<path d="M57.977 23.6408C57.7218 23.5016 57.4434 23.4784 57.165 23.5248C56.9098 23.6176 56.7242 23.9888 56.933 24.1744C57.049 24.2672 57.2114 24.2904 57.3506 24.2672C61.8746 24.2208 66.3754 24.244 70.8994 24.1976H94.5866C96.025 24.1976 97.4402 24.5456 98.8554 24.2904C99.041 24.2672 99.2266 24.1976 99.389 24.1048C99.5514 24.012 99.6442 23.8032 99.5978 23.6176C99.5282 23.316 99.1338 23.2696 98.809 23.2696C96.3034 23.2928 93.7978 23.3392 91.2922 23.3392L57.977 23.6408Z" fill="#004812"/>
<path d="M53.7778 46.1216C53.7778 46.6088 54.1954 46.632 54.1954 46.1448V46.1216L54.497 37.236L54.6362 32.7352C54.6826 31.4128 54.845 29.928 54.7522 28.6056C54.729 28.304 54.5202 26.68 54.2418 26.7032C53.9634 26.7264 54.0794 29.3016 54.0794 29.7192L53.917 38.5352L53.8242 43.5L53.7778 45.9824C53.7778 46.052 53.7778 46.0984 53.7778 46.1216Z" fill="#004812"/>
<path d="M58.3018 28.3736C56.933 29.3712 56.6546 31.2968 57.6522 32.6424C58.6498 34.0112 60.5754 34.2896 61.921 33.292C62.4314 32.9208 62.8026 32.4104 63.0114 31.8072C63.9394 29.0464 60.645 26.6568 58.3018 28.3736Z" fill="#004812"/>
<path d="M64.0321 27.7936C63.8001 27.8864 63.5449 28.0488 63.5449 28.304C63.5449 28.652 64.0089 28.768 64.3801 28.7912C67.2569 28.8608 70.1569 28.7448 73.0105 28.4664C73.3585 28.42 73.7993 28.3272 73.9153 28.0024C73.9849 27.6776 73.7993 27.3528 73.4977 27.2368C73.1961 27.144 72.8713 27.1208 72.5697 27.1672L67.9761 27.608C67.3265 27.7008 66.7001 27.7008 66.0505 27.6544C65.3313 27.5848 64.7281 27.5384 64.0321 27.7936Z" fill="#004812"/>
<path d="M95.7698 30.1832C95.9786 30.2064 96.1642 30.1368 96.3498 30.044C96.5122 29.928 96.5354 29.7192 96.4426 29.5568C96.4426 29.5336 96.4194 29.5336 96.4194 29.5104L69.1362 29.7424L65.2618 29.7656C65.053 29.7656 64.821 29.7424 64.6122 29.7424C64.4034 29.7424 64.2178 29.9048 64.2178 30.1136C64.2178 30.2992 64.357 30.4848 64.5658 30.4848C68.2082 30.8328 72.013 30.6704 75.6322 30.6704C79.9242 30.6704 84.2162 30.5544 88.5082 30.4152C90.9442 30.3688 93.357 30.276 95.7698 30.1832Z" fill="#004812"/>
<path d="M65.0759 33.5473C65.0063 33.6633 65.0063 33.8025 65.0295 33.9417C65.0527 34.1505 65.0759 34.3361 65.1223 34.5449C65.1223 34.6377 65.1919 34.7305 65.2615 34.8001C65.3311 34.8233 65.4239 34.8465 65.4935 34.8233L66.0039 34.7305C66.0735 34.7305 66.1199 34.7073 66.1663 34.6609C66.2127 34.6145 66.2359 34.5449 66.2127 34.4753C66.2127 34.2665 66.2127 34.0809 66.1895 33.8953C66.1895 33.7561 66.1895 33.5241 66.0503 33.4545C65.8879 33.3849 65.7255 33.3617 65.5399 33.3849C65.4007 33.3617 65.2151 33.4081 65.0759 33.5473Z" fill="#004812"/>
<path d="M65.8416 32.4568C65.8184 32.3408 65.8416 32.248 65.888 32.1552C65.9576 32.0856 66.0504 32.0392 66.1432 32.0624C66.3752 32.0624 66.6072 32.1784 66.7464 32.364C66.8856 32.6424 66.932 32.9672 66.8624 33.2688C67.1408 33.176 67.4656 33.2456 67.6744 33.4776C67.86 33.7096 67.9528 34.0112 67.8832 34.3128C67.86 34.5448 67.7208 34.7768 67.5352 34.8928C67.3496 34.9624 67.1408 34.9856 66.9552 34.9392C66.7232 34.916 66.5144 34.8928 66.2824 34.8696C66.12 34.8464 66.004 34.7768 66.004 34.6144C66.004 34.452 66.004 34.22 65.9808 34.0112L65.9344 33.292L65.8416 32.4568Z" fill="#004812"/>
<path d="M67.0014 34.7768C66.8854 34.7768 66.7926 34.7072 66.7462 34.5912C66.723 34.4752 66.7462 34.3592 66.8158 34.2432C66.839 34.22 66.839 34.1968 66.8622 34.1968H66.8158C66.6998 34.1968 66.607 34.1736 66.5374 34.104C66.4214 33.9648 66.4214 33.7792 66.5142 33.64C66.607 33.524 66.6998 33.408 66.839 33.3384C66.8622 33.3152 66.9086 33.3384 66.9086 33.3616C66.9318 33.3848 66.9086 33.4312 66.8854 33.4312C66.7694 33.5008 66.6766 33.5936 66.5838 33.6864C66.5142 33.7792 66.5142 33.9184 66.5838 34.0112C66.6302 34.0576 66.723 34.0808 66.7926 34.0808C66.8622 34.0808 66.955 34.0576 67.0246 34.0112C67.0478 34.0112 67.071 34.0112 67.0942 34.0344C67.1174 34.0576 67.0942 34.0808 67.071 34.104C67.0014 34.1504 66.9318 34.22 66.8622 34.3128C66.8158 34.3824 66.7926 34.4752 66.8158 34.5448C66.839 34.6144 66.9086 34.6608 66.9782 34.6376C67.0014 34.6376 67.0478 34.6376 67.0478 34.684C67.0478 34.7072 67.0478 34.7536 67.0014 34.7536C67.0246 34.7768 67.0014 34.7768 67.0014 34.7768Z" fill="#004812"/>
<path d="M73.0107 34.9392C73.0571 35.0552 73.1035 35.1944 73.0107 35.264C72.9179 35.3336 72.7787 35.264 72.6859 35.1944L72.0827 34.7536C71.5723 34.8464 71.0387 34.7768 70.5979 34.5216C70.3195 34.3824 70.0875 34.1504 69.9947 33.8488C69.9251 33.4544 70.0643 33.06 70.3659 32.8048C71.0387 32.2016 72.0131 32.1552 72.7323 32.6656C73.0107 32.8512 73.1963 33.176 73.2427 33.5008C73.2427 33.8488 73.0339 34.1504 72.7091 34.2432C72.8019 34.4752 72.8947 34.7072 73.0107 34.9392Z" fill="#004812"/>
<path d="M70.4819 33.2224C71.0619 33.0832 71.6651 33.0368 72.2683 33.06L70.4819 33.2224Z" fill="#004812"/>
<path d="M70.4819 33.2688C70.4587 33.2688 70.4355 33.2456 70.4355 33.2224C70.4355 33.1992 70.4587 33.1528 70.4819 33.1528C71.0851 33.0136 71.6883 32.9672 72.2915 32.9904C72.3147 32.9904 72.3379 33.0136 72.3379 33.0368C72.3379 33.06 72.3147 33.0832 72.2915 33.0832C71.6651 33.0832 71.0851 33.1528 70.4819 33.2688Z" fill="#004812"/>
<path d="M70.5513 33.5008C71.1545 33.6168 71.7809 33.6168 72.3841 33.524L70.5513 33.5008Z" fill="#004812"/>
<path d="M71.5723 33.6632C71.2243 33.6632 70.8763 33.64 70.5283 33.5704C70.5051 33.5704 70.4819 33.524 70.4819 33.5008C70.4819 33.4776 70.5283 33.4544 70.5515 33.4544C71.1547 33.5704 71.7579 33.5704 72.3611 33.5008C72.3843 33.5008 72.4307 33.524 72.4307 33.5472C72.4307 33.5704 72.4075 33.6168 72.3843 33.6168C72.1291 33.64 71.8507 33.6632 71.5723 33.6632Z" fill="#004812"/>
<path d="M70.7139 33.8952C71.2939 34.0576 71.8971 34.104 72.4771 34.0576L70.7139 33.8952Z" fill="#004812"/>
<path d="M72.0128 34.1504C71.572 34.1504 71.108 34.0808 70.6904 33.9648C70.6672 33.9648 70.644 33.9184 70.644 33.8952C70.644 33.872 70.6904 33.8488 70.7136 33.8488C71.2704 34.0112 71.8736 34.0576 72.4536 34.0112C72.4768 34.0112 72.5232 34.0344 72.5232 34.0576C72.5232 34.0808 72.5 34.1272 72.4768 34.1272C72.3376 34.1504 72.1752 34.1504 72.0128 34.1504Z" fill="#004812"/>
<path d="M70.4819 33.2224C71.0619 33.0832 71.6651 33.0368 72.2683 33.06L70.4819 33.2224Z" fill="#004812"/>
<path d="M70.4819 33.2688C70.4587 33.2688 70.4355 33.2456 70.4355 33.2224C70.4355 33.1992 70.4587 33.1528 70.4819 33.1528C71.0851 33.0136 71.6883 32.9672 72.2915 32.9904C72.3147 32.9904 72.3379 33.0136 72.3379 33.0368C72.3379 33.06 72.3147 33.0832 72.2915 33.0832C71.6651 33.0832 71.0851 33.1528 70.4819 33.2688Z" fill="white"/>
<path d="M70.5513 33.5008C71.1545 33.6168 71.7809 33.6168 72.3841 33.524L70.5513 33.5008Z" fill="#004812"/>
<path d="M71.5723 33.6632C71.2243 33.6632 70.8763 33.64 70.5283 33.5704C70.5051 33.5704 70.4819 33.524 70.4819 33.5008C70.4819 33.4776 70.5283 33.4544 70.5515 33.4544C71.1547 33.5704 71.7579 33.5704 72.3611 33.5008C72.3843 33.5008 72.4307 33.524 72.4307 33.5472C72.4307 33.5704 72.4075 33.6168 72.3843 33.6168C72.1291 33.64 71.8507 33.6632 71.5723 33.6632Z" fill="white"/>
<path d="M70.7139 33.8952C71.2939 34.0576 71.8971 34.104 72.4771 34.0576L70.7139 33.8952Z" fill="#004812"/>
<path d="M72.0128 34.1504C71.572 34.1504 71.108 34.0808 70.6904 33.9648C70.6672 33.9648 70.644 33.9184 70.644 33.8952C70.644 33.872 70.6904 33.8488 70.7136 33.8488C71.2704 34.0112 71.8736 34.0576 72.4536 34.0112C72.4768 34.0112 72.5232 34.0344 72.5232 34.0576C72.5232 34.0808 72.5 34.1272 72.4768 34.1272C72.3376 34.1504 72.1752 34.1504 72.0128 34.1504Z" fill="white"/>
<path d="M77.3723 34.0344C77.3259 34.0344 77.2563 34.0344 77.2099 34.0808C77.1635 34.1272 77.1403 34.1968 77.1403 34.2664C77.1403 34.336 77.1171 34.4056 77.1171 34.452C77.0707 34.5216 77.0011 34.5912 76.9083 34.6144C76.8155 34.6376 76.7227 34.6376 76.6531 34.6376L75.8179 34.5912C75.6787 34.5912 75.5395 34.5448 75.4235 34.452C75.3539 34.3592 75.3307 34.2664 75.3307 34.1736L75.2843 33.7328C75.2843 33.64 75.2843 33.5704 75.2843 33.4776C75.2843 33.3848 75.3307 33.3152 75.4003 33.2688C75.5163 33.1992 75.6323 33.176 75.7483 33.176C75.8643 33.176 76.0499 33.1296 76.0963 32.9904C76.1195 32.944 76.1195 32.8512 76.0499 32.828C76.0035 32.828 75.9339 32.828 75.8875 32.828C75.7715 32.828 75.6787 32.8048 75.5627 32.828C75.4003 32.828 75.2611 32.8976 75.1683 33.0136C75.1219 33.1064 75.0987 33.1992 75.0755 33.3152C75.0523 33.6632 75.0523 34.0344 75.0755 34.3824C75.0755 34.5216 75.1219 34.684 75.2147 34.8C75.3307 34.8928 75.4931 34.9392 75.6555 34.916C76.2123 34.9392 76.7459 34.9392 77.3027 34.8696C77.3723 34.8696 77.4419 34.8464 77.5115 34.8C77.5579 34.7304 77.5811 34.6376 77.5811 34.5448V34.2664C77.6043 34.1968 77.5579 34.1272 77.4883 34.104C77.4419 34.0344 77.3955 34.0576 77.3723 34.0344Z" fill="#004812"/>
<path d="M78.0217 33.2224C77.9985 33.1528 77.9521 33.1064 77.8825 33.06L77.2561 32.5728C77.2329 32.5496 77.2097 32.5264 77.1633 32.5264C77.0937 32.5264 77.0473 32.5496 77.0241 32.6192C77.0009 32.6656 77.0009 32.7352 77.0009 32.7816C77.0009 32.828 76.9545 32.8512 76.9081 32.8512C76.8617 32.8512 76.8153 32.8512 76.7689 32.8512C76.5137 32.8512 76.2585 32.9904 76.1193 33.1992C75.9801 33.408 75.8873 33.6632 75.8641 33.9184C75.8409 33.988 75.8409 34.0808 75.8641 34.1504C75.8873 34.22 75.9337 34.2896 76.0033 34.3128C76.0961 34.3128 76.2121 34.2896 76.2585 34.1968L76.8385 33.7096C76.8849 33.6632 76.9313 33.64 77.0009 33.6168C77.0705 33.5936 77.1401 33.64 77.1633 33.7096C77.1633 33.756 77.1633 33.8024 77.1401 33.8488C77.1401 33.8952 77.1401 33.9648 77.1865 33.9648C77.2097 33.9648 77.2329 33.9648 77.2329 33.9416C77.4649 33.8256 77.6969 33.6864 77.8825 33.5008C77.9753 33.4312 78.0217 33.3152 78.0217 33.2224Z" fill="#004812"/>
<path d="M58.3016 39.0224C56.956 40.02 56.6776 41.9456 57.6752 43.2912C58.6728 44.6368 60.5984 44.9152 61.944 43.9176C62.4312 43.5464 62.8024 43.036 63.0112 42.456C63.9392 39.6952 60.6448 37.2824 58.3016 39.0224Z" fill="#004812"/>
<path d="M64.0321 38.4424C63.8001 38.5352 63.5449 38.6976 63.5449 38.9528C63.5449 39.3008 64.0089 39.44 64.3801 39.44C67.2569 39.5096 70.1569 39.3936 73.0105 39.1152C73.3585 39.092 73.7993 38.976 73.9153 38.6512C73.9849 38.3264 73.7993 38.0016 73.4977 37.8856C73.1961 37.7928 72.8713 37.7696 72.5697 37.816L67.9761 38.2336C67.3265 38.3264 66.7001 38.3264 66.0505 38.3032C65.3313 38.2336 64.7281 38.164 64.0321 38.4424Z" fill="#004812"/>
<path d="M95.7698 40.832C95.9786 40.8552 96.1642 40.7856 96.3498 40.6928C96.5122 40.5768 96.5354 40.368 96.4426 40.2056C96.4426 40.1824 96.4194 40.1824 96.4194 40.1592L69.1362 40.3912L65.2618 40.4144C65.053 40.4144 64.821 40.3912 64.6122 40.3912C64.4034 40.3912 64.2178 40.5536 64.2178 40.7624C64.2178 40.948 64.357 41.1336 64.5658 41.1336C68.2082 41.4816 72.013 41.3192 75.6322 41.3192C79.9242 41.3192 84.2162 41.2032 88.5082 41.064C90.9442 41.0176 93.357 40.9248 95.7698 40.832Z" fill="#004812"/>
<path d="M65.0759 44.1961C65.0063 44.3121 65.0063 44.4513 65.0295 44.5905C65.0527 44.7993 65.0759 44.9849 65.1223 45.1937C65.1223 45.2865 65.1687 45.3793 65.2615 45.4489C65.3311 45.4721 65.4239 45.4953 65.4935 45.4721L66.0039 45.3793C66.1199 45.3793 66.2127 45.2865 66.2127 45.1705C66.2127 45.1473 66.2127 45.1241 66.2127 45.1241C66.2127 44.9153 66.2127 44.7297 66.1895 44.5441C66.1895 44.4049 66.1895 44.1729 66.0503 44.1033C65.8879 44.0337 65.7255 44.0105 65.5399 44.0337C65.4007 43.9873 65.2151 44.0569 65.0759 44.1961Z" fill="#004812"/>
<path d="M65.8416 43.1056C65.8184 42.9896 65.8416 42.8968 65.888 42.804C65.9576 42.7344 66.0504 42.688 66.1432 42.7112C66.3752 42.7112 66.6072 42.8272 66.7464 43.0128C66.8856 43.2912 66.932 43.616 66.8624 43.9176C67.1408 43.8248 67.4656 43.8944 67.6744 44.1264C67.86 44.3584 67.9528 44.66 67.8832 44.9616C67.86 45.1936 67.7208 45.4256 67.5352 45.5416C67.3496 45.6112 67.1408 45.6344 66.9552 45.588C66.7232 45.5648 66.5144 45.5416 66.2824 45.5184C66.12 45.4952 66.004 45.4256 66.004 45.2632C66.004 45.1008 66.004 44.8688 65.9808 44.66L65.9344 43.9408L65.8416 43.1056Z" fill="#004812"/>
<path d="M67.0014 45.4256C66.8854 45.4256 66.7926 45.356 66.7462 45.24C66.723 45.124 66.7462 45.008 66.8158 44.892C66.839 44.8688 66.839 44.8456 66.8622 44.8456H66.8158C66.6998 44.8456 66.607 44.8224 66.5374 44.7528C66.4214 44.6136 66.4214 44.428 66.5142 44.2888C66.607 44.1728 66.6998 44.0568 66.839 43.9872C66.8622 43.964 66.9086 43.9872 66.9086 44.0104C66.9318 44.0336 66.9086 44.08 66.8854 44.08C66.7694 44.1496 66.6766 44.2424 66.5838 44.3352C66.5142 44.428 66.5142 44.5672 66.5838 44.66C66.6302 44.7064 66.723 44.7296 66.7926 44.7296C66.8622 44.7296 66.955 44.7064 67.0246 44.66C67.0478 44.66 67.071 44.66 67.0942 44.6832C67.1174 44.7064 67.0942 44.7296 67.071 44.7528C67.0014 44.7992 66.9318 44.8688 66.8622 44.9616C66.8158 45.0312 66.7926 45.124 66.8158 45.1936C66.839 45.2632 66.9086 45.3096 66.9782 45.2864C67.0014 45.2864 67.0478 45.2864 67.0478 45.3328C67.0478 45.356 67.0478 45.4024 67.0014 45.4024C67.0246 45.4024 67.0014 45.4256 67.0014 45.4256Z" fill="#004812"/>
<path d="M73.0107 45.5648C73.0571 45.6808 73.1035 45.82 73.0107 45.8896C72.9179 45.9592 72.7787 45.8896 72.6859 45.82L72.0827 45.356C71.5723 45.4488 71.0387 45.3792 70.5979 45.124C70.3195 44.9848 70.0875 44.7528 69.9947 44.4512C69.9251 44.0568 70.0643 43.6624 70.3659 43.4072C71.0387 42.804 72.0131 42.7576 72.7323 43.268C73.0107 43.4536 73.1963 43.7784 73.2427 44.1032C73.2427 44.4512 73.0339 44.7528 72.7091 44.8456C72.8019 45.124 72.8947 45.356 73.0107 45.5648Z" fill="#004812"/>
<path d="M70.4819 43.848C71.0619 43.7088 71.6651 43.6624 72.2683 43.6856L70.4819 43.848Z" fill="#004812"/>
<path d="M70.4819 43.9176C70.4587 43.9176 70.4355 43.8944 70.4355 43.8712C70.4355 43.848 70.4587 43.8016 70.4819 43.8016C71.0851 43.6624 71.6883 43.616 72.2915 43.6392C72.3147 43.6392 72.3379 43.6624 72.3379 43.6856C72.3379 43.7088 72.3147 43.732 72.2915 43.732C71.6651 43.732 71.0851 43.7784 70.4819 43.9176Z" fill="#004812"/>
<path d="M70.5513 44.1496C71.1545 44.2656 71.7809 44.2656 72.3841 44.1728L70.5513 44.1496Z" fill="#004812"/>
<path d="M71.5723 44.312C71.2243 44.312 70.8763 44.2888 70.5283 44.2192C70.5051 44.2192 70.4819 44.1728 70.4819 44.1496C70.4819 44.1264 70.5283 44.1032 70.5515 44.1032C71.1547 44.2192 71.7579 44.2192 72.3611 44.1496C72.3843 44.1496 72.4307 44.1728 72.4307 44.196C72.4307 44.2192 72.4075 44.2656 72.3843 44.2656C72.1291 44.2888 71.8507 44.312 71.5723 44.312Z" fill="#004812"/>
<path d="M70.7139 44.544C71.2939 44.7064 71.8971 44.7528 72.4771 44.7064L70.7139 44.544Z" fill="#004812"/>
<path d="M72.0128 44.776C71.572 44.776 71.108 44.7064 70.6904 44.5904C70.6672 44.5904 70.644 44.544 70.644 44.5208C70.644 44.4976 70.6904 44.4744 70.7136 44.4744C71.2704 44.6368 71.8736 44.6832 72.4536 44.6368C72.4768 44.6368 72.5232 44.66 72.5232 44.6832C72.5232 44.7064 72.5 44.7528 72.4768 44.7528C72.3376 44.776 72.1752 44.776 72.0128 44.776Z" fill="#004812"/>
<path d="M70.4819 43.848C71.0619 43.7088 71.6651 43.6624 72.2683 43.6856L70.4819 43.848Z" fill="#004812"/>
<path d="M70.4819 43.9176C70.4587 43.9176 70.4355 43.8944 70.4355 43.8712C70.4355 43.848 70.4587 43.8016 70.4819 43.8016C71.0851 43.6624 71.6883 43.616 72.2915 43.6392C72.3147 43.6392 72.3379 43.6624 72.3379 43.6856C72.3379 43.7088 72.3147 43.732 72.2915 43.732C71.6651 43.732 71.0851 43.7784 70.4819 43.9176Z" fill="white"/>
<path d="M70.5513 44.1496C71.1545 44.2656 71.7809 44.2656 72.3841 44.1728L70.5513 44.1496Z" fill="#004812"/>
<path d="M71.5723 44.312C71.2243 44.312 70.8763 44.2888 70.5283 44.2192C70.5051 44.2192 70.4819 44.1728 70.4819 44.1496C70.4819 44.1264 70.5283 44.1032 70.5515 44.1032C71.1547 44.2192 71.7579 44.2192 72.3611 44.1496C72.3843 44.1496 72.4307 44.1728 72.4307 44.196C72.4307 44.2192 72.4075 44.2656 72.3843 44.2656C72.1291 44.2888 71.8507 44.312 71.5723 44.312Z" fill="white"/>
<path d="M70.7139 44.544C71.2939 44.7064 71.8971 44.7528 72.4771 44.7064L70.7139 44.544Z" fill="#004812"/>
<path d="M72.0128 44.776C71.572 44.776 71.108 44.7064 70.6904 44.5904C70.6672 44.5904 70.644 44.544 70.644 44.5208C70.644 44.4976 70.6904 44.4744 70.7136 44.4744C71.2704 44.6368 71.8736 44.6832 72.4536 44.6368C72.4768 44.6368 72.5232 44.66 72.5232 44.6832C72.5232 44.7064 72.5 44.7528 72.4768 44.7528C72.3376 44.776 72.1752 44.776 72.0128 44.776Z" fill="white"/>
<path d="M77.3723 44.6832C77.3259 44.6832 77.2563 44.6832 77.2099 44.7296C77.1635 44.776 77.1403 44.8456 77.1403 44.9152C77.1403 44.9848 77.1171 45.0544 77.1171 45.1008C77.0707 45.1704 77.0011 45.24 76.9083 45.2632C76.8155 45.2864 76.7227 45.2864 76.6531 45.2864L75.8179 45.24C75.6787 45.24 75.5395 45.1936 75.4235 45.1008C75.3539 45.008 75.3307 44.9152 75.3307 44.8224L75.2843 44.3816C75.2843 44.2888 75.2843 44.2192 75.2843 44.1264C75.2843 44.0336 75.3307 43.964 75.4003 43.8944C75.5163 43.8248 75.6323 43.8016 75.7483 43.8016C75.8643 43.7784 76.0499 43.7552 76.0963 43.616C76.1195 43.5696 76.1195 43.4768 76.0499 43.4536C76.0035 43.4536 75.9339 43.4536 75.8875 43.4536C75.7715 43.4536 75.6787 43.4304 75.5627 43.4536C75.4003 43.4536 75.2611 43.5232 75.1683 43.6392C75.1219 43.732 75.0987 43.8248 75.0755 43.9408C75.0523 44.2888 75.0523 44.66 75.0755 45.008C75.0755 45.1472 75.1219 45.3096 75.2147 45.4256C75.3307 45.5184 75.4931 45.5648 75.6555 45.5416C76.2123 45.5648 76.7459 45.5648 77.3027 45.4952C77.3723 45.4952 77.4419 45.472 77.5115 45.4024C77.5579 45.3328 77.5811 45.24 77.5811 45.1472V44.8688C77.5811 44.8224 77.5811 44.776 77.5579 44.7528C77.4883 44.6832 77.4419 44.6832 77.3723 44.6832Z" fill="#004812"/>
<path d="M78.0217 43.848C77.9985 43.7784 77.9521 43.732 77.8825 43.6856L77.2561 43.1984C77.2329 43.1752 77.2097 43.152 77.1633 43.152C77.0937 43.152 77.0473 43.1752 77.0241 43.2448C77.0009 43.2912 77.0009 43.3608 77.0009 43.4072C77.0009 43.4536 76.9545 43.4768 76.9081 43.4768C76.8617 43.4768 76.8153 43.4768 76.7689 43.4768C76.5137 43.4768 76.2585 43.616 76.1193 43.8248C75.9801 44.0336 75.8873 44.2888 75.8641 44.544C75.8409 44.6136 75.8409 44.7064 75.8641 44.776C75.8873 44.8456 75.9337 44.9152 76.0033 44.9384C76.0961 44.9384 76.2121 44.9152 76.2585 44.8224L76.8385 44.3352C76.8849 44.2888 76.9313 44.2656 77.0009 44.2424C77.0705 44.2192 77.1401 44.2656 77.1633 44.3352C77.1633 44.3816 77.1633 44.428 77.1401 44.4744C77.1401 44.5208 77.1401 44.5904 77.1865 44.5904C77.2097 44.5904 77.2329 44.5672 77.2329 44.544C77.4649 44.428 77.6969 44.2888 77.8825 44.1032C77.9753 44.0336 78.0217 43.9408 78.0217 43.848Z" fill="#004812"/>
<path d="M47.5137 69.3216C48.5113 71.3632 49.9265 73.3816 52.0841 74.1008C53.8705 74.6808 55.8425 74.2168 57.6985 74.5648C59.9257 74.9824 61.9209 76.6528 62.5473 78.8336C63.1737 81.0144 62.3385 83.5664 60.4593 84.8424C58.8585 85.9328 56.7937 86.0024 54.8913 85.7472C45.3329 84.4248 38.6745 75.5856 39.9969 66.0272C40.0665 65.5864 40.1361 65.1456 40.2289 64.7048C40.6233 62.8488 42.3401 60.5984 44.1497 62.4544C45.6809 64.0088 46.5393 67.3728 47.5137 69.3216Z" fill="#004812"/>
<path d="M25.0328 55.912C23.0376 57.0256 20.8104 57.6288 18.5136 57.6056C17.3304 57.6056 15.8224 57.6288 15.4512 58.7424C15.2192 59.4384 15.6136 60.1576 16.0312 60.7608C18.8616 64.7512 23.7104 67.048 28.6056 67.512C33.5008 67.976 38.4192 66.7232 42.8968 64.7512C45.0312 63.8 47.3976 62.2456 47.444 59.9024C47.4904 57.3736 44.9616 55.6104 43.268 54.1488C41.6904 52.78 40.0432 50.7152 38.1176 49.88C36.1224 48.9984 33.6632 49.9264 31.8768 50.9472C30.9024 51.4576 25.8216 56.26 25.0328 55.912Z" fill="#004812"/>
<path d="M26.3556 100.224C26.518 100.34 26.7036 100.456 26.866 100.549C29.1396 101.802 31.9236 101.616 34.522 101.407C40.7396 100.874 47.05 100.317 52.8036 97.904C53.2908 97.6952 53.778 97.4864 54.2652 97.2776C52.6412 94.9808 50.5532 93.0552 48.1636 91.5704C47.8852 91.408 47.5836 91.2456 47.282 91.1064C46.7484 90.4568 46.238 89.8072 45.7044 89.1576C44.1964 87.348 42.5492 85.4456 42.2244 83.1024C41.6444 79.1816 44.8692 75.7248 45.4956 71.804C46.5164 65.4472 41.6676 58.1624 35.6588 56.26C33.6868 55.6336 31.3668 55.68 29.6964 56.8864C27.3764 58.5568 26.9124 61.828 27.0052 64.7048C27.1676 69.9248 28.4668 75.0984 28.0956 80.3184C27.8404 83.9144 26.8196 87.4872 26.2628 91.0368C26.054 91.3848 25.8684 91.756 25.7292 92.1272C25.0796 93.9368 25.1724 95.932 25.6132 97.8112C25.822 98.6464 26.054 99.4352 26.3556 100.224Z" fill="white"/>
<path d="M31.5985 101.732C29.9513 101.732 28.2809 101.523 26.7961 100.688C26.6105 100.595 26.4249 100.479 26.2625 100.34C26.2393 100.317 26.2161 100.294 26.1929 100.247C25.8913 99.4584 25.6361 98.6464 25.4505 97.8344C24.9401 95.6536 24.9865 93.7048 25.5897 92.0576C25.7289 91.6864 25.9145 91.3152 26.1233 90.9672C26.3321 89.6216 26.6105 88.2528 26.8889 86.9304C27.3297 84.7496 27.7937 82.5224 27.9561 80.2952C28.1649 77.2096 27.7937 74.0776 27.4457 71.0384C27.1905 68.9736 26.9353 66.816 26.8657 64.7048C26.7497 60.8304 27.6777 58.1624 29.6265 56.7472C31.2041 55.6104 33.4777 55.3784 35.7513 56.0744C41.9689 58.0464 46.7249 65.54 45.7041 71.804C45.4489 73.428 44.7297 75.0056 44.0569 76.5136C43.0593 78.7176 42.1081 80.8056 42.4329 83.056C42.7577 85.3064 44.3121 87.1392 45.7969 88.9256L45.8897 89.0184C46.3073 89.5288 46.7249 90.0392 47.1425 90.5496L47.4441 90.9208C47.7457 91.06 48.0241 91.1992 48.3025 91.3616C50.7153 92.8464 52.8033 94.7952 54.4505 97.1152C54.4737 97.1616 54.4969 97.208 54.4737 97.2544C54.4505 97.3008 54.4273 97.3472 54.3809 97.3704L53.6849 97.672C53.4297 97.788 53.1745 97.904 52.9193 97.9968C47.0961 100.456 40.7393 100.99 34.5913 101.523C33.6169 101.639 32.6193 101.732 31.5985 101.732ZM26.4945 100.108C26.6569 100.224 26.8193 100.317 26.9585 100.386C29.2785 101.662 32.1785 101.407 34.4985 101.222C40.6233 100.711 46.9569 100.154 52.7105 97.7184C52.9657 97.6024 53.2209 97.5096 53.4529 97.3936L53.9633 97.1616C52.3625 94.9576 50.3441 93.1016 48.0241 91.6864C47.7457 91.524 47.4673 91.3616 47.1657 91.2456C47.1425 91.2224 47.1193 91.2224 47.0961 91.1992L46.7713 90.7816C46.3769 90.2712 45.9361 89.7608 45.5185 89.2504L45.4257 89.1576C43.8945 87.348 42.3169 85.4688 41.9921 83.1256C41.6673 80.7824 42.6649 78.532 43.6393 76.3976C44.3121 74.9128 45.0081 73.3584 45.2633 71.7808C46.2609 65.6792 41.6209 58.348 35.5425 56.4224C33.3849 55.7496 31.2041 55.9584 29.7193 57.0256C27.8633 58.3712 26.9817 60.9464 27.0977 64.7048C27.1673 66.816 27.4225 68.9504 27.6545 71.0152C28.0257 74.0544 28.3969 77.2096 28.1649 80.3184C28.0025 82.5688 27.5385 84.8192 27.0977 87C26.8193 88.3224 26.5409 89.6912 26.3321 91.06C26.3321 91.0832 26.3089 91.1064 26.3089 91.1296C26.1001 91.4776 25.9377 91.8256 25.7985 92.1968C25.2185 93.7744 25.1953 95.6536 25.6825 97.788C25.9609 98.5768 26.2161 99.3656 26.4945 100.108Z" fill="#004812"/>
<path d="M65.6329 72.4304C66.3985 70.8064 66.9785 68.7416 68.6953 68.2776C68.9505 69.5536 68.7185 70.876 68.0689 72.0128C69.3217 71.0384 70.8065 70.2496 72.4073 70.18C74.0081 70.1104 75.7017 70.992 76.2353 72.5C76.8385 74.1936 75.7713 76.096 74.2633 77.0472C72.7553 77.9984 70.8761 78.184 69.0897 78.2768C67.3033 78.3696 65.4705 78.416 63.8233 79.112C62.5705 79.6456 61.5033 80.5272 60.2737 81.1304C59.0441 81.7336 57.5129 81.9888 56.3529 81.2464C55.5177 80.7128 54.8913 78.9728 55.7961 78.184C56.4225 77.6272 58.3481 77.9056 59.1833 77.6968C61.9673 77.0008 64.3337 75.0752 65.6329 72.4304Z" fill="#004812"/>
<path d="M27.678 79.3208C27.0284 80.1328 27.3996 81.4088 28.2116 82.0584C29.0236 82.708 30.0908 82.8704 31.1348 82.9632C34.2204 83.1952 37.306 82.8704 40.3684 82.5224C41.2732 82.4296 43.2916 82.1512 42.3172 80.8752C41.598 79.924 39.0228 80.5968 38.002 80.5968C34.522 80.62 31.0652 80.2024 27.678 79.3208Z" fill="white"/>
<path d="M33.3155 83.2184C32.5731 83.2184 31.8539 83.1952 31.1115 83.1256C30.0443 83.0328 28.9539 82.8704 28.0955 82.1976C27.2371 81.5248 26.8195 80.1096 27.5387 79.2048C27.5851 79.1584 27.6547 79.1352 27.7243 79.1352C31.0883 80.0168 34.5219 80.4344 38.0019 80.4112C38.2571 80.4112 38.6051 80.3648 38.9995 80.3184C40.2755 80.156 41.8531 79.9704 42.4563 80.7592C42.7347 81.1304 42.8275 81.4552 42.6883 81.7568C42.4331 82.3832 41.3195 82.5688 40.3915 82.6848C38.0715 82.94 35.7051 83.2184 33.3155 83.2184ZM27.7475 79.5064C27.2371 80.2488 27.6315 81.3624 28.3275 81.9192C29.0931 82.5456 30.1371 82.708 31.1579 82.7776C34.2203 83.0096 37.3523 82.6848 40.3683 82.3368C41.5515 82.1976 42.2243 81.9656 42.3867 81.6176C42.4563 81.4552 42.3867 81.2232 42.2011 80.968C41.7139 80.3416 40.1827 80.5272 39.0691 80.6664C38.7211 80.7128 38.3731 80.7592 38.0251 80.7592C34.5451 80.8056 31.1115 80.3648 27.7475 79.5064Z" fill="#004812"/>
<path d="M37.9786 62.2456C36.6562 62.0136 35.2178 61.9904 34.0114 62.6168C32.225 63.568 31.4826 65.6792 30.485 67.4424C28.7682 70.4352 25.961 72.7088 24.453 75.7944C23.9658 76.792 23.641 78.0448 24.2674 78.996C24.9634 80.04 26.425 80.1328 27.5386 80.7128C29.557 81.7568 30.253 84.564 29.3018 86.6288C28.3506 88.6936 26.1466 90.016 23.8962 90.3176C19.117 90.9672 14.6858 87.7192 13.8274 82.9632C13.433 80.7592 13.8738 78.4624 14.7322 76.3744C15.5906 74.2864 16.797 72.4072 18.0034 70.528L23.9658 61.248C25.033 59.6008 26.1002 57.9304 27.5154 56.5616C28.9306 55.1928 30.7634 54.172 32.7122 54.056C34.893 53.94 36.981 54.9608 38.7906 56.1672C42.3402 58.5104 46.029 62.0136 47.8154 65.9344C46.0754 66.1664 45.1706 65.308 43.7786 64.4496C42.0154 63.336 40.0434 62.5936 37.9786 62.2456Z" fill="#004812"/>
<path d="M31.2272 51.4344C30.9488 52.8496 31.3664 54.288 32.3408 55.332C33.4776 56.5152 35.1712 56.956 36.7952 57.2344C38.7208 57.5592 40.7856 57.7216 42.5256 56.84C44.2656 55.9584 45.4952 53.7776 44.6368 52.0144C43.9176 50.5296 42.1544 49.9496 40.5768 49.532C37.4216 48.6504 32.1088 46.284 31.2272 51.4344Z" fill="#004812"/>
<path d="M34.0809 21.2744C30.7401 20.88 27.0745 22.0632 25.0793 24.5456C23.2465 26.8192 22.9913 29.7424 21.8777 32.3408C20.9265 34.568 19.3025 36.772 19.7201 39.092C20.0449 40.9016 21.5761 42.2936 23.0609 43.5232C27.5385 47.1888 32.4569 50.2512 37.7001 52.6872C38.9993 53.2904 40.3913 53.8704 41.8761 53.9168C43.3609 53.9632 44.9849 53.36 45.6577 52.1536C46.3537 50.9008 45.8433 49.4624 45.4025 48.1632C43.1289 41.7136 42.0617 34.8928 42.2937 28.072C42.3633 26.0072 41.9457 25.2184 40.1593 23.8264C38.3961 22.4112 36.2849 21.5528 34.0809 21.2744Z" fill="#004812"/>
<path d="M47.0732 48.1168C47.0268 48.9984 46.934 49.88 46.4932 50.692C46.006 51.62 45.1244 52.2696 44.1036 52.4552C42.8044 52.7104 41.5284 52.1536 40.4844 51.5504C33.478 47.4904 29.9052 40.8088 26.6572 34.4056C26.3092 33.7096 25.9612 32.9672 26.1236 32.2016C26.4484 30.8096 28.374 29.9976 30.114 29.58C34.1972 28.5592 40.3916 27.9328 44.2428 29.4408C46.0292 30.1368 45.7276 33.0368 46.006 34.568C46.354 36.656 46.6556 38.744 46.8644 40.8552C47.1196 43.2912 47.1892 45.704 47.0732 48.1168Z" fill="white"/>
<path d="M43.4305 52.7104C42.2705 52.7104 41.2033 52.2 40.3913 51.7128C33.5937 47.7688 30.0905 41.5744 26.4945 34.4984C26.1697 33.8488 25.7521 33.0136 25.9609 32.1784C26.3321 30.6472 28.3969 29.8352 30.0673 29.4176C34.4985 28.304 40.6233 27.84 44.3121 29.2784C45.7969 29.8584 45.9361 31.8072 46.0521 33.3616C46.0753 33.8024 46.1217 34.1968 46.1681 34.5448C46.5857 36.9808 46.8409 38.9992 47.0265 40.8552C47.2817 43.268 47.3281 45.704 47.2121 48.1168C47.1657 48.9984 47.0729 49.9264 46.6089 50.7616C46.0753 51.7128 45.1705 52.4088 44.0801 52.6176C43.8945 52.6872 43.6625 52.7104 43.4305 52.7104ZM38.3497 28.7216C35.5889 28.7448 32.8513 29.0928 30.1601 29.7424C28.8609 30.0672 26.6337 30.8096 26.3089 32.248C26.1233 32.9672 26.5177 33.7328 26.8193 34.336C30.3689 41.3656 33.8489 47.5136 40.5769 51.4112C41.5281 51.968 42.7577 52.548 44.0801 52.316C45.0545 52.1072 45.8897 51.504 46.3537 50.6224C46.7713 49.8336 46.8641 48.952 46.9105 48.1168C47.0265 45.704 46.9569 43.2912 46.7249 40.9016C46.5393 39.0456 46.2841 37.0504 45.8665 34.6144C45.7969 34.2664 45.7737 33.8488 45.7505 33.408C45.6345 31.9464 45.4953 30.1368 44.2193 29.6264C42.5953 28.9768 40.5537 28.7216 38.3497 28.7216Z" fill="#004812"/>
<path d="M43.8944 26.6568C45.704 27.6544 47.096 29.0232 48.488 30.3688C49.0448 30.9024 49.6016 31.5288 49.416 32.2248C49.1376 33.1528 47.6992 33.5472 46.516 33.756L30.7632 36.4704C29.3944 36.7024 27.8864 36.9344 26.7032 36.424C25.1952 35.7744 24.8704 34.1504 25.1488 32.7816C25.5896 30.6936 27.144 28.7448 29.348 27.4688C31.6448 26.1464 34.2664 26.0072 36.888 25.5432C39.3008 25.0792 41.7832 25.4736 43.8944 26.6568Z" fill="#004812"/>
<path d="M40.2056 39.0224C40.716 39.2312 40.832 39.8808 40.8784 40.4376C40.9248 40.6696 40.9016 40.9248 40.8552 41.1568C40.8088 41.5048 40.484 41.76 40.1128 41.6904C39.904 41.6672 39.7184 41.528 39.6256 41.3424C39.4864 41.0872 39.3704 40.8088 39.3472 40.5072C39.2544 40.1824 39.2544 39.8344 39.324 39.5096C39.3936 39.1616 39.6952 38.9296 40.0432 38.9296" fill="#004812"/>
<path d="M44.1265 38.6048C44.6369 38.8136 44.7529 39.4632 44.7993 40.02C44.8225 40.252 44.8225 40.5072 44.7761 40.7392C44.7297 40.9944 44.5441 41.18 44.3121 41.2728C44.0105 41.3424 43.7089 41.2032 43.5465 40.948C43.4073 40.6928 43.2913 40.4144 43.2681 40.1128C43.1753 39.788 43.1753 39.44 43.2449 39.1152C43.3145 38.7672 43.6161 38.5352 43.9641 38.5352" fill="#004812"/>
<path d="M40.1592 55.0768C39.208 55.0768 38.2568 54.8912 37.352 54.5664C35.4264 53.8704 33.7792 52.6408 32.1784 51.4344C32.132 51.388 32.1088 51.3184 32.1552 51.272C32.2016 51.2256 32.2712 51.2024 32.3176 51.2488C33.8952 52.432 35.5424 53.6616 37.4216 54.3344C39.5096 55.0768 41.5976 54.984 43.1288 54.056C43.1752 54.0328 43.2448 54.0328 43.2912 54.1024C43.3144 54.1488 43.3144 54.2184 43.2448 54.2648C42.34 54.7984 41.2496 55.0768 40.1592 55.0768Z" fill="white"/>
<path d="M69.9018 75.1912C69.8786 75.1912 69.8554 75.1912 69.8322 75.168C69.7858 75.1216 69.7858 75.052 69.8322 75.0056C71.1546 73.5208 73.0338 72.6392 75.0058 72.5696C75.0754 72.5696 75.1218 72.616 75.1218 72.6856C75.1218 72.7552 75.0754 72.8016 75.0058 72.8016C73.0802 72.8712 71.2706 73.7296 69.9946 75.168C69.9714 75.168 69.925 75.1912 69.9018 75.1912Z" fill="#004812"/>
<path d="M69.554 77.0936H69.5308C69.4612 77.0704 69.438 77.024 69.438 76.9544C69.8324 75.4696 69.8788 73.892 69.6004 72.384C69.5772 72.3144 69.6236 72.268 69.6932 72.2448C69.7628 72.2448 69.8092 72.268 69.8324 72.3376C70.1108 73.892 70.0644 75.4928 69.67 77.024C69.6468 77.0472 69.6004 77.0936 69.554 77.0936Z" fill="#004812"/>
<path d="M16.008 92.8696C14.5 93.4264 12.9456 94.2152 12.2728 95.5376C11.4608 97.1848 12.3888 99.1568 13.92 100.34C15.4512 101.523 17.4696 102.057 19.4416 102.521C41.4352 107.764 65.1688 107.509 86.8608 101.407C90.3408 100.433 93.9368 99.2032 96.164 96.6744C97.1616 95.5376 97.8344 94.0296 97.3008 92.684C96.628 91.0368 94.4472 90.4104 92.568 89.8304C82.7312 86.6984 57.8376 87.4408 50.4136 87.9048C46.8176 88.1136 33.0832 88.624 25.9608 90.132C22.7824 90.8048 19.0472 91.756 16.008 92.8696Z" fill="white"/>
<path d="M51.1794 106.372C40.4842 106.372 29.8354 105.142 19.4186 102.683C17.4466 102.219 15.3818 101.662 13.8274 100.456C11.7626 98.8552 11.5074 96.744 12.1338 95.4448C12.853 94.0064 14.5466 93.2176 15.9618 92.7072C19.2794 91.4776 23.2234 90.5264 25.9378 89.9464C32.0394 88.6472 42.9898 88.0904 48.2562 87.8352L50.437 87.7192C58.905 87.2088 82.9634 86.5592 92.661 89.668L92.9858 89.7608C94.7954 90.3408 96.8602 90.9904 97.5098 92.6144C98.229 94.3776 96.9298 96.1176 96.3498 96.7904C94.1226 99.296 90.5266 100.572 86.9538 101.57C75.5162 104.771 63.3826 106.372 51.1794 106.372ZM16.0778 93.032C14.7322 93.5424 13.1082 94.2848 12.4354 95.6072C11.6466 97.208 12.6442 99.1336 14.013 100.178C15.4978 101.314 17.4466 101.848 19.465 102.335C41.5746 107.602 65.4938 107.207 86.8146 101.222C90.3178 100.247 93.8674 98.9944 96.0482 96.5352C96.605 95.9088 97.7882 94.308 97.1618 92.7304C96.5586 91.2456 94.5866 90.6192 92.8466 90.0624L92.5218 89.9696C82.8938 86.884 58.8818 87.5336 50.437 88.044C49.9034 88.0672 49.161 88.1136 48.2562 88.16C43.013 88.4384 32.0626 88.972 26.0074 90.2712C23.293 90.8512 19.3722 91.8024 16.0778 93.032Z" fill="#004812"/>
<path d="M48.836 103.379C38.3729 103.402 27.9561 102.196 17.7713 99.8296C16.4953 99.528 15.2657 99.2032 14.3609 98.4608C13.4561 97.7184 12.8761 96.396 13.6185 95.352C13.6649 95.3056 13.7345 95.2824 13.7809 95.3288C13.8273 95.3752 13.8505 95.4216 13.8041 95.4912C13.1777 96.3728 13.6649 97.6024 14.5233 98.2752C15.4049 98.9712 16.5881 99.296 17.8409 99.5976C40.9249 105.026 66.0504 104.214 88.6008 97.2776C91.2688 96.4656 94.1456 95.3056 95.0968 93.0784C95.12 93.0088 95.1897 92.9856 95.2592 93.0088C95.3288 93.032 95.3521 93.1016 95.3288 93.1712C94.308 95.4912 91.3848 96.6744 88.6704 97.5096C75.7713 101.43 62.3385 103.402 48.836 103.379Z" fill="#004812"/>
<path d="M29.5569 90.5032C28.7449 90.48 27.8864 90.4568 27.1672 90.8048C26.448 91.1528 25.868 92.0112 26.1232 92.7768C26.4248 93.6352 27.4688 93.8904 28.3504 94.0528L34.3128 95.004C37.7232 95.5608 41.1568 96.0944 44.6136 96.1872C48.1864 96.28 51.736 95.9088 55.2857 95.5376L69.6 94.0064C70.3192 93.9368 71.0616 93.844 71.6185 93.4032C72.1753 92.9624 72.4768 92.0808 72.0128 91.524C71.7344 91.1992 71.2936 91.0832 70.8993 90.9904C65.5168 89.784 59.9953 89.2272 54.4736 89.2968C52.0609 89.3432 49.7872 89.8072 47.3976 89.9928C44.5441 90.248 41.7136 90.4104 38.86 90.48C35.7512 90.596 32.6424 90.596 29.5569 90.5032Z" fill="#004812"/>
<path d="M45.0544 94.3776C43.3376 94.3312 41.5976 94.192 39.904 93.96L28.8376 92.6144C28.42 92.568 28.0024 92.4984 27.7472 92.1736C27.5848 91.9416 27.5616 91.6632 27.7008 91.408C27.7936 91.2224 27.9792 91.1296 28.1648 91.1528C28.2344 91.1528 28.2808 91.2224 28.2808 91.292C28.2808 91.3616 28.2112 91.408 28.1416 91.408C28.0488 91.408 27.9792 91.4544 27.9328 91.524C27.8632 91.6632 27.8632 91.8488 27.956 91.988C28.1416 92.22 28.5128 92.2896 28.8608 92.336L39.9272 93.6816C42.5256 94.0064 45.1936 94.308 47.8152 93.8904C47.8848 93.8672 47.9544 93.9368 47.9544 94.0064C47.9544 94.076 47.908 94.1456 47.8384 94.1456C46.9336 94.308 46.0056 94.3776 45.0544 94.3776Z" fill="white"/>
<path d="M49.9268 92.0112C49.7644 92.568 49.602 93.2176 49.9268 93.728C50.3212 94.308 51.1564 94.3312 51.8524 94.2848C57.4204 93.9136 62.9652 93.3336 68.51 92.5448C70.2268 92.3128 71.99 92.0112 73.382 90.9904C74.6812 90.016 75.4932 88.5312 76.1892 87.0464C78.9964 81.1304 80.9684 74.8664 82.0356 68.4168C82.1052 67.976 82.1748 67.512 82.0124 67.1176C81.6412 66.2128 80.3884 66.12 79.414 66.1896L60.39 67.3264C59.0444 67.4192 57.7452 67.048 57.142 68.3008C56.4692 69.6464 56.214 71.3864 55.7732 72.8248C54.8684 75.8176 53.9636 78.7872 53.0588 81.78C51.9916 85.1672 50.9476 88.6008 49.9268 92.0112Z" fill="#004812"/>
<path d="M31.4362 84.0536C32.8514 83.5432 34.1042 82.6384 35.4962 82.0816C38.0018 81.1304 40.7858 81.3392 43.1058 82.6848C43.9642 83.1952 44.753 83.868 45.1938 84.7496C45.6346 85.6312 45.6346 86.7912 45.0314 87.58C44.4282 88.3688 43.1754 88.6472 42.3866 88.0208C42.7346 89.4592 41.4122 90.8976 39.9738 91.176C38.5354 91.4544 37.0274 90.8512 35.7514 90.1088C34.4754 89.3664 33.2922 88.4384 31.9002 87.928C30.5082 87.4176 29.0234 87.3712 27.6778 86.7912C26.773 86.3968 24.8938 84.1 26.8194 83.8216C27.4458 83.7288 28.2114 84.2856 28.8146 84.3784C29.6962 84.4944 30.601 84.3784 31.4362 84.0536Z" fill="white"/>
<path d="M39.2312 91.4312C38.164 91.4312 37.004 91.0368 35.6584 90.2712C35.2872 90.0392 34.916 89.8072 34.5448 89.5752C33.6864 88.9952 32.7816 88.4848 31.8304 88.1136C31.204 87.9048 30.5776 87.7424 29.928 87.6264C29.1392 87.4872 28.3504 87.2784 27.608 86.9768C26.9352 86.6984 25.7056 85.3528 25.8216 84.448C25.868 84.1464 26.0536 83.7752 26.796 83.6592C27.2136 83.5896 27.6544 83.7752 28.0952 83.9608C28.3272 84.0768 28.5824 84.1464 28.8376 84.216C29.696 84.332 30.5776 84.216 31.3664 83.9144C32.0856 83.636 32.7816 83.288 33.4544 82.9168C34.104 82.5456 34.7536 82.2208 35.4264 81.9424C37.9784 80.968 40.8088 81.2 43.1752 82.5456C44.196 83.1488 44.9384 83.868 45.3328 84.7032C45.82 85.724 45.7504 86.9072 45.1472 87.7192C44.776 88.1832 44.2424 88.4848 43.6624 88.5544C43.2912 88.6008 42.9432 88.5544 42.5952 88.392C42.6184 88.9256 42.456 89.4592 42.1544 89.9C41.644 90.6656 40.8552 91.176 39.9736 91.3616C39.7416 91.408 39.4864 91.4312 39.2312 91.4312ZM26.9584 83.984C26.912 83.984 26.8888 83.984 26.8424 83.984C26.216 84.0768 26.1696 84.3784 26.1696 84.4712C26.0768 85.144 27.144 86.3504 27.7472 86.6288C28.4664 86.9072 29.232 87.116 29.9976 87.2552C30.6704 87.3712 31.32 87.5336 31.9464 87.7656C32.9208 88.16 33.872 88.6704 34.7304 89.2736C35.1016 89.5056 35.4728 89.7376 35.844 89.9696C37.4216 90.8976 38.7672 91.2456 39.9272 91.0136C40.7392 90.8512 41.4352 90.3872 41.876 89.6912C42.2008 89.2272 42.3168 88.624 42.2008 88.0672C42.1776 87.9744 42.224 87.8816 42.34 87.8584C42.3864 87.8352 42.456 87.8584 42.4792 87.8816C42.804 88.1368 43.2216 88.2296 43.616 88.16C44.1032 88.1136 44.5672 87.8584 44.8688 87.464C45.3792 86.768 45.4488 85.724 45.008 84.8192C44.6368 84.0536 43.964 83.3808 42.9896 82.824C40.716 81.5248 37.9784 81.316 35.5424 82.244C34.8696 82.5224 34.2432 82.8472 33.6168 83.1952C32.9208 83.5896 32.2248 83.9376 31.4824 84.216C30.624 84.564 29.696 84.6568 28.768 84.5408C28.4896 84.4712 28.2112 84.3784 27.9328 84.2624C27.6312 84.1232 27.3064 84.0304 26.9584 83.984Z" fill="#004812"/>
<path d="M42.5724 88.2064C42.526 88.2064 42.4796 88.1832 42.4796 88.1368C41.3428 85.7936 38.8372 84.448 36.262 84.7264C36.1924 84.7264 36.146 84.68 36.1228 84.6336C36.0996 84.5872 36.1692 84.5176 36.2156 84.4944C38.9068 84.1928 41.482 85.608 42.6884 88.044C42.7116 88.0904 42.6884 88.16 42.642 88.2064C42.5956 88.2064 42.5956 88.2064 42.5724 88.2064Z" fill="#004812"/>
<path d="M40.2755 48.8824C40.9019 49.3232 41.6907 49.5088 42.4563 49.416C42.7579 49.416 43.0594 49.2536 43.245 49.0216C43.4074 48.7664 43.2682 48.3256 42.9667 48.3024C42.8275 48.3024 42.665 48.372 42.549 48.4416C41.5978 48.952 40.3914 48.5808 39.881 47.6296C39.8346 47.5368 39.7882 47.444 39.765 47.3512C39.7186 47.212 39.6722 47.0728 39.6026 46.9336C39.533 46.7944 39.3939 46.7248 39.2315 46.7248C38.3731 46.8176 40.0203 48.6968 40.2755 48.8824Z" fill="#004812"/>
</svg>
